<?xml version="1.0" encoding="UTF-8" standalone="no"?>
<!DOCTYPE svg PUBLIC "-//W3C//DTD SVG 1.1//EN" "http://www.w3.org/Graphics/SVG/1.1/DTD/svg11.dtd">
<!-- Created with Vectornator (http://vectornator.io/) -->
<svg height="100%" stroke-miterlimit="10" style="fill-rule:nonzero;clip-rule:evenodd;stroke-linecap:round;stroke-linejoin:round;" version="1.1" viewBox="0 0 2560 1440" width="100%" xml:space="preserve" xmlns="http://www.w3.org/2000/svg" xmlns:xlink="http://www.w3.org/1999/xlink">
<defs>
<path d="M1417.22 115.406C1415.92 115.349 1414.65 115.417 1413.41 115.625C1403.64 117.259 1373.77 150.14 1365.59 157.438C1328.89 190.188 1295.87 231.899 1267.47 271.875C1257.24 286.276 1250.91 306.268 1239.47 319.344C1204.31 359.54 1138.42 378.136 1096.38 410.719C1030.24 461.976 979.799 564.99 887.094 570.375C851.164 572.462 823.045 553.166 788.125 551.75C742.229 549.888 714.436 587.406 664.531 576.469C626.174 568.063 598.468 535.803 560.406 527.375C510.304 516.281 455.455 515.022 407.125 498.219C379.409 488.582 357.601 457.051 330.188 450.906C310.565 446.508 284.914 466.108 269.562 474.438C205.683 509.098 163.679 564.225 104.344 603.125C87.8942 613.909-58.6392 623.561-75.5686 626.906L-36.2812 1490.45L2606.78 1568.89L2600.86 769.001C2583.36 725.809 2074.86 640.287 2042.78 600.781C1993.8 540.464 1912.98 559.307 1844.94 545.25C1803.3 536.648 1770.14 507.712 1727.75 509.156C1724.92 509.253 1722.07 509.494 1719.16 509.875L1714.12 512.781C1678.36 488.411 1613.18 486.705 1591.72 442.125C1566.03 388.778 1555.06 327.12 1532.53 272.188C1520.65 243.217 1457.37 117.194 1417.22 115.406Z" id="Fill"/>
</defs>
<path d="M0 0L2560 0L2560 1440L0 1440L0 0Z" fill="#ffd8aa" fill-rule="nonzero" opacity="1" stroke="none"/>
<clipPath id="ArtboardFrame">
<rect height="1440" width="2560" x="0" y="0"/>
</clipPath>
<g clip-path="url(#ArtboardFrame)" id="Layer-1">
<g opacity="1">
<g opacity="1">
<path d="M1375.03 179.937C1373.35 180.202 1371.77 180.924 1370.16 181.406C1369.01 181.749 1367.8 181.946 1366.62 182.156C1362.15 182.954 1357.61 183.364 1353.09 183.844C1345.42 184.658 1337.73 185.267 1330.06 186.156C1319.3 187.405 1308.64 189.346 1297.97 191.156C1288.09 192.831 1278.12 194.247 1268.09 194.469C1263.19 193.581 1258.27 192.704 1253.38 191.781C1247.09 190.598 1240.79 189.487 1234.44 188.75C1233.7 188.665 1232.96 188.668 1232.22 188.594C1231.19 188.224 1230.15 187.934 1229.12 187.531C1230.04 187.916 1230.98 188.235 1231.91 188.594C1227.69 188.18 1223.46 187.84 1219.22 187.719C1214.83 187.594 1210.44 187.557 1206.06 187.906C1202.33 188.204 1197.85 188.76 1195.25 191.781C1194.09 193.131 1193.27 194.915 1193.97 196.687C1194.48 197.996 1196.76 198.823 1197.94 199.25C1200.75 200.27 1203.68 200.987 1206.59 201.656C1220.41 204.834 1234.24 206.769 1248.41 207.437C1249.61 207.494 1250.82 207.514 1252.03 207.562C1248.7 207.799 1245.37 208.048 1242.03 208.219C1236.25 208.515 1230.44 208.628 1224.66 208.75C1218.69 208.876 1212.72 208.69 1206.75 208.75C1202.23 208.795 1197.71 208.981 1193.19 209.094C1184.58 209.309 1175.95 209.659 1167.34 210.031C1162.78 210.229 1158.23 210.541 1153.66 210.469C1152.82 210.106 1151.71 210.814 1151.19 212.031C1150.66 213.249 1150.91 214.512 1151.75 214.875C1158.08 215.515 1164.46 215.561 1170.81 215.812C1181.77 216.246 1192.72 216.733 1203.69 216.844C1209.66 216.904 1215.65 216.716 1221.62 216.844C1227.28 216.965 1232.97 217.07 1238.62 217.344C1249.83 217.887 1261 218.677 1272.22 218.969C1275.39 219.051 1278.57 219.02 1281.75 219.031C1294.53 219.075 1307.31 218.697 1320.09 218.406C1333.81 218.094 1347.54 217.757 1361.25 217.438C1366.89 217.306 1372.51 217.215 1378.16 217.031C1390.68 216.622 1403.28 215.959 1415.66 213.875C1420.9 212.991 1426.22 212.005 1431.28 210.312C1436.69 208.505 1442.15 205.584 1445.03 200.437C1445.74 199.167 1446.23 197.759 1446.41 196.312C1446.53 195.337 1446.5 194.34 1446.31 193.375C1445.18 187.458 1438.6 185.122 1433.44 183.969C1427.19 182.573 1420.69 182.282 1414.31 182.219C1406.26 182.139 1398.16 182.498 1390.12 183.062C1385.01 183.422 1379.91 184.027 1374.84 184.719C1376.09 183.923 1377.31 182.967 1377.5 181.656C1377.74 179.996 1376.29 179.739 1375.03 179.937ZM1371.53 183.625C1370.38 184.176 1369.18 184.65 1368 185.125C1367 185.526 1365.98 185.88 1364.97 186.25C1350.55 188.641 1336.24 191.697 1321.81 194.031C1311.42 195.713 1300.94 196.719 1290.44 197.437C1285.12 196.964 1279.8 196.496 1274.53 195.656C1273.68 195.521 1272.85 195.331 1272 195.187C1279.94 194.902 1287.86 193.997 1295.72 192.844C1305.19 191.453 1314.64 189.8 1324.16 188.75C1332.65 187.813 1341.17 187.218 1349.69 186.562C1355.51 186.115 1361.4 185.755 1367.16 184.75C1368.67 184.486 1370.08 184.048 1371.53 183.625ZM1406.06 193.312C1410.31 193.373 1414.55 193.539 1418.78 194C1421.1 194.253 1423.41 194.584 1425.69 195.094C1427.69 195.542 1429.72 196.114 1431.53 197.094C1432.08 197.391 1432.61 197.749 1433.06 198.188C1432.31 198.481 1431.55 198.78 1430.78 199C1427.1 200.048 1423.28 200.675 1419.5 201.25C1404.82 203.486 1389.91 203.692 1375.09 203.844C1360.21 203.996 1345.35 204.245 1330.47 204.531C1324.13 204.653 1317.78 204.842 1311.44 204.969C1313.18 204.738 1314.95 204.601 1316.69 204.344C1339.58 200.966 1362.16 195.212 1385.31 193.812C1392.2 193.396 1399.16 193.215 1406.06 193.312ZM1212.59 194.438C1218.03 194.341 1223.52 194.439 1228.94 194.844C1234.81 195.283 1240.68 196.07 1246.5 196.969C1249.95 197.501 1253.4 198.023 1256.84 198.594C1255.74 198.589 1254.64 198.64 1253.53 198.625C1249.88 198.575 1246.25 198.54 1242.59 198.344C1234.62 197.916 1226.66 197.004 1218.78 195.688C1216.57 195.319 1214.32 194.901 1212.09 194.469C1212.26 194.465 1212.43 194.44 1212.59 194.438Z" fill="#ffffff" stroke="none"/>
</g>
<g opacity="1">
<path d="M1492.75 211.562C1492.38 211.573 1492.02 211.607 1491.66 211.625C1491.18 211.649 1490.7 211.665 1490.22 211.687C1489.74 211.71 1489.26 211.728 1488.78 211.75C1488.3 211.772 1487.8 211.79 1487.31 211.812C1478.39 212.223 1469.47 212.423 1460.56 213.156C1448.94 214.114 1437.38 215.743 1425.84 217.437C1417.18 218.71 1408.52 220.088 1399.81 221.031C1382.69 222.886 1365.38 223.307 1348.28 220.969C1369.01 224.193 1390.13 223.289 1410.88 220.656C1429.44 218.301 1448 215.521 1466.72 214.75C1472.83 214.498 1478.95 214.473 1485.06 214.312C1487.33 214.253 1489.58 214.147 1491.84 214.125C1491.96 214.124 1492.07 214.125 1492.19 214.125C1491.46 214.482 1490.77 214.915 1490 215.219C1487.66 216.148 1485.25 216.908 1482.84 217.656C1477.01 219.469 1471.08 221.106 1465.09 222.344C1437.13 228.124 1408.57 226.167 1380.31 224.25C1376.15 223.968 1371.98 223.613 1367.81 223.438C1362.58 223.217 1357.35 223.261 1352.13 223.438C1347.78 223.585 1343.39 223.812 1339.09 224.5C1336.07 224.983 1332.47 225.676 1330.34 228.094C1329.42 229.15 1328.28 231.205 1329.44 232.562C1330.17 233.429 1331.64 233.723 1332.59 234C1332.98 234.111 1333.36 234.212 1333.75 234.312C1336.01 234.901 1338.31 235.302 1340.59 235.781C1338.12 235.667 1335.63 235.599 1333.16 235.438C1329.07 235.17 1324.97 234.856 1320.91 234.344C1314.95 233.593 1309.03 232.591 1303.06 231.937C1296.98 231.272 1290.83 230.808 1284.72 230.719C1281.65 230.674 1278.6 230.809 1275.53 230.906C1269.74 231.09 1263.95 231.272 1258.22 232.187C1254.38 232.801 1250.58 233.984 1246.88 235.156C1246.14 235.111 1245.5 235.958 1245.44 237.031C1245.37 238.104 1245.92 239.017 1246.66 239.062C1250.06 238.228 1253.54 237.339 1257.03 237.031C1262.43 236.557 1267.85 236.771 1273.25 236.969C1277.97 237.141 1282.7 237.378 1287.41 237.844C1291.43 238.242 1295.41 238.817 1299.41 239.375C1305.35 240.204 1311.3 240.935 1317.25 241.719C1319.84 242.06 1322.41 242.522 1325 242.875C1328.82 243.396 1332.68 243.781 1336.5 244.281C1343.5 245.196 1350.46 246.239 1357.47 247.094C1362.16 247.666 1366.86 248.265 1371.56 248.75C1381.71 249.797 1391.94 250.333 1402.12 250.781C1412.39 251.233 1422.64 251.601 1432.91 251.844C1456.82 252.408 1480.78 252.464 1504.69 251.719C1526.92 251.026 1549.58 249.18 1571.19 243.625C1576.74 242.197 1582.43 240.55 1587.44 237.719C1590.02 236.259 1592.45 234.395 1593.91 231.75C1594.43 230.801 1594.79 229.74 1594.88 228.656C1595.31 223.223 1588.42 222.415 1584.5 221.844C1584 221.771 1583.35 221.663 1582.81 221.594C1577.97 220.968 1573.14 220.155 1568.28 219.625C1557.36 218.434 1546.32 217.929 1535.34 218.187C1509.05 218.806 1483.26 224.386 1457.25 227.719C1434.51 230.633 1411.58 230.969 1388.69 231.312C1376.62 231.493 1364.51 232.278 1352.47 231.125C1349.13 230.805 1345.8 230.241 1342.5 229.594C1343.4 229.496 1344.29 229.328 1345.19 229.25C1351.86 228.675 1358.62 228.462 1365.31 228.562C1368.19 228.606 1371.06 228.779 1373.94 228.906C1405.61 230.308 1438.07 232.599 1469.09 224.406C1476.22 222.523 1483.44 220.485 1490.25 217.656C1492 216.93 1494.03 216.182 1495.41 214.812C1495.93 214.286 1496.44 213.57 1496.34 212.781C1496.18 211.353 1493.7 211.536 1492.75 211.562ZM1534.66 227.594C1545.85 227.557 1557.07 228.358 1568.12 229.969C1571.05 230.394 1573.92 230.978 1576.84 231.406C1577.39 231.486 1577.95 231.579 1578.5 231.656C1578.19 231.752 1577.9 231.876 1577.59 231.969C1574.54 232.89 1571.4 233.595 1568.28 234.25C1562.71 235.418 1557.11 236.342 1551.47 237.062C1535.23 239.134 1518.86 239.676 1502.5 239.812C1493.57 239.887 1484.62 239.915 1475.69 239.844C1459.53 239.715 1443.37 239.392 1427.22 238.844C1424.4 238.748 1421.57 238.612 1418.75 238.5C1431.87 238.333 1444.95 237.839 1457.97 236.281C1479.83 233.664 1501.45 229.101 1523.47 227.906C1527.19 227.704 1530.92 227.606 1534.66 227.594Z" fill="#ffffff" stroke="none"/>
</g>
</g>
<g opacity="1">
<use fill="#e94420" fill-rule="nonzero" opacity="1" stroke="none" xlink:href="#Fill"/>
<clipPath clip-rule="nonzero" id="ClipPath">
<use xlink:href="#Fill"/>
</clipPath>
<g clip-path="url(#ClipPath)">
<path d="M1345.14 339.07C1273.99 243.24 1454.83 74.1494 1454.83 74.1494C1454.83 74.1494 1589.48 400.98 1654.63 486.894C1473.28 454.116 1400 412.957 1345.14 339.07Z" fill="#ff4a23" fill-rule="nonzero" opacity="0.574087" stroke="none"/>
<path d="M2086.68 554.24C2086.68 554.24 1922.57 630.347 1802.67 540.136C1682.77 449.925 2086.68 554.24 2086.68 554.24Z" fill="#ff4a23" fill-rule="nonzero" opacity="0.574087" stroke="none"/>
<path d="M322.295 444.587C322.295 444.587 317.54 493.739 355.138 498.95C392.736 504.161 492.793 509.058 492.793 509.058L322.295 444.587Z" fill="#ff4a23" fill-rule="nonzero" opacity="0.574087" stroke="none"/>
<path d="M523.916 508.513C523.916 508.513 572.821 535.803 596.561 562.927C626.735 597.403 667.976 615.347 689.583 597.001C728.188 564.221 729.499 562.234 729.499 562.234L524.437 505.934" fill="#ff4a23" fill-rule="nonzero" opacity="0.574087" stroke="none"/>
<path d="M780.955 541.05C780.955 541.05 821.676 573.217 867.138 581.662C912.601 590.107 976.314 552.767 979.933 530.737C983.551 508.707 780.955 541.05 780.955 541.05Z" fill="#ff4a23" fill-rule="nonzero" opacity="0.574087" stroke="none"/>
</g>
</g>
<g opacity="1">
<path d="M-138.894 1054.01C-138.894 1054.01-19.0368 977.959-5.40735 995.275C17.6233 1024.54-9.7831 1037.66 28.847 1049.55C148.15 1086.29 287.165 1087.32 414.229 1089.32C717.226 1094.11 1031.31 1088.87 1331.25 1119.39C1364.82 1122.81 1409.03 1127.12 1438.38 1141.09C1465.61 1154.04 1482.38 1178.18 1510.54 1191.59C1557.55 1213.99 1624.38 1210.34 1676.89 1208.37C1849.16 1201.91 2007.62 1160.84 2175.34 1131.56C2376.26 1096.47 2598.51 1066.26 2803.49 1074.22C2846.61 1075.9 2911.85 1085.28 2922.45 1124.92C2925.38 1135.87 2916.57 1181.38 2926.14 1188.39C2930.71 1191.74 3004.88 1203.21 3008.5 1203.69C3147.51 1222.14 3257.62 1197.76 3372.49 1272.76C3397.84 1289.31 3459.92 1319.28 3450.69 1351.39C3443.59 1376.11 3360.77 1458.95 3340.21 1475.7C3206.65 1584.49 3018.13 1556.84 2841.93 1571.92C2790.33 1576.33 2721.23 1580.01 2669.24 1583.03C2425.56 1597.2 2186.91 1631.79 1943.98 1651.27C1639.1 1675.72 1332.48 1688.14 1027.1 1705.9C762.473 1721.29 34.8238 1796.8-101.051 1704.85C-159.281 1665.45-138.894 1054.01-138.894 1054.01Z" fill="#f5891d" fill-rule="nonzero" stroke="none"/>
<path d="M-9.25 984.188C-13.012 984.173-16.8046 984.889-20.4062 985.781C-27.6051 987.564-34.5951 990.252-41.4062 993.156C-52.5347 997.901-63.331 1003.4-74 1009.09C-87.1306 1016.1-99.9988 1023.58-112.75 1031.25C-120.235 1035.75-127.682 1040.33-135.062 1045C-136.64 1046-138.211 1047.02-139.781 1048.03C-140.159 1048.27-140.529 1048.51-140.906 1048.75C-140.914 1048.75-140.932 1048.74-141.188 1048.91C-143.124 1049.77-143.667 1052.78-142.406 1055.59C-141.641 1057.3-140.365 1058.44-139.062 1058.97C-139.16 1061.84-139.252 1064.72-139.344 1067.59C-139.629 1076.51-139.909 1085.4-140.156 1094.31C-141.108 1128.59-141.832 1162.9-142.344 1197.19C-143.302 1261.36-143.555 1325.54-142.563 1389.72C-141.746 1442.49-140.203 1495.3-136.562 1547.97C-135.172 1568.09-133.469 1588.19-131.125 1608.22C-129.096 1625.55-126.65 1642.87-122.969 1659.94C-120.725 1670.34-118.097 1680.85-113.906 1690.66C-111.816 1695.55-109.278 1700.39-105.594 1704.28C-103.812 1706.16-101.592 1707.52-99.4063 1708.88C-96.6188 1710.61-93.7698 1712.2-90.8438 1713.69C-78.3117 1720.04-64.841 1724.53-51.3125 1728.22C-31.9443 1733.5-12.1647 1737.16 7.6875 1740.06C33.5305 1743.85 59.5761 1746.32 85.625 1748.16C115.646 1750.27 145.727 1751.47 175.812 1752.16C257.444 1754.03 339.14 1752.24 420.719 1749.16C523.221 1745.29 625.633 1739.06 727.969 1732.12C783.209 1728.38 838.428 1724.38 893.656 1720.47C936.113 1717.46 978.565 1714.44 1021.06 1712.06C1090.39 1708.18 1159.74 1704.77 1229.09 1701.31C1453.84 1690.11 1678.68 1679.86 1903.12 1663.44C1936.07 1661.03 1969 1658.48 2001.91 1655.66C2042.23 1652.19 2082.53 1648.39 2122.81 1644.41C2238.2 1632.99 2353.44 1620.14 2468.94 1609.84C2536.49 1603.82 2604.12 1598.73 2671.84 1595.16C2713.4 1592.96 2754.97 1590.86 2796.5 1588.19C2807.06 1587.51 2817.6 1586.8 2828.16 1586C2838.72 1585.2 2849.3 1584.34 2859.88 1583.69C2883.74 1582.22 2907.63 1581.37 2931.53 1580.78C2950.53 1580.31 2969.54 1579.91 2988.53 1579.44C3002.88 1579.08 3017.22 1578.66 3031.56 1578.09C3059.08 1577 3086.59 1575.42 3113.97 1572.44C3173.29 1565.98 3232.8 1552.71 3286.25 1525.44C3299.98 1518.43 3313.25 1510.53 3325.94 1501.78C3334.04 1496.2 3342 1490.34 3349.53 1484C3355.4 1479.06 3361 1473.79 3366.56 1468.5C3373.42 1461.98 3380.15 1455.34 3386.81 1448.63C3404.71 1430.57 3422.27 1412.06 3438.53 1392.5C3445.67 1383.91 3452.68 1375.09 3458.59 1365.59C3463.11 1358.35 3466.93 1350.59 3467.5 1341.94C3468.61 1325.17 3457.67 1311.34 3445.91 1300.72C3431.27 1287.5 3414.08 1277.37 3397.25 1267.25C3386.2 1260.6 3375.5 1253.41 3364.25 1247.09C3347.21 1237.53 3329.35 1229.44 3310.91 1223C3292.81 1216.68 3274.18 1211.93 3255.34 1208.41C3203.67 1198.74 3150.89 1198.25 3098.56 1195.34C3072.51 1193.9 3046.48 1191.92 3020.59 1188.56C3012.65 1187.53 3004.75 1186.19 2996.84 1184.91C2985.14 1183 2973.47 1181.03 2961.81 1178.88C2956.45 1177.88 2951.08 1176.85 2945.75 1175.69C2943.93 1175.29 2942.12 1174.88 2940.31 1174.41C2940.09 1174.35 2939.88 1174.28 2939.66 1174.22C2939.59 1174.01 2939.52 1173.81 2939.47 1173.59C2939.2 1172.44 2939.06 1171.24 2938.94 1170.06C2938.37 1164.43 2938.63 1158.71 2938.91 1153.06C2939.26 1145.97 2939.87 1138.91 2940.16 1131.81C2940.35 1127.09 2940.54 1122.23 2939.62 1117.56C2938.44 1111.58 2935.68 1105.74 2932.31 1100.69C2924.07 1088.31 2911.09 1079.93 2897.66 1074.13C2887.16 1069.59 2876.11 1066.45 2864.94 1064.06C2850.8 1061.04 2836.42 1059.24 2822 1058.22C2810.59 1057.41 2799.15 1057.09 2787.72 1056.75C2767.02 1056.14 2746.3 1055.94 2725.59 1056.03C2662.91 1056.3 2600.27 1059.59 2537.81 1064.81C2467.29 1070.71 2397.01 1079.22 2326.97 1089.28C2270.47 1097.4 2214.07 1106.41 2157.88 1116.41C2126.23 1122.03 2094.68 1128.07 2063.12 1134.16C1992.2 1147.83 1921.31 1161.89 1849.81 1172.28C1806.49 1178.57 1762.97 1183.44 1719.28 1186.25C1705.23 1187.15 1691.16 1187.76 1677.09 1188.28C1666.77 1188.66 1656.48 1189.04 1646.16 1189.25C1618.6 1189.82 1590.67 1189.52 1563.5 1184.41C1554.74 1182.76 1546.06 1180.59 1537.66 1177.63C1534.84 1176.63 1532.05 1175.53 1529.31 1174.34C1528.1 1173.82 1526.86 1173.33 1525.69 1172.72C1523.02 1171.34 1520.43 1169.76 1517.81 1168.28C1516.38 1167.48 1514.85 1166.73 1513.47 1165.84C1512.64 1165.31 1511.92 1164.67 1511.12 1164.09C1510.13 1163.37 1509.12 1162.66 1508.12 1161.94C1506.24 1160.56 1504.31 1159.22 1502.47 1157.78C1500.17 1155.99 1497.96 1154.07 1495.72 1152.22C1484.97 1143.35 1474.48 1134.1 1462.47 1126.94C1450.56 1119.83 1437.42 1115.17 1424.06 1111.63C1413.63 1108.86 1403.03 1106.81 1392.38 1105.09C1376.73 1102.58 1360.98 1100.86 1345.22 1099.25C1329.65 1097.66 1314.08 1096.14 1298.5 1094.72C1247.04 1090.04 1195.49 1086.39 1143.91 1083.5C1133.14 1082.9 1122.37 1082.26 1111.59 1081.78C1082.75 1080.49 1053.89 1079.47 1025.03 1078.59C999.718 1077.83 974.385 1077.06 949.062 1076.69C921.186 1076.28 893.285 1076.26 865.406 1076.22C818.536 1076.15 771.681 1076.35 724.812 1076.81C701.827 1077.04 678.829 1077.28 655.844 1077.53C644.57 1077.65 633.305 1077.82 622.031 1077.88C590.044 1078.02 558.05 1077.98 526.062 1077.97C503.78 1077.96 481.5 1078.08 459.219 1077.84C441.15 1077.65 423.068 1077.32 405 1077.03C380.077 1076.63 355.167 1076.21 330.25 1075.53C319.36 1075.23 308.482 1074.81 297.594 1074.47C244.244 1072.78 190.933 1069.59 138.062 1062C103.216 1057 68.5977 1050.26 34.7812 1040.38C30.3353 1039.08 25.8146 1037.6 21.8437 1035.16C19.7574 1033.87 17.7762 1032.23 16.7188 1029.97C15.7153 1027.82 15.515 1025.39 15.3125 1023.06C15.0998 1020.62 14.9424 1018.15 14.625 1015.72C13.5226 1007.26 10.3938 999.488 5.5 992.531C4.10499 990.548 2.65709 988.333 0.6875 986.875C-1.12433 985.534-3.2927 984.816-5.5 984.469C-6.73618 984.274-7.99601 984.192-9.25 984.188ZM-16 1001.22C-15.2892 1001.23-14.5478 1001.28-13.875 1001.53C-13.3638 1001.72-13.1146 1002.27-12.8125 1002.69C-12.6088 1002.97-12.3868 1003.25-12.1875 1003.53C-11.0981 1005.07-10.072 1006.66-9.15625 1008.31C-6.89267 1012.39-5.34956 1016.78-4.65625 1021.41C-3.9651 1026.01-4.15492 1030.71-3.46875 1035.31C-3.07871 1037.93-2.40117 1040.51-1.1875 1042.88C2.81355 1050.67 11.4397 1054.67 19.2812 1057.5C27.2589 1060.38 35.5306 1062.71 43.6875 1065.03C59.0448 1069.4 74.5496 1073.14 90.1562 1076.5C116.011 1082.06 142.16 1086.12 168.406 1089.31C198.42 1092.97 228.57 1095.46 258.75 1097.25C268.353 1097.82 277.952 1098.33 287.562 1098.75C310.775 1099.77 334.02 1100.18 357.25 1100.59C388.115 1101.15 418.978 1101.52 449.844 1101.97C468.022 1102.24 486.198 1102.76 504.375 1103.13C539.301 1103.83 574.229 1104.48 609.156 1105.13C626.612 1105.44 644.079 1106.09 661.531 1106.59C698.473 1107.66 735.406 1108.78 772.344 1109.97C803.759 1110.98 835.184 1111.98 866.594 1113.16C888.83 1113.99 911.048 1115.03 933.281 1115.91C942.835 1116.28 952.414 1116.55 961.969 1116.91C985.023 1117.77 1008.05 1118.74 1031.09 1119.81C1052.1 1120.79 1073.1 1121.97 1094.09 1123.09C1147.32 1125.95 1200.51 1129.18 1253.62 1133.69C1275.11 1135.51 1296.58 1137.45 1318.03 1139.59C1332.63 1141.05 1347.25 1142.5 1361.78 1144.53C1374.84 1146.36 1387.81 1148.7 1400.56 1152.06C1411.01 1154.82 1421.37 1158.49 1430.69 1164.03C1442.13 1170.83 1452.11 1179.8 1462.34 1188.22C1464.31 1189.83 1466.21 1191.54 1468.22 1193.09C1470.74 1195.05 1473.39 1196.84 1475.97 1198.72C1477.65 1199.94 1479.31 1201.29 1481.06 1202.41C1483.4 1203.9 1485.93 1205.18 1488.34 1206.53C1490.69 1207.85 1493.01 1209.24 1495.41 1210.47C1497.13 1211.35 1498.94 1212.11 1500.72 1212.88C1504.62 1214.55 1508.57 1216.07 1512.59 1217.44C1528.55 1222.85 1545.22 1225.98 1561.94 1227.84C1583.27 1230.22 1604.78 1230.55 1626.22 1230.16C1638.61 1229.93 1651.02 1229.46 1663.41 1228.97C1687.33 1228.02 1711.21 1226.66 1735.06 1224.59C1784.54 1220.31 1833.78 1213.49 1882.75 1205.31C1965.6 1191.47 2047.69 1173.59 2130.22 1158C2155.04 1153.31 2179.92 1148.9 2204.81 1144.59C2238.44 1138.77 2272.11 1133.17 2305.84 1127.97C2392.6 1114.58 2479.8 1103.5 2567.34 1096.78C2638.31 1091.33 2709.52 1088.62 2780.69 1090.41C2804.75 1091.01 2828.79 1092.08 2852.31 1097.66C2864.76 1100.61 2877.37 1104.72 2888.12 1111.81C2891.5 1114.04 2894.67 1116.58 2897.44 1119.53C2901.28 1123.63 2904.06 1128.39 2905.62 1133.78C2906.02 1135.69 2905.91 1137.75 2905.88 1139.69C2905.83 1142.46 2905.68 1145.24 2905.53 1148C2905.1 1156.01 2904.52 1164.04 2904.47 1172.06C2904.43 1178.71 2904.54 1185.61 2906.44 1192.03C2907.41 1195.33 2908.94 1198.55 2911.44 1200.97C2914.89 1204.31 2919.88 1205.25 2924.41 1206.28C2931.91 1207.99 2939.49 1209.38 2947.06 1210.72C2958.49 1212.74 2969.94 1214.6 2981.41 1216.41C2987.74 1217.4 2994.09 1218.48 3000.44 1219.34C3011.35 1220.84 3022.31 1221.94 3033.28 1222.94C3070.14 1226.3 3107.14 1227.38 3144.09 1229.16C3184.12 1231.08 3224.39 1233.99 3263.38 1243.81C3287.1 1249.79 3310.01 1258.37 3331.81 1269.47C3339.22 1273.24 3346.46 1277.36 3353.53 1281.72C3358.98 1285.07 3364.33 1288.61 3369.81 1291.91C3384.9 1300.99 3400.33 1309.75 3414.12 1320.78C3420.81 1326.12 3427.44 1332.1 3431.97 1339.44C3434.05 1342.8 3435.9 1346.82 3435.66 1350.88C3435.51 1353.34 3434.11 1355.47 3432.88 1357.53C3430.95 1360.73 3428.81 1363.81 3426.59 1366.81C3419.11 1376.95 3410.84 1386.47 3402.47 1395.88C3388.78 1411.26 3374.43 1426.12 3359.78 1440.59C3354.18 1446.13 3348.52 1451.61 3342.75 1456.97C3339.44 1460.05 3336.1 1463.11 3332.59 1465.97C3316.57 1479 3299.24 1490.17 3280.94 1499.72C3269.93 1505.46 3258.5 1510.45 3246.91 1514.88C3212.45 1528.03 3176.22 1535.91 3139.75 1540.94C3080.43 1549.12 3020.45 1550.45 2960.69 1552.41C2929.82 1553.42 2898.96 1554.57 2868.16 1556.78C2856.29 1557.63 2844.45 1558.75 2832.59 1559.75C2818.34 1560.95 2804.08 1562.05 2789.81 1563.06C2743.32 1566.37 2696.76 1568.89 2650.25 1572.06C2485.82 1583.27 2322.21 1603.32 2158.41 1621.13C2081.58 1629.48 2004.68 1637.18 1927.66 1643.53C1727.17 1660.06 1526.3 1671.54 1325.47 1682.81C1260.1 1686.48 1194.74 1690.14 1129.38 1693.94C1082.49 1696.66 1035.57 1699.32 988.719 1702.63C916.843 1707.69 845.031 1713.63 773.188 1719.13C662.098 1727.62 550.954 1735.5 439.656 1740.72C378.876 1743.57 318.034 1745.7 257.188 1746.31C207.472 1746.81 157.724 1746.37 108.062 1743.84C80.1968 1742.43 52.3605 1740.35 24.6562 1737C1.3073 1734.18-22.0612 1730.51-44.875 1724.72C-59.0584 1721.12-73.1739 1716.73-86.375 1710.34C-89.6959 1708.74-92.9448 1706.99-96.0938 1705.06C-97.9501 1703.93-99.8563 1702.82-101.438 1701.31C-104.782 1698.12-107.075 1693.87-109 1689.72C-111.664 1683.97-113.674 1677.93-115.406 1671.84C-118.339 1661.55-120.484 1651.04-122.344 1640.5C-124.65 1627.44-126.477 1614.27-128.031 1601.09C-132.871 1560.07-135.429 1518.79-137.313 1477.53C-139.594 1427.56-140.696 1377.55-141.25 1327.53C-141.925 1266.59-141.636 1205.62-140.75 1144.69C-140.454 1124.31-140.084 1103.94-139.625 1083.56C-139.473 1076.8-139.333 1070.04-139.156 1063.28C-139.119 1061.85-139.07 1060.43-139.031 1059C-138.202 1059.33-137.373 1059.46-136.625 1059.13C-136.618 1059.12-136.985 1058.25-136.594 1059.09C-136.497 1059.03-136.378 1058.97-136.281 1058.91C-136.038 1058.76-135.975 1058.72-135.719 1058.56C-135.05 1058.15-134.358 1057.72-133.688 1057.31C-132.055 1056.32-130.42 1055.36-128.781 1054.38C-122.092 1050.37-115.364 1046.43-108.594 1042.56C-95.7681 1035.24-82.8122 1028.13-69.625 1021.47C-59.8671 1016.54-49.9687 1011.83-39.8125 1007.78C-33.7951 1005.38-27.6256 1003.07-21.25 1001.81C-19.5314 1001.47-17.7569 1001.2-16 1001.22Z" fill="#fffef8" stroke="none"/>
</g>
<g opacity="1">
<g opacity="1">
<path d="M1824.75 294.531C1819.55 294.38 1814.34 294.388 1809.16 294.656C1808.55 294.688 1807.95 294.737 1807.34 294.781C1806.81 294.82 1806.19 294.854 1805.66 294.906C1805.13 294.958 1804.65 295.025 1804.12 295.094C1803.65 295.156 1803.19 295.23 1802.72 295.312C1801.81 295.471 1799.43 295.866 1799.88 297.312C1800.07 297.956 1801.19 298.149 1801.72 298.281C1803.23 298.66 1804.8 298.876 1806.34 299.094C1813.47 300.098 1820.64 300.692 1827.81 301.281C1834.79 301.855 1841.77 302.347 1848.75 302.719C1846.94 302.705 1845.12 302.772 1843.31 302.75C1828.61 302.569 1813.9 302.147 1799.25 300.938C1783.5 299.638 1767.86 297.365 1752.09 296.25C1742.88 295.598 1733.64 295.352 1724.41 295.219C1715.32 295.087 1706.21 295.06 1697.12 295.188C1690.33 295.282 1683.57 295.461 1676.78 295.75C1671.95 295.956 1667.09 296.177 1662.28 296.75C1660.05 297.016 1657.41 297.275 1655.56 298.688C1655.1 299.039 1654.64 299.392 1654.28 299.844C1653.79 300.453 1653.33 301.108 1653.06 301.844C1652.83 302.485 1652.8 303.195 1652.84 303.875C1652.86 304.232 1653.05 304.559 1653.22 304.875C1653.94 306.237 1656.6 306.844 1657.91 307.188C1662.97 308.525 1668.21 309.316 1673.37 310.125C1680.43 311.23 1687.51 312.186 1694.59 313.062C1699.54 313.674 1704.47 314.269 1709.44 314.688C1720.8 315.645 1732.23 315.969 1743.62 316.188C1755.68 316.419 1767.75 316.343 1779.81 316.281C1792.64 316.215 1805.46 316.146 1818.28 316.094C1833.32 316.033 1848.36 315.963 1863.41 315.844C1875.39 315.748 1887.37 315.663 1899.34 315.25C1912.56 314.794 1925.75 313.839 1938.97 313.312C1944.52 313.091 1950.07 312.983 1955.62 312.812C1962.98 312.587 1970.33 312.694 1977.69 312.594C1997.32 312.325 2016.94 311.774 2036.56 311.156C2037.19 311.39 2037.97 310.82 2038.31 309.906C2038.65 308.993 2038.44 308.077 2037.81 307.844C2018.53 307.375 1999.23 306.566 1979.94 306.531C1973.5 306.52 1967.07 306.686 1960.62 306.688C1954.24 306.689 1947.85 306.64 1941.47 306.531C1941.21 306.527 1940.95 306.505 1940.69 306.5C1943.39 306.41 1946.09 306.432 1948.78 306.25C1952.31 306.012 1955.79 305.645 1959.22 304.781C1960.68 304.413 1962.39 303.958 1963.41 302.75C1963.75 302.335 1964 301.941 1964.12 301.406C1964.7 299.018 1960.95 298.867 1959.47 298.719C1959.23 298.694 1958.96 298.677 1958.72 298.656C1958.18 298.61 1957.67 298.565 1957.12 298.531C1956.57 298.496 1955.93 298.463 1955.38 298.438C1954.74 298.408 1954.14 298.397 1953.5 298.375C1952.5 298.34 1951.5 298.301 1950.5 298.281C1934.7 297.974 1918.87 298.844 1903.09 299.594C1897.45 299.862 1891.81 300.077 1886.16 300.281C1881.13 299.805 1876.1 299.22 1871.09 298.562C1860.86 297.218 1850.62 296.019 1840.31 295.344C1835.14 295.005 1829.95 294.683 1824.75 294.531ZM1814.62 295.969C1823.66 295.768 1832.7 296.06 1841.72 296.562C1849.48 296.994 1857.22 297.722 1864.94 298.594C1870.64 299.237 1876.35 299.887 1882.06 300.438C1874.67 300.667 1867.27 300.784 1859.87 300.688C1848.27 300.536 1836.7 299.793 1825.12 298.969C1819.15 298.543 1813.16 298.125 1807.22 297.375C1805.91 297.21 1804.58 297.009 1803.28 296.75C1804.2 296.606 1805.11 296.496 1806.03 296.406C1808.88 296.128 1811.77 296.032 1814.62 295.969ZM1938.16 301.906C1941.11 301.915 1944.08 302.003 1947.03 302.094C1938.82 302.363 1930.59 302.3 1922.37 302.25C1920.35 302.238 1918.33 302.305 1916.31 302.312C1919.34 302.223 1922.38 302.094 1925.41 302.031C1929.66 301.943 1933.9 301.893 1938.16 301.906ZM1720.22 302.719C1732.01 302.831 1743.78 303.211 1755.53 304.219C1762.85 304.846 1770.13 305.707 1777.44 306.438C1772.81 306.509 1768.16 306.577 1763.53 306.625C1747.04 306.794 1730.56 306.772 1714.09 305.812C1707.5 305.428 1700.9 304.641 1694.34 303.906C1692.25 303.671 1690.16 303.343 1688.06 303.094C1688.91 303.069 1689.75 302.991 1690.59 302.969C1700.46 302.704 1710.35 302.625 1720.22 302.719Z" fill="#ffffff" stroke="none"/>
</g>
<g opacity="1">
<path d="M1341.47 322.25C1339.49 322.427 1337.52 322.751 1335.59 323.031C1328.7 324.038 1321.91 325.67 1315.22 327.594C1304.27 330.742 1293.42 334.669 1282.34 337.531C1280.31 336.86 1278.27 336.181 1276.25 335.5C1270.61 333.601 1264.97 331.786 1259.22 330.25C1254.56 329.006 1249.86 327.824 1245.03 327.5C1237.82 327.016 1230.73 328.458 1224.16 331.406C1221.83 332.45 1218.14 333.702 1218.75 336.969C1219.37 340.321 1223.66 341.506 1226.44 342.25C1232.85 343.968 1239.5 344.696 1246.03 345.844C1257.6 347.877 1269.37 347.143 1280.84 344.906C1284.88 344.12 1288.86 343.15 1292.84 342.125C1296.66 342.962 1300.5 343.592 1304.41 343.875C1314.7 344.62 1324.87 343.048 1334.84 340.656C1327.49 342.14 1320.06 343.217 1312.53 343.219C1306.9 343.22 1301.31 342.579 1295.81 341.375C1309.35 337.766 1322.75 333.497 1336.72 331.875C1338.89 331.623 1341.07 331.432 1343.25 331.312C1344.43 331.248 1345.63 331.147 1346.81 331.25C1351.18 331.631 1355.44 333.795 1358.84 336.469C1360.45 337.734 1362.02 339.222 1363.06 341C1363.36 341.507 1363.7 342.109 1363.69 342.719C1363.66 343.797 1362.75 344.818 1362 345.5C1356.55 350.474 1348.19 349.51 1341.5 348.688C1339.79 348.477 1338.08 348.234 1336.38 348C1332.27 347.438 1328.15 346.891 1324 346.75C1321.29 346.658 1318.58 346.809 1315.88 346.906C1311.9 347.048 1307.91 347.199 1303.94 347.344C1279.86 348.221 1255.72 348.898 1231.66 347.312C1225.33 346.896 1219 346.31 1212.72 345.5C1208.66 344.977 1204.63 344.278 1200.56 343.781C1196.54 343.289 1192.49 343.034 1188.44 342.938C1170.22 342.502 1152.03 345.937 1133.81 343.906C1128.16 343.276 1122.65 341.742 1117.22 340.125C1104.3 336.281 1091.46 331.157 1077.94 329.906C1071.24 329.287 1064.6 330.196 1058 331.281C1056.57 331.516 1055.14 331.768 1053.72 332.062C1048.33 333.181 1040.98 334.759 1040.19 341.406C1040 343.012 1040.13 344.676 1040.5 346.25C1042.24 353.697 1049.47 357.645 1055.84 360.625C1065.15 364.976 1075 368.257 1084.81 371.25C1093.32 373.846 1101.89 376.312 1110.72 377.531C1130 380.194 1149.48 379.253 1168.81 377.75C1175.23 377.251 1181.67 376.729 1188.09 376.219C1195.45 375.634 1202.78 375.168 1210.16 375.469C1214.49 375.645 1218.81 376.032 1223.12 376.438C1231.46 377.221 1239.78 378.26 1248.06 379.5C1254.33 380.438 1260.59 381.629 1266.88 382.438C1296.68 386.272 1326.53 389.848 1356.38 393.313C1335.72 389.08 1315.08 384.688 1294.41 380.531C1287.42 379.126 1280.41 377.731 1273.41 376.406C1270.38 375.835 1267.38 375.211 1264.34 374.719C1258.15 373.714 1251.93 372.995 1245.72 372.094C1235.38 370.592 1225.01 369.055 1214.62 367.906C1210.11 367.407 1205.6 366.922 1201.06 366.688C1198.02 366.531 1194.98 366.537 1191.94 366.5C1188.04 366.453 1184.14 366.342 1180.25 366.25C1169.1 365.987 1157.95 365.6 1146.81 364.906C1132.96 364.044 1119.09 362.72 1105.44 360.156C1102.44 359.593 1099.47 358.684 1096.53 357.875C1091.46 356.478 1086.44 354.933 1081.44 353.312C1076.58 351.739 1071.75 350.017 1066.97 348.188C1070.58 347.686 1074.26 347.249 1077.88 347.438C1085.03 347.81 1092.03 349.724 1098.84 351.812C1105.54 353.866 1112.15 356.16 1118.84 358.219C1124.9 360.08 1131.09 361.684 1137.41 362.312C1145.57 363.124 1153.78 363.139 1161.97 362.75C1172.32 362.258 1182.65 361.247 1193.03 361.531C1196.28 361.62 1199.55 361.846 1202.78 362.219C1205.3 362.51 1207.78 362.905 1210.31 363.156C1216.7 363.791 1223.11 364.161 1229.53 364.312C1252.09 364.843 1274.69 363.272 1297.16 361.438C1303.16 360.947 1309.16 360.462 1315.16 359.969C1318.83 359.666 1322.53 359.22 1326.22 359.188C1334.13 359.119 1341.96 360.663 1349.88 360.688C1352.85 360.697 1355.86 360.482 1358.75 359.719C1363.44 358.481 1368.51 355.351 1370.47 350.719C1372.57 345.761 1371.31 340.22 1368.5 335.812C1364.11 328.923 1355.46 323.487 1347.38 322.312C1345.43 322.03 1343.45 322.073 1341.47 322.25ZM1241.81 330.781C1243.91 330.657 1246 330.685 1248.09 330.875C1251.88 331.219 1255.64 332.081 1259.34 332.938C1265.97 334.472 1272.46 336.433 1278.97 338.375C1270.53 340.366 1261.95 341.641 1253.12 341.312C1249.45 341.176 1245.86 340.61 1242.22 340.156C1238.37 339.676 1234.52 339.333 1230.69 338.719C1228.34 338.342 1226.02 337.892 1223.75 337.188C1223.43 337.089 1223.12 336.938 1222.81 336.812C1223.39 336.435 1224 336.107 1224.5 335.844C1224.91 335.626 1225.33 335.426 1225.75 335.219C1228.88 333.67 1232.15 332.426 1235.56 331.656C1237.62 331.193 1239.72 330.905 1241.81 330.781Z" fill="#ffffff" stroke="none"/>
</g>
<g opacity="1">
<path d="M1525.78 169.688C1524.55 169.653 1521.97 169.5 1521.34 170.844C1520.78 172.062 1523.46 173.008 1524.22 173.312C1524.54 173.441 1524.84 173.562 1525.16 173.688C1525.48 173.813 1525.8 173.942 1526.12 174.062C1529.29 175.233 1532.52 176.234 1535.75 177.187C1536.32 177.355 1536.9 177.49 1537.47 177.656C1535.74 177.941 1534.12 178.501 1532.84 179.656C1531.84 180.562 1531.1 181.98 1531.31 183.375C1531.01 183.344 1530.71 183.313 1530.41 183.281C1520.32 182.224 1510.24 181.003 1500.12 180.156C1492.14 179.487 1484.12 179.35 1476.12 178.844C1465.15 178.149 1454.22 176.897 1443.22 176.688C1435.04 176.531 1426.83 177.114 1418.66 177.438C1418.13 177.239 1417.44 177.701 1417.16 178.469C1416.87 179.237 1417.07 180.02 1417.59 180.219C1423.73 180.469 1429.9 180.624 1436.03 180.969C1440.93 181.244 1445.83 181.702 1450.72 182.125C1454.53 182.454 1458.35 182.662 1462.16 183.062C1473.16 184.221 1484.01 186.449 1494.94 188.188C1498.67 188.781 1502.44 189.244 1506.19 189.719C1515.39 190.884 1524.64 191.752 1533.88 192.656C1552.09 194.439 1570.39 195.774 1588.69 196.062C1601.64 196.267 1614.55 196.128 1627.47 195.094C1629.33 194.945 1631.21 194.776 1633.06 194.531C1636.29 194.104 1639.32 193.439 1640.97 190.187C1641.32 189.488 1641.56 188.757 1641.56 187.969C1641.59 184.8 1637.47 183.678 1635.03 183.062C1634.57 182.945 1634 182.819 1633.53 182.719C1633 182.604 1632.47 182.474 1631.94 182.375C1631.11 182.221 1630.27 182.092 1629.44 181.969C1628.09 181.77 1627.38 181.662 1626.03 181.5C1624.95 181.371 1623.74 181.261 1622.66 181.156C1621.12 181.007 1619.57 180.858 1618.03 180.75C1610.66 180.234 1603.3 180.648 1595.94 181.25C1595.16 181.314 1594.37 181.4 1593.59 181.469C1592.27 181.206 1590.96 180.888 1589.62 180.656C1579.78 178.944 1569.74 178.898 1559.78 178.531C1557.16 178.435 1554.57 178.141 1551.97 177.906C1550.79 177.839 1549.62 177.638 1548.44 177.594C1548.26 177.587 1548.08 177.57 1547.91 177.562C1547.61 177.525 1547.3 177.54 1547 177.5C1545.13 177.253 1543.3 177.038 1541.47 176.594C1536.67 175.429 1531.86 174.108 1527.19 172.5C1526.15 172.143 1525.13 171.796 1524.12 171.344C1524.03 171.3 1523.94 171.233 1523.84 171.188C1524.04 171.177 1524.24 171.162 1524.44 171.156C1525.62 171.122 1526.81 171.136 1528 171.188C1529.24 171.241 1530.46 171.382 1531.69 171.5C1533.82 171.705 1535.97 171.953 1538.09 172.25C1541.63 172.744 1545.13 173.337 1548.66 173.906C1555.04 174.939 1561.46 175.849 1567.87 176.656C1578.33 177.972 1588.8 178.895 1599.34 178.875C1584.22 178.612 1569.23 176.378 1554.34 173.844C1549.47 173.013 1544.63 172.058 1539.75 171.25C1535.13 170.485 1530.47 169.82 1525.78 169.688ZM1544.28 182.406C1546.37 182.452 1548.48 182.408 1550.56 182.469C1554.16 182.574 1557.74 182.887 1561.31 183.312C1562.3 183.43 1563.27 183.616 1564.25 183.75C1562.4 183.828 1560.54 184.051 1558.69 184.062C1553.12 184.098 1547.75 183.742 1542.31 182.5C1542.23 182.48 1542.12 182.457 1542.03 182.438C1542.79 182.439 1543.53 182.39 1544.28 182.406ZM1608.88 186.938C1609.02 186.939 1609.17 186.936 1609.31 186.938C1614.23 186.999 1619.19 187.524 1624.06 188.281C1620.16 188.426 1616.24 188.56 1612.34 188.594C1611.2 188.604 1610.05 188.506 1608.91 188.5C1608.94 188.411 1609.01 188.336 1609.03 188.25C1609.17 187.769 1609.09 187.338 1608.88 186.938Z" fill="#ffffff" stroke="none"/>
</g>
<g opacity="1">
<path d="M763.062 232.875C761.886 233.049 760.836 233.517 760.281 234.656C759.272 236.73 761.963 238.214 763.406 239.031C763.764 239.234 764.292 239.537 764.656 239.719C765.115 239.947 765.568 240.157 766.031 240.375C766.536 240.612 767.052 240.87 767.562 241.094C768.104 241.331 768.642 241.554 769.188 241.781C769.756 242.018 770.334 242.241 770.906 242.469C781.487 246.676 792.496 250.099 803.656 252.375C826.514 257.036 849.883 257.1 873.094 256.062C880.767 255.72 888.455 255.256 896.125 254.844C901.348 254.563 906.549 254.229 911.781 254.25C920.072 254.284 928.481 254.536 936.688 255.781C937.611 255.921 938.512 256.223 939.438 256.406C939.051 256.495 938.669 256.6 938.281 256.688C931.755 258.157 925.11 258.768 918.438 259.062C909.374 259.462 900.313 259.004 891.25 258.812C880.097 258.576 868.931 258.525 857.781 258.125C841.423 257.538 825.056 256.527 808.844 254.188C785.704 250.849 762.825 245.731 739.562 243.25C724.505 241.644 709.417 241.458 694.312 242.531C690.638 242.792 686.972 243.137 683.312 243.562C680.254 243.918 677.199 244.34 674.156 244.812C671.54 245.218 668.96 245.759 666.344 246.156C661.609 246.875 656.409 247.403 652.281 250.062C648.432 252.542 645.236 257.38 647.688 261.875C649.3 264.832 652.641 266.664 655.531 268.125C661.064 270.921 667.035 272.76 673 274.375C697.038 280.883 722.152 283.071 746.969 283.844C774.14 284.69 801.359 284.607 828.531 283.875C851.447 283.257 874.4 282.343 897.219 280.062C905.619 279.223 914.01 278.043 922.375 276.906C928.302 276.101 934.231 275.193 940.156 274.375C944.65 273.755 949.136 273.255 953.625 272.594C956.237 272.209 958.862 271.763 961.469 271.344C968.704 270.179 975.976 269.212 983.219 268.094C988.698 267.248 994.165 266.417 999.688 265.906C1004.36 265.475 1009.03 265.262 1013.72 265.094C1020.1 264.865 1026.51 264.634 1032.88 265.281C1037.06 265.707 1041.2 266.856 1045.25 267.969C1046.11 268.533 1047.46 267.966 1048.28 266.719C1049.1 265.472 1049.08 264.002 1048.22 263.438C1044.14 261.956 1039.99 260.46 1035.72 259.688C1029.32 258.531 1022.8 258.303 1016.31 258.094C1012.87 257.982 1009.44 257.867 1006 257.938C999.043 258.079 992.057 258.692 985.156 259.562C977.863 260.482 970.633 261.928 963.344 262.875C959.199 263.413 955.041 263.789 950.875 264.125C943.137 264.749 935.385 265.086 927.625 265.344C929.397 265.088 931.177 264.846 932.938 264.5C936.873 263.725 940.775 262.713 944.625 261.594C946.965 260.914 949.573 260.261 951.219 258.312C952.745 256.506 952.815 254.324 951 252.688C949.626 251.449 947.721 250.861 945.969 250.406C942.134 249.412 938.127 249.012 934.188 248.719C929.439 248.365 924.667 248.246 919.906 248.219C916.57 248.2 913.239 248.223 909.906 248.375C905.481 248.577 901.042 248.983 896.625 249.312C889.336 249.856 882.076 250.412 874.781 250.875C852.167 252.311 829.369 252.691 806.969 248.75C796.647 246.934 786.586 244.111 776.688 240.688C773.175 239.472 769.604 238.212 766.281 236.531C765.835 236.305 765.375 236.054 764.906 235.781C765.042 235.788 765.177 235.776 765.312 235.781C766.98 235.842 768.676 235.884 770.344 235.938C775.873 236.114 781.375 236.249 786.906 236.375C810.714 236.915 834.23 240.974 857.75 244.344C881.704 247.776 906.218 248.927 930.156 244.781C910.676 247.827 890.871 247.318 871.344 244.938C861.396 243.725 851.509 241.95 841.625 240.312C828.475 238.134 815.31 236.04 802.031 234.812C791.334 233.824 780.569 233.579 769.844 233.031C768.744 232.975 767.662 232.936 766.562 232.875C765.544 232.818 764.239 232.701 763.062 232.875ZM715.813 252.75C720.128 252.837 724.418 253.071 728.719 253.406C746.107 254.762 763.262 258.001 780.438 260.906C788.174 262.215 795.924 263.518 803.719 264.438C827.956 267.296 852.412 267.311 876.781 267.062C879.198 267.038 881.615 267.046 884.031 267.031C873.746 267.546 863.476 268.119 853.188 268.562C829.457 269.585 805.69 270.086 781.938 270.156C752.881 270.242 723.597 270.321 694.875 265.375C689.46 264.443 684.074 263.329 678.75 261.969C674.033 260.764 669.346 259.368 664.906 257.344C668.962 256.636 672.984 255.812 677.062 255.219C689.867 253.355 702.865 252.488 715.813 252.75Z" fill="#ffffff" stroke="none"/>
</g>
</g>
<g opacity="1">
<path d="M1143.98 1008.69C1148.66 1002.42 1155.39 1001.64 1161.91 997.982C1173.85 991.283 1169.34 983.051 1169.91 969.46C1170.07 965.551 1169.39 958.914 1168.61 954.756C1167.9 950.902 1165.02 949.209 1157.26 949.209C1147.33 949.209 1146.09 955.905 1146.09 959.112C1146.09 964.399 1147.41 974.062 1146.09 979.214C1145.83 980.232 1139.68 980.987 1139.04 980.076C1137.8 978.314 1138.06 974.864 1137.83 972.871C1137.29 968.294 1137.28 963.771 1136.88 959.176C1135.12 939.151 1138.06 918.587 1135.68 898.634C1133.71 882.153 1134.19 865.725 1116.56 868.913C1098.55 872.169 1101.16 895.816 1101.16 908.947C1101.16 915.507 1102.34 921.93 1102.65 928.471C1103.42 944.672 1104.57 960.851 1105.75 977.007C1106.61 988.811 1107.17 1000.84 1107.65 1012.67C1107.86 1017.92 1109.64 1044.17 1109.64 1049.43C1109.64 1054.64 1140.12 1054.07 1143.53 1051.75C1145.91 1050.13 1142.39 1010.82 1143.98 1008.69Z" fill="none" opacity="1" stroke="#ffdff5" stroke-linecap="butt" stroke-linejoin="round" stroke-width="3"/>
<path d="M961.334 1042.07C964.367 1038.32 958.148 1032.94 957.935 1028.4C957.67 1022.74 957.927 1017.01 957.927 1011.34C957.927 1011.11 958.262 1007.6 957.814 1007.4C944.321 1001.46 928.149 1008.9 922.352 988.578C921.428 985.335 921.724 981.839 921.724 978.508C921.724 974.808 921.149 970.703 923.228 967.416C927.101 961.293 940.285 951.491 944.793 961.885C946.818 966.555 948.067 971.748 948.321 976.831C948.439 979.187 947.435 983.215 948.43 985.401C949.57 987.908 954.894 987.419 956.375 985.999C962.945 979.699 961.715 967.544 961.715 959.423C961.715 941.936 958.846 924.475 964.567 907.421C967.886 897.529 978.551 886.706 990.202 890.152C998.057 892.475 997.337 907.335 997.337 913.476C997.337 922.975 993.757 929.926 991.394 938.938C988.926 948.353 987.896 956.822 987.896 966.48C987.896 970.375 986.306 977.85 988.425 981.261C992.182 987.307 1001.61 982.348 1003.34 977.434C1007.02 966.997 997.809 958.974 1004.84 948.73C1006.23 946.711 1007.78 945.332 1010.29 945.123C1028.65 943.601 1028.16 963.409 1028.16 976.77C1028.16 980.83 1029 985.833 1028 989.778C1024.1 1005.02 997.768 1000.09 987.298 1007.01C973.861 1015.89 983.653 1025.09 983.653 1037.14C983.653 1038.56 984.175 1041.32 983.401 1042.62C980.957 1046.75 966.961 1050.69 962.162 1049.05C958.272 1047.72 960.537 1043.06 961.334 1042.07Z" fill="none" opacity="1" stroke="#ffdff5" stroke-linecap="butt" stroke-linejoin="round" stroke-width="3"/>
<path d="M838.391 1030.55C838.35 1028.31 825.851 1030.18 824.252 1027.44C821.042 1021.94 821.402 1009.36 822.448 1003.22C822.936 1000.36 825.536 992.985 823.905 990.411C823.478 989.739 818.125 990.333 817.503 990.333C812.877 990.333 808.341 989.402 804.408 986.701C801.081 984.416 799.311 977.355 797.927 973.589C794.028 962.97 790.704 937.422 800.35 928.955C802.453 927.11 809.951 926.115 811.768 928.357C812.959 929.826 813.675 932.061 814.425 933.775C818.622 943.371 814.537 954.144 816.332 964.191C816.855 967.12 821.897 974.496 824.711 969.562C829.271 961.567 828.469 952.643 828.469 943.866C828.469 928.44 826.213 907.228 830.355 892.609C831.727 887.767 830.714 882.567 832.973 877.95C833.965 875.921 837.305 874.43 838.937 873.021C844.744 868.012 849.575 865.844 857.42 866.589C866.145 867.417 868.59 879.651 869.262 886.277C870.935 902.774 864.806 919.136 864.806 935.587C864.806 938.208 863.508 941.622 864.13 944.131C864.746 946.617 871.542 943.169 872.322 942.137C874.015 939.897 875.462 926.083 875.474 926.077C876.689 925.427 879.257 925.665 880.654 925.344C882.221 924.985 885.161 924.291 886.614 925.331C894.405 930.912 894.389 954.115 887.554 960.186C881.569 965.503 871.061 960.601 864.997 964.33C860.926 966.833 860.02 973.427 858.473 977.451C855.84 984.301 857.055 991.151 856.241 998.387C855.37 1006.14 854.451 1013.93 853.233 1021.61C852.275 1027.65 849.133 1029.25 844.377 1030.25C842.81 1030.57 841.709 1031.7 840.038 1031.7C839.423 1031.7 838.08 1032.31 838.192 1031.7C838.338 1030.91 838.4 1031.04 838.391 1030.55Z" fill="none" opacity="1" stroke="#ffdff5" stroke-linecap="butt" stroke-linejoin="round" stroke-width="3"/>
<path d="M101.788 802.511C103.875 799.713 106.879 799.365 109.786 797.734C115.113 794.746 113.1 791.073 113.353 785.01C113.426 783.267 113.121 780.306 112.776 778.451C112.456 776.732 111.174 775.976 107.713 775.976C103.283 775.976 102.728 778.963 102.728 780.394C102.728 782.753 103.319 787.063 102.728 789.362C102.611 789.816 99.8696 790.153 99.5831 789.746C99.0287 788.96 99.1478 787.421 99.0434 786.532C98.8035 784.49 98.7973 782.472 98.6178 780.422C97.8359 771.489 99.1474 762.315 98.0841 753.414C97.2059 746.062 97.4191 738.733 89.5534 740.156C81.5202 741.608 82.6833 752.157 82.6833 758.015C82.6833 760.941 83.2117 763.807 83.3498 766.725C83.6918 773.952 84.2038 781.17 84.7308 788.377C85.1159 793.643 85.3657 799.01 85.5787 804.287C85.6731 806.629 86.4693 818.34 86.4693 820.686C86.4693 823.01 100.067 822.754 101.585 821.719C102.646 820.996 101.08 803.46 101.788 802.511Z" fill="none" opacity="1" stroke="#ffdff5" stroke-linecap="butt" stroke-linejoin="round" stroke-width="3"/>
<path d="M512.49 808.156C513.843 806.481 511.069 804.081 510.974 802.056C510.855 799.529 510.97 796.976 510.97 794.445C510.97 794.341 511.119 792.775 510.919 792.687C504.9 790.036 497.685 793.357 495.1 784.291C494.687 782.844 494.819 781.284 494.819 779.799C494.819 778.148 494.563 776.317 495.49 774.85C497.218 772.119 503.099 767.746 505.111 772.383C506.014 774.467 506.571 776.783 506.685 779.051C506.737 780.101 506.289 781.898 506.733 782.873C507.242 783.992 509.617 783.774 510.277 783.14C513.208 780.33 512.66 774.907 512.66 771.285C512.66 763.484 511.38 755.694 513.932 748.086C515.412 743.673 520.17 738.845 525.368 740.382C528.872 741.419 528.551 748.048 528.551 750.787C528.551 755.025 526.954 758.126 525.9 762.146C524.799 766.346 524.339 770.124 524.339 774.433C524.339 776.171 523.63 779.505 524.575 781.027C526.251 783.724 530.456 781.512 531.229 779.319C532.871 774.663 528.762 771.084 531.9 766.514C532.519 765.614 533.21 764.998 534.331 764.905C542.519 764.226 542.3 773.063 542.3 779.023C542.3 780.835 542.678 783.066 542.228 784.826C540.49 791.624 528.743 789.427 524.072 792.513C518.078 796.473 522.446 800.58 522.446 805.956C522.446 806.589 522.679 807.818 522.334 808.4C521.244 810.241 515 811.999 512.859 811.268C511.124 810.675 512.134 808.596 512.49 808.156Z" fill="none" opacity="1" stroke="#ffdff5" stroke-linecap="butt" stroke-linejoin="round" stroke-width="3"/>
<path d="M457.644 803.017C457.626 802.014 452.05 802.852 451.336 801.628C449.904 799.174 450.065 793.56 450.532 790.823C450.749 789.547 451.909 786.257 451.181 785.109C450.991 784.809 448.603 785.074 448.325 785.074C446.262 785.074 444.238 784.659 442.484 783.454C440.999 782.434 440.21 779.284 439.593 777.604C437.853 772.867 436.37 761.47 440.674 757.693C441.612 756.869 444.956 756.426 445.767 757.426C446.298 758.081 446.618 759.078 446.952 759.843C448.824 764.124 447.002 768.93 447.803 773.412C448.037 774.718 450.286 778.009 451.541 775.808C453.575 772.241 453.218 768.26 453.218 764.345C453.218 757.463 452.211 748 454.059 741.479C454.671 739.318 454.219 736.999 455.227 734.939C455.669 734.034 457.159 733.368 457.887 732.74C460.478 730.505 462.633 729.538 466.133 729.871C470.025 730.24 471.116 735.698 471.416 738.653C472.162 746.013 469.428 753.312 469.428 760.651C469.428 761.82 468.849 763.344 469.126 764.463C469.401 765.572 472.433 764.034 472.781 763.573C473.536 762.574 474.181 756.412 474.187 756.409C474.729 756.119 475.875 756.225 476.497 756.082C477.197 755.921 478.508 755.612 479.156 756.076C482.632 758.566 482.625 768.917 479.576 771.625C476.906 773.997 472.218 771.81 469.513 773.474C467.697 774.59 467.293 777.532 466.603 779.327C465.428 782.383 465.97 785.439 465.607 788.667C465.218 792.124 464.808 795.6 464.265 799.028C463.838 801.722 462.436 802.436 460.314 802.88C459.615 803.026 459.124 803.529 458.379 803.529C458.104 803.529 457.505 803.799 457.555 803.529C457.62 803.176 457.648 803.232 457.644 803.017Z" fill="none" opacity="1" stroke="#ffdff5" stroke-linecap="butt" stroke-linejoin="round" stroke-width="3"/>
<path d="M165.292 772.013C165.274 771.01 159.697 771.848 158.984 770.624C157.552 768.17 157.712 762.556 158.179 759.819C158.397 758.543 159.557 755.253 158.829 754.105C158.639 753.805 156.251 754.07 155.973 754.07C153.91 754.07 151.886 753.655 150.131 752.449C148.647 751.43 147.858 748.28 147.24 746.6C145.501 741.863 144.018 730.466 148.321 726.689C149.259 725.865 152.604 725.422 153.415 726.422C153.946 727.077 154.266 728.074 154.6 728.839C156.472 733.12 154.65 737.926 155.451 742.408C155.684 743.714 157.933 747.005 159.189 744.804C161.223 741.237 160.865 737.256 160.865 733.341C160.865 726.459 159.859 716.996 161.707 710.474C162.319 708.314 161.867 705.995 162.874 703.935C163.317 703.03 164.807 702.364 165.535 701.736C168.126 699.501 170.281 698.534 173.781 698.866C177.673 699.236 178.764 704.693 179.063 707.649C179.81 715.009 177.076 722.308 177.076 729.647C177.076 730.816 176.497 732.339 176.774 733.459C177.049 734.568 180.081 733.03 180.429 732.569C181.184 731.57 181.829 725.407 181.834 725.405C182.377 725.115 183.522 725.221 184.145 725.078C184.844 724.917 186.156 724.608 186.804 725.072C190.28 727.562 190.273 737.913 187.224 740.621C184.554 742.993 179.866 740.806 177.161 742.47C175.345 743.586 174.94 746.528 174.25 748.323C173.076 751.379 173.618 754.435 173.255 757.663C172.866 761.12 172.456 764.596 171.913 768.024C171.486 770.717 170.084 771.432 167.962 771.876C167.263 772.022 166.772 772.525 166.026 772.525C165.752 772.525 165.153 772.795 165.203 772.525C165.268 772.172 165.296 772.228 165.292 772.013Z" fill="none" opacity="1" stroke="#ffdff5" stroke-linecap="butt" stroke-linejoin="round" stroke-width="3"/>
<path d="M1326.09 1024.88C1326.09 1010.21 1324.06 962.552 1325.32 955.151C1326.29 949.523 1339.44 949.174 1342.68 944.671C1346.15 939.847 1344.75 914.611 1344.83 906.965C1344.96 893.526 1347.04 880.741 1341.91 868.15C1340.19 863.911 1326.18 863.911 1323.09 870.368C1319.27 878.361 1319.83 892.263 1321.53 901.239C1322.76 907.701 1321.07 916.083 1319.64 922.64C1319.41 923.691 1316.35 924.001 1315.6 923.566C1308.73 919.54 1313.69 882.506 1314.36 876.532C1315.43 866.861 1313.44 857.745 1312.58 848.24C1310.72 827.562 1310.05 809.364 1284.95 813.821C1281.76 814.386 1280.41 824.03 1280.27 826.178C1279.53 837.01 1280.37 848 1282.11 858.672C1286.68 886.736 1289.49 919.661 1293.1 947.94C1294.36 957.79 1295.06 1036.83 1301.7 1050.51C1303.98 1055.2 1320.68 1053.59 1324.31 1050.51C1326.5 1048.64 1326.09 1032.63 1326.09 1024.88Z" fill="none" opacity="1" stroke="#ffdff5" stroke-linecap="butt" stroke-linejoin="round" stroke-width="3"/>
<path d="M1587.3 1065.39C1587.3 1056.44 1587.3 1047.5 1587.3 1038.56C1587.3 1038.04 1588.12 1029.69 1587.17 1029.01C1586.33 1028.4 1572.29 1025.77 1567.01 1024.56C1561.78 1023.37 1555.72 1018.23 1551.67 1014.73C1546.33 1010.1 1541.28 968.668 1540.47 954.997C1540.29 951.87 1540.14 938.212 1541.96 936.002C1549.15 927.265 1556.62 932.953 1560.93 939.805C1565.06 946.357 1563.32 977.335 1564.87 983.329C1566 987.724 1568.53 995.221 1573.8 995.221C1574.38 995.221 1577.89 995.622 1578.19 995.12C1582.69 987.39 1577.47 971.872 1576.27 963.818C1573.32 943.994 1571.28 923.648 1571.28 903.607C1571.28 893.688 1570.2 884.384 1578.55 882.113C1586.9 879.843 1592.97 883.053 1594.82 886.401C1601.76 899.006 1596.67 943.056 1601.06 946.126C1611.32 953.306 1603.63 929.4 1607.94 920.333C1611.1 913.677 1620 918.136 1621.65 920.402C1624.07 923.74 1624.71 934.265 1624.71 938.184C1624.71 941.811 1625.5 950.113 1622.81 955.858C1619.69 962.526 1611.08 963.845 1605.67 968.168C1604.14 969.386 1604.02 993.263 1608.59 997.923C1609.23 998.567 1630.9 995.22 1631.9 987.619C1633.41 976.138 1631.36 940.398 1632.57 928.488C1633.06 923.643 1649.98 917.196 1651.66 926.926C1654.35 942.544 1657.59 989.748 1649.5 1004.7C1645.91 1011.34 1638.11 1015.35 1631.07 1018.09C1627.27 1019.57 1619.51 1020 1616.83 1022.92C1605.01 1035.76 1609.75 1056.26 1609.75 1072.2C1609.75 1081.25 1594.92 1082.29 1589.4 1078.55C1586.72 1076.74 1587.3 1069.02 1587.3 1065.39Z" fill="none" opacity="1" stroke="#ffdff5" stroke-linecap="butt" stroke-linejoin="round" stroke-width="3"/>
<path d="M2010.88 1048.35C2015.56 1042.08 2022.29 1041.29 2028.81 1037.64C2040.75 1030.94 2036.24 1022.71 2036.81 1009.12C2036.97 1005.21 2036.29 998.571 2035.51 994.413C2034.8 990.559 2031.92 988.865 2024.16 988.865C2014.23 988.865 2012.99 995.561 2012.99 998.769C2012.99 1004.06 2014.31 1013.72 2012.99 1018.87C2012.73 1019.89 2006.58 1020.64 2005.94 1019.73C2004.7 1017.97 2004.96 1014.52 2004.73 1012.53C2004.19 1007.95 2004.18 1003.43 2003.78 998.832C2002.02 978.808 2004.96 958.244 2002.58 938.29C2000.61 921.81 2001.09 905.382 1983.46 908.57C1965.45 911.826 1968.06 935.472 1968.06 948.603C1968.06 955.164 1969.24 961.586 1969.55 968.127C1970.32 984.329 1971.47 1000.51 1972.65 1016.66C1973.51 1028.47 1974.07 1040.5 1974.55 1052.33C1974.76 1057.58 1976.54 1083.83 1976.54 1089.09C1976.54 1094.3 2007.02 1093.72 2010.43 1091.4C2012.81 1089.78 2009.3 1050.47 2010.88 1048.35Z" fill="none" opacity="1" stroke="#ffdff5" stroke-linecap="butt" stroke-linejoin="round" stroke-width="3"/>
<path d="M1824.36 1060.75C1827.39 1056.99 1821.17 1051.61 1820.96 1047.07C1820.69 1041.41 1820.95 1035.69 1820.95 1030.01C1820.95 1029.78 1821.29 1026.27 1820.84 1026.07C1807.34 1020.13 1791.17 1027.57 1785.38 1007.25C1784.45 1004.01 1784.75 1000.51 1784.75 997.181C1784.75 993.48 1784.17 989.375 1786.25 986.088C1790.12 979.965 1803.31 970.164 1807.82 980.558C1809.84 985.228 1811.09 990.42 1811.34 995.503C1811.46 997.859 1810.46 1001.89 1811.45 1004.07C1812.59 1006.58 1817.92 1006.09 1819.4 1004.67C1825.97 998.371 1824.74 986.216 1824.74 978.095C1824.74 960.609 1821.87 943.147 1827.59 926.093C1830.91 916.201 1841.57 905.378 1853.23 908.824C1861.08 911.147 1860.36 926.007 1860.36 932.149C1860.36 941.648 1856.78 948.599 1854.42 957.61C1851.95 967.025 1850.92 975.494 1850.92 985.152C1850.92 989.048 1849.33 996.523 1851.45 999.933C1855.21 1005.98 1864.63 1001.02 1866.36 996.106C1870.04 985.669 1860.83 977.646 1867.87 967.402C1869.25 965.383 1870.8 964.004 1873.32 963.796C1891.67 962.273 1891.18 982.082 1891.18 995.443C1891.18 999.503 1892.03 1004.51 1891.02 1008.45C1887.12 1023.69 1860.79 1018.76 1850.32 1025.68C1836.88 1034.56 1846.68 1043.76 1846.68 1055.82C1846.68 1057.23 1847.2 1059.99 1846.42 1061.29C1843.98 1065.42 1829.98 1069.36 1825.18 1067.72C1821.3 1066.39 1823.56 1061.73 1824.36 1060.75Z" fill="none" opacity="1" stroke="#ffdff5" stroke-linecap="butt" stroke-linejoin="round" stroke-width="3"/>
<path d="M1701.41 1049.23C1701.37 1046.98 1688.87 1048.86 1687.27 1046.11C1684.07 1040.61 1684.43 1028.03 1685.47 1021.89C1685.96 1019.03 1688.56 1011.66 1686.93 1009.08C1686.5 1008.41 1681.15 1009.01 1680.53 1009.01C1675.9 1009.01 1671.36 1008.07 1667.43 1005.37C1664.1 1003.09 1662.33 996.027 1660.95 992.261C1657.05 981.642 1653.73 956.094 1663.37 947.627C1665.48 945.782 1672.97 944.788 1674.79 947.029C1675.98 948.498 1676.7 950.734 1677.45 952.448C1681.65 962.044 1677.56 972.816 1679.36 982.864C1679.88 985.792 1684.92 993.168 1687.73 988.234C1692.29 980.24 1691.49 971.315 1691.49 962.539C1691.49 947.112 1689.24 925.9 1693.38 911.282C1694.75 906.439 1693.74 901.24 1696 896.622C1696.99 894.594 1700.33 893.102 1701.96 891.694C1707.77 886.684 1712.6 884.516 1720.44 885.261C1729.17 886.09 1731.61 898.323 1732.29 904.949C1733.96 921.447 1727.83 937.808 1727.83 954.259C1727.83 956.88 1726.53 960.294 1727.15 962.803C1727.77 965.289 1734.57 961.841 1735.35 960.809C1737.04 958.569 1738.49 944.756 1738.5 944.749C1739.71 944.099 1742.28 944.337 1743.68 944.017C1745.24 943.657 1748.18 942.963 1749.64 944.004C1757.43 949.584 1757.41 972.787 1750.58 978.858C1744.59 984.175 1734.08 979.273 1728.02 983.002C1723.95 985.506 1723.04 992.099 1721.5 996.123C1718.86 1002.97 1720.08 1009.82 1719.26 1017.06C1718.39 1024.81 1717.47 1032.6 1716.26 1040.28C1715.3 1046.32 1712.16 1047.93 1707.4 1048.92C1705.83 1049.25 1704.73 1050.38 1703.06 1050.38C1702.45 1050.38 1701.1 1050.98 1701.22 1050.38C1701.36 1049.58 1701.42 1049.71 1701.41 1049.23Z" fill="none" opacity="1" stroke="#ffdff5" stroke-linecap="butt" stroke-linejoin="round" stroke-width="3"/>
<path d="M2294.53 919.431C2294.53 913.359 2294.53 907.288 2294.53 901.217C2294.53 900.865 2295.08 895.198 2294.44 894.733C2293.87 894.32 2284.34 892.533 2280.76 891.717C2277.2 890.908 2273.09 887.42 2270.34 885.039C2266.72 881.898 2263.29 853.771 2262.74 844.49C2262.61 842.367 2262.51 833.095 2263.75 831.595C2268.63 825.664 2273.7 829.525 2276.63 834.177C2279.43 838.624 2278.25 859.654 2279.3 863.724C2280.07 866.708 2281.78 871.797 2285.37 871.797C2285.76 871.797 2288.14 872.069 2288.34 871.728C2291.4 866.48 2287.85 855.946 2287.04 850.479C2285.04 837.02 2283.65 823.208 2283.65 809.603C2283.65 802.869 2282.92 796.553 2288.59 795.012C2294.26 793.47 2298.38 795.649 2299.63 797.922C2304.34 806.48 2300.89 836.384 2303.87 838.468C2310.83 843.342 2305.62 827.113 2308.54 820.957C2310.68 816.439 2316.73 819.466 2317.85 821.004C2319.49 823.27 2319.93 830.416 2319.93 833.076C2319.93 835.538 2320.46 841.175 2318.64 845.074C2316.52 849.601 2310.67 850.497 2307 853.431C2305.96 854.258 2305.88 870.467 2308.98 873.631C2309.41 874.068 2324.13 871.796 2324.81 866.636C2325.83 858.842 2324.44 834.579 2325.26 826.494C2325.6 823.205 2337.08 818.828 2338.22 825.433C2340.05 836.036 2342.25 868.082 2336.76 878.232C2334.32 882.741 2329.02 885.464 2324.25 887.323C2321.66 888.329 2316.4 888.619 2314.57 890.599C2306.55 899.314 2309.77 913.234 2309.77 924.053C2309.77 930.197 2299.7 930.907 2295.96 928.368C2294.14 927.136 2294.53 921.896 2294.53 919.431Z" fill="none" opacity="1" stroke="#ffdff5" stroke-linecap="butt" stroke-linejoin="round" stroke-width="3"/>
<path d="M2450.75 1031.2C2453.95 1027.23 2447.38 1021.54 2447.15 1016.74C2446.87 1010.75 2447.14 1004.7 2447.14 998.697C2447.14 998.452 2447.5 994.739 2447.02 994.531C2432.75 988.245 2415.65 996.12 2409.52 974.627C2408.54 971.198 2408.86 967.5 2408.86 963.979C2408.86 960.065 2408.25 955.724 2410.45 952.248C2414.54 945.773 2428.49 935.407 2433.25 946.399C2435.4 951.338 2436.72 956.829 2436.98 962.205C2437.11 964.696 2436.05 968.956 2437.1 971.267C2438.31 973.918 2443.94 973.401 2445.5 971.9C2452.45 965.237 2451.15 952.383 2451.15 943.796C2451.15 925.303 2448.12 906.837 2454.17 888.802C2457.67 878.342 2468.95 866.896 2481.27 870.54C2489.58 872.997 2488.82 888.711 2488.82 895.206C2488.82 905.252 2485.03 912.602 2482.54 922.132C2479.92 932.089 2478.84 941.045 2478.84 951.258C2478.84 955.378 2477.15 963.283 2479.4 966.889C2483.37 973.283 2493.34 968.039 2495.17 962.842C2499.06 951.805 2489.32 943.321 2496.76 932.487C2498.23 930.352 2499.87 928.894 2502.52 928.673C2521.93 927.063 2521.41 948.011 2521.41 962.141C2521.41 966.434 2522.31 971.724 2521.24 975.897C2517.12 992.012 2489.28 986.803 2478.2 994.118C2463.99 1003.51 2474.35 1013.24 2474.35 1025.99C2474.35 1027.49 2474.9 1030.4 2474.08 1031.78C2471.5 1036.14 2456.7 1040.31 2451.62 1038.58C2447.51 1037.17 2449.9 1032.24 2450.75 1031.2Z" fill="none" opacity="1" stroke="#ffdff5" stroke-linecap="butt" stroke-linejoin="round" stroke-width="3"/>
<path d="M2372 908.46C2371.97 906.933 2363.48 908.208 2362.4 906.347C2360.22 902.611 2360.46 894.069 2361.17 889.903C2361.51 887.962 2363.27 882.955 2362.16 881.208C2361.87 880.751 2358.24 881.155 2357.82 881.155C2354.68 881.155 2351.6 880.523 2348.93 878.689C2346.67 877.138 2345.47 872.344 2344.53 869.787C2341.88 862.578 2339.62 845.235 2346.17 839.487C2347.6 838.234 2352.69 837.559 2353.92 839.081C2354.73 840.078 2355.22 841.596 2355.73 842.759C2358.58 849.274 2355.8 856.587 2357.02 863.408C2357.38 865.396 2360.8 870.403 2362.71 867.054C2365.81 861.627 2365.26 855.568 2365.26 849.61C2365.26 839.137 2363.73 824.737 2366.54 814.813C2367.47 811.526 2366.79 807.996 2368.32 804.861C2368.99 803.484 2371.26 802.471 2372.37 801.515C2376.31 798.115 2379.59 796.643 2384.92 797.148C2390.84 797.711 2392.5 806.016 2392.95 810.514C2394.09 821.714 2389.93 832.821 2389.93 843.989C2389.93 845.769 2389.05 848.086 2389.47 849.789C2389.89 851.477 2394.5 849.136 2395.03 848.436C2396.18 846.915 2397.16 837.537 2397.17 837.533C2398 837.092 2399.74 837.253 2400.69 837.036C2401.75 836.792 2403.75 836.321 2404.73 837.027C2410.02 840.816 2410.01 856.567 2405.37 860.689C2401.31 864.298 2394.18 860.97 2390.06 863.502C2387.3 865.201 2386.68 869.678 2385.63 872.409C2383.84 877.06 2384.67 881.71 2384.12 886.622C2383.52 891.883 2382.9 897.173 2382.07 902.389C2381.42 906.488 2379.29 907.576 2376.06 908.251C2375 908.473 2374.25 909.239 2373.12 909.239C2372.7 909.239 2371.79 909.65 2371.86 909.239C2371.96 908.702 2372 908.788 2372 908.46Z" fill="none" opacity="1" stroke="#ffdff5" stroke-linecap="butt" stroke-linejoin="round" stroke-width="3"/>
<path d="M1520.21 881.427C1520.21 877.586 1520.21 873.745 1520.21 869.903C1520.21 869.681 1519.86 866.096 1520.27 865.801C1520.63 865.54 1526.66 864.409 1528.92 863.893C1531.17 863.381 1533.77 861.175 1535.51 859.668C1537.81 857.681 1539.98 839.886 1540.32 834.014C1540.4 832.671 1540.47 826.805 1539.68 825.856C1536.6 822.103 1533.39 824.546 1531.54 827.489C1529.76 830.303 1530.51 843.608 1529.85 846.183C1529.36 848.07 1528.27 851.29 1526.01 851.29C1525.76 851.29 1524.25 851.463 1524.13 851.247C1522.19 847.927 1524.43 841.262 1524.95 837.803C1526.22 829.288 1527.09 820.55 1527.09 811.942C1527.09 807.682 1527.56 803.686 1523.97 802.711C1520.38 801.735 1517.77 803.114 1516.98 804.552C1514 809.966 1516.19 828.885 1514.3 830.204C1509.89 833.288 1513.2 823.02 1511.35 819.126C1509.99 816.267 1506.17 818.182 1505.46 819.155C1504.42 820.589 1504.14 825.11 1504.14 826.793C1504.14 828.35 1503.8 831.917 1504.96 834.384C1506.3 837.248 1510 837.814 1512.32 839.671C1512.98 840.194 1513.03 850.449 1511.06 852.451C1510.79 852.727 1501.48 851.29 1501.05 848.025C1500.41 843.094 1501.29 827.744 1500.77 822.629C1500.56 820.548 1493.29 817.778 1492.57 821.958C1491.41 828.666 1490.02 848.94 1493.49 855.361C1495.04 858.214 1498.39 859.937 1501.41 861.113C1503.04 861.75 1506.38 861.933 1507.53 863.186C1512.6 868.7 1510.57 877.506 1510.57 884.351C1510.57 888.238 1516.94 888.687 1519.31 887.081C1520.46 886.301 1520.21 882.986 1520.21 881.427Z" fill="none" opacity="1" stroke="#ffdff5" stroke-linecap="butt" stroke-linejoin="round" stroke-width="3"/>
<path d="M1418.39 879.433C1417.09 877.821 1419.76 875.51 1419.85 873.56C1419.97 871.128 1419.86 868.67 1419.86 866.233C1419.86 866.133 1419.71 864.625 1419.91 864.54C1425.7 861.988 1432.65 865.186 1435.14 856.457C1435.53 855.064 1435.41 853.562 1435.41 852.132C1435.41 850.543 1435.65 848.779 1434.76 847.368C1433.1 844.738 1427.44 840.528 1425.5 844.992C1424.63 846.998 1424.09 849.228 1423.98 851.412C1423.93 852.423 1424.36 854.153 1423.94 855.092C1423.45 856.169 1421.16 855.959 1420.52 855.349C1417.7 852.643 1418.23 847.423 1418.23 843.935C1418.23 836.424 1419.46 828.925 1417.01 821.6C1415.58 817.351 1411 812.703 1406 814.183C1402.62 815.181 1402.93 821.563 1402.93 824.201C1402.93 828.281 1404.47 831.266 1405.48 835.136C1406.54 839.18 1406.99 842.818 1406.99 846.966C1406.99 848.639 1407.67 851.849 1406.76 853.314C1405.15 855.911 1401.1 853.781 1400.35 851.67C1398.77 847.188 1402.73 843.742 1399.71 839.342C1399.11 838.475 1398.45 837.883 1397.37 837.793C1389.48 837.139 1389.69 845.647 1389.69 851.385C1389.69 853.129 1389.33 855.278 1389.76 856.972C1391.44 863.517 1402.75 861.402 1407.24 864.373C1413.01 868.186 1408.81 872.139 1408.81 877.315C1408.81 877.925 1408.58 879.108 1408.92 879.669C1409.97 881.441 1415.98 883.134 1418.04 882.43C1419.71 881.859 1418.74 879.857 1418.39 879.433Z" fill="none" opacity="1" stroke="#ffdff5" stroke-linecap="butt" stroke-linejoin="round" stroke-width="3"/>
<path d="M1471.2 874.486C1471.22 873.52 1476.58 874.327 1477.27 873.149C1478.65 870.786 1478.5 865.381 1478.05 862.746C1477.84 861.518 1476.72 858.35 1477.42 857.244C1477.6 856.955 1479.9 857.211 1480.17 857.211C1482.16 857.211 1484.11 856.811 1485.79 855.651C1487.22 854.669 1487.98 851.637 1488.58 850.019C1490.25 845.458 1491.68 834.485 1487.54 830.849C1486.63 830.056 1483.41 829.629 1482.63 830.592C1482.12 831.223 1481.81 832.183 1481.49 832.919C1479.69 837.041 1481.44 841.667 1480.67 845.983C1480.45 847.241 1478.28 850.409 1477.07 848.289C1475.12 844.856 1475.46 841.023 1475.46 837.253C1475.46 830.628 1476.43 821.517 1474.65 815.238C1474.06 813.158 1474.5 810.925 1473.53 808.942C1473.1 808.071 1471.67 807.43 1470.96 806.825C1468.47 804.674 1466.4 803.743 1463.03 804.062C1459.28 804.418 1458.23 809.673 1457.94 812.518C1457.22 819.604 1459.85 826.632 1459.85 833.697C1459.85 834.823 1460.41 836.289 1460.14 837.367C1459.88 838.435 1456.96 836.954 1456.63 836.51C1455.9 835.548 1455.28 829.615 1455.27 829.613C1454.75 829.333 1453.65 829.436 1453.05 829.298C1452.37 829.144 1451.11 828.845 1450.49 829.292C1447.14 831.689 1447.15 841.655 1450.08 844.263C1452.65 846.546 1457.17 844.441 1459.77 846.042C1461.52 847.117 1461.91 849.949 1462.57 851.678C1463.7 854.62 1463.18 857.562 1463.53 860.67C1463.91 863.998 1464.3 867.345 1464.82 870.645C1465.24 873.238 1466.58 873.927 1468.63 874.353C1469.3 874.494 1469.77 874.979 1470.49 874.979C1470.76 874.979 1471.33 875.239 1471.28 874.979C1471.22 874.639 1471.19 874.693 1471.2 874.486Z" fill="none" opacity="1" stroke="#ffdff5" stroke-linecap="butt" stroke-linejoin="round" stroke-width="3"/>
<path d="M1070.01 806.209C1070.03 805.243 1075.4 806.05 1076.09 804.872C1077.46 802.509 1077.31 797.104 1076.86 794.469C1076.65 793.24 1075.53 790.072 1076.24 788.967C1076.42 788.678 1078.72 788.934 1078.99 788.934C1080.97 788.934 1082.92 788.534 1084.61 787.374C1086.04 786.392 1086.8 783.36 1087.39 781.742C1089.07 777.181 1090.49 766.208 1086.35 762.572C1085.45 761.779 1082.23 761.352 1081.45 762.315C1080.94 762.946 1080.63 763.906 1080.31 764.642C1078.5 768.764 1080.26 773.39 1079.49 777.706C1079.26 778.963 1077.1 782.132 1075.89 780.012C1073.93 776.579 1074.27 772.746 1074.27 768.976C1074.27 762.35 1075.24 753.24 1073.47 746.961C1072.88 744.881 1073.31 742.648 1072.34 740.665C1071.91 739.794 1070.48 739.153 1069.78 738.548C1067.28 736.397 1065.21 735.465 1061.84 735.785C1058.09 736.141 1057.04 741.395 1056.75 744.241C1056.04 751.327 1058.67 758.354 1058.67 765.42C1058.67 766.546 1059.23 768.012 1058.96 769.09C1058.69 770.157 1055.77 768.677 1055.44 768.233C1054.71 767.271 1054.09 761.338 1054.09 761.336C1053.56 761.056 1052.46 761.159 1051.86 761.021C1051.19 760.866 1049.93 760.568 1049.3 761.015C1045.96 763.412 1045.96 773.378 1048.9 775.985C1051.47 778.269 1055.98 776.164 1058.59 777.765C1060.33 778.84 1060.72 781.672 1061.39 783.401C1062.52 786.343 1062 789.285 1062.35 792.393C1062.72 795.721 1063.12 799.068 1063.64 802.368C1064.05 804.961 1065.4 805.65 1067.44 806.076C1068.12 806.217 1068.59 806.702 1069.31 806.702C1069.57 806.702 1070.15 806.962 1070.1 806.702C1070.04 806.362 1070.01 806.416 1070.01 806.209Z" fill="none" opacity="1" stroke="#ffdff5" stroke-linecap="butt" stroke-linejoin="round" stroke-width="3"/>
<path d="M747.122 992.59C747.122 983.647 747.122 974.704 747.122 965.761C747.122 965.243 746.302 956.896 747.249 956.21C748.09 955.601 762.129 952.969 767.408 951.768C772.644 950.576 778.698 945.438 782.749 941.93C788.091 937.304 793.144 895.871 793.949 882.201C794.134 879.074 794.282 865.416 792.463 863.205C785.274 854.469 777.805 860.156 773.49 867.008C769.363 873.56 771.097 904.538 769.555 910.532C768.424 914.927 765.896 922.424 760.619 922.424C760.04 922.424 756.528 922.825 756.235 922.323C751.732 914.593 756.952 899.076 758.151 891.022C761.103 871.197 763.142 850.851 763.142 830.811C763.142 820.891 764.221 811.588 755.87 809.317C747.518 807.046 741.449 810.256 739.606 813.604C732.665 826.21 737.756 870.259 733.367 873.33C723.102 880.51 730.789 856.603 726.485 847.536C723.326 840.88 714.421 845.339 712.775 847.605C710.349 850.943 709.707 861.468 709.707 865.387C709.707 869.014 708.92 877.317 711.61 883.061C714.733 889.73 723.346 891.048 728.757 895.371C730.281 896.589 730.401 920.466 725.827 925.126C725.195 925.77 703.518 922.423 702.52 914.823C701.013 903.342 703.066 867.601 701.853 855.692C701.36 850.847 684.439 844.399 682.763 854.129C680.074 869.748 676.828 916.952 684.918 931.903C688.512 938.545 696.315 942.557 703.348 945.295C707.154 946.777 714.909 947.204 717.594 950.121C729.41 962.959 724.669 983.463 724.669 999.4C724.669 1008.45 739.502 1009.5 745.019 1005.76C747.697 1003.94 747.122 996.222 747.122 992.59Z" fill="none" opacity="1" stroke="#ffdff5" stroke-linecap="butt" stroke-linejoin="round" stroke-width="3"/>
<path d="M1913.22 855.631C1914.61 853.917 1911.77 851.461 1911.67 849.388C1911.55 846.802 1911.67 844.189 1911.67 841.598C1911.67 841.492 1911.82 839.889 1911.61 839.799C1905.45 837.086 1898.07 840.485 1895.42 831.206C1895 829.726 1895.14 828.129 1895.14 826.609C1895.14 824.919 1894.87 823.045 1895.82 821.544C1897.59 818.749 1903.61 814.273 1905.67 819.019C1906.59 821.151 1907.16 823.522 1907.28 825.843C1907.33 826.918 1906.87 828.758 1907.33 829.756C1907.85 830.9 1910.28 830.677 1910.96 830.029C1913.96 827.152 1913.39 821.603 1913.39 817.895C1913.39 809.911 1912.09 801.939 1914.7 794.152C1916.21 789.636 1921.08 784.694 1926.4 786.267C1929.99 787.328 1929.66 794.113 1929.66 796.917C1929.66 801.254 1928.02 804.427 1926.95 808.542C1925.82 812.841 1925.35 816.707 1925.35 821.117C1925.35 822.895 1924.62 826.308 1925.59 827.866C1927.31 830.626 1931.61 828.362 1932.4 826.118C1934.08 821.353 1929.87 817.69 1933.09 813.013C1933.72 812.091 1934.43 811.461 1935.57 811.366C1943.95 810.671 1943.73 819.715 1943.73 825.815C1943.73 827.669 1944.12 829.953 1943.66 831.754C1941.88 838.712 1929.86 836.463 1925.08 839.621C1918.94 843.674 1923.41 847.877 1923.41 853.38C1923.41 854.027 1923.65 855.285 1923.3 855.881C1922.18 857.765 1915.79 859.565 1913.6 858.816C1911.82 858.21 1912.86 856.081 1913.22 855.631Z" fill="none" opacity="1" stroke="#ffdff5" stroke-linecap="butt" stroke-linejoin="round" stroke-width="3"/>
<path d="M1857.09 850.371C1857.07 849.345 1851.36 850.203 1850.63 848.951C1849.17 846.438 1849.33 840.693 1849.81 837.891C1850.03 836.586 1851.22 833.218 1850.47 832.043C1850.28 831.736 1847.84 832.008 1847.55 832.008C1845.44 832.008 1843.37 831.583 1841.57 830.349C1840.05 829.306 1839.25 826.082 1838.61 824.363C1836.83 819.514 1835.32 807.85 1839.72 803.984C1840.68 803.141 1844.1 802.687 1844.93 803.711C1845.48 804.382 1845.8 805.402 1846.15 806.185C1848.06 810.566 1846.2 815.485 1847.02 820.072C1847.26 821.409 1849.56 824.777 1850.84 822.524C1852.92 818.874 1852.56 814.799 1852.56 810.792C1852.56 803.749 1851.53 794.064 1853.42 787.39C1854.05 785.178 1853.58 782.805 1854.61 780.696C1855.07 779.77 1856.59 779.089 1857.34 778.446C1859.99 776.159 1862.19 775.169 1865.78 775.509C1869.76 775.888 1870.88 781.473 1871.18 784.498C1871.95 792.031 1869.15 799.501 1869.15 807.012C1869.15 808.209 1868.56 809.767 1868.84 810.913C1869.12 812.048 1872.22 810.474 1872.58 810.002C1873.35 808.98 1874.01 802.673 1874.02 802.67C1874.57 802.373 1875.75 802.482 1876.38 802.336C1877.1 802.171 1878.44 801.854 1879.11 802.33C1882.66 804.878 1882.66 815.471 1879.54 818.243C1876.8 820.671 1872 818.433 1869.24 820.135C1867.38 821.278 1866.96 824.289 1866.26 826.126C1865.06 829.254 1865.61 832.381 1865.24 835.685C1864.84 839.223 1864.42 842.781 1863.86 846.289C1863.43 849.046 1861.99 849.777 1859.82 850.231C1859.11 850.38 1858.6 850.896 1857.84 850.896C1857.56 850.896 1856.95 851.172 1857 850.896C1857.06 850.535 1857.09 850.592 1857.09 850.371Z" fill="none" opacity="1" stroke="#ffdff5" stroke-linecap="butt" stroke-linejoin="round" stroke-width="3"/>
<path d="M1815.42 833.038C1815.42 828.955 1815.42 824.872 1815.42 820.789C1815.42 820.552 1815.04 816.741 1815.48 816.428C1815.86 816.15 1822.27 814.948 1824.68 814.4C1827.07 813.855 1829.83 811.51 1831.68 809.908C1834.12 807.796 1836.43 788.879 1836.8 782.637C1836.88 781.209 1836.95 774.974 1836.12 773.964C1832.84 769.976 1829.43 772.572 1827.46 775.701C1825.57 778.692 1826.36 792.836 1825.66 795.573C1825.14 797.579 1823.99 801.002 1821.58 801.002C1821.32 801.002 1819.71 801.185 1819.58 800.956C1817.52 797.427 1819.91 790.342 1820.45 786.665C1821.8 777.613 1822.73 768.324 1822.73 759.174C1822.73 754.645 1823.22 750.397 1819.41 749.36C1815.6 748.323 1812.83 749.789 1811.99 751.318C1808.82 757.073 1811.14 777.185 1809.14 778.587C1804.45 781.865 1807.96 770.95 1806 766.81C1804.55 763.771 1800.49 765.807 1799.74 766.842C1798.63 768.366 1798.33 773.171 1798.33 774.961C1798.33 776.616 1797.98 780.407 1799.2 783.03C1800.63 786.075 1804.56 786.677 1807.03 788.65C1807.73 789.207 1807.78 800.108 1805.69 802.236C1805.41 802.53 1795.51 801.002 1795.05 797.532C1794.37 792.29 1795.3 775.971 1794.75 770.534C1794.52 768.322 1786.8 765.378 1786.03 769.821C1784.8 776.951 1783.32 798.504 1787.02 805.33C1788.66 808.363 1792.22 810.194 1795.43 811.444C1797.17 812.121 1800.71 812.316 1801.94 813.648C1807.33 819.509 1805.17 828.871 1805.17 836.147C1805.17 840.279 1811.94 840.757 1814.46 839.049C1815.68 838.22 1815.42 834.696 1815.42 833.038Z" fill="none" opacity="1" stroke="#ffdff5" stroke-linecap="butt" stroke-linejoin="round" stroke-width="3"/>
<path d="M492.048 1028.69C492.088 1026.44 504.588 1028.32 506.187 1025.58C509.397 1020.07 509.037 1007.49 507.991 1001.35C507.503 998.495 504.903 991.118 506.534 988.545C506.961 987.872 512.314 988.467 512.936 988.467C517.562 988.467 522.098 987.536 526.031 984.835C529.358 982.55 531.128 975.489 532.511 971.722C536.411 961.103 539.734 935.555 530.088 927.089C527.986 925.243 520.488 924.249 518.671 926.491C517.48 927.96 516.763 930.195 516.014 931.909C511.817 941.505 515.902 952.278 514.107 962.325C513.584 965.253 508.542 972.63 505.728 967.696C501.168 959.701 501.97 950.777 501.97 942C501.97 926.574 504.226 905.362 500.084 890.743C498.712 885.9 499.725 880.701 497.466 876.083C496.474 874.055 493.134 872.563 491.502 871.155C485.695 866.145 480.864 863.977 473.019 864.722C464.294 865.551 461.849 877.784 461.177 884.41C459.504 900.908 465.633 917.27 465.633 933.721C465.633 936.342 466.931 939.756 466.309 942.264C465.693 944.751 458.897 941.303 458.117 940.27C456.424 938.03 454.977 924.217 454.965 924.211C453.75 923.56 451.181 923.799 449.785 923.478C448.218 923.118 445.278 922.424 443.825 923.465C436.033 929.046 436.05 952.248 442.885 958.32C448.87 963.637 459.378 958.735 465.442 962.464C469.513 964.967 470.419 971.561 471.966 975.584C474.599 982.435 473.384 989.285 474.198 996.521C475.069 1004.27 475.988 1012.06 477.206 1019.75C478.163 1025.78 481.306 1027.39 486.062 1028.38C487.629 1028.71 488.73 1029.84 490.401 1029.84C491.016 1029.84 492.359 1030.44 492.247 1029.84C492.101 1029.05 492.039 1029.17 492.048 1028.69Z" fill="none" opacity="1" stroke="#ffdff5" stroke-linecap="butt" stroke-linejoin="round" stroke-width="3"/>
<path d="M2056.46 1052.01C2056.46 1037.35 2058.49 989.684 2057.22 982.282C2056.26 976.655 2043.11 976.305 2039.87 971.803C2036.4 966.978 2037.79 941.742 2037.72 934.096C2037.58 920.658 2035.5 907.872 2040.63 895.281C2042.36 891.043 2056.36 891.043 2059.45 897.5C2063.28 905.493 2062.71 919.394 2061.01 928.37C2059.79 934.833 2061.48 943.214 2062.9 949.771C2063.13 950.822 2066.2 951.132 2066.94 950.698C2073.81 946.672 2068.85 909.638 2068.19 903.664C2067.11 893.993 2069.11 884.877 2069.96 875.372C2071.82 854.694 2072.5 836.495 2097.6 840.952C2100.79 841.518 2102.13 851.161 2102.28 853.309C2103.02 864.142 2102.17 875.132 2100.43 885.804C2095.86 913.867 2093.05 946.792 2089.44 975.071C2088.19 984.921 2087.49 1063.96 2080.84 1077.64C2078.57 1082.33 2061.86 1080.72 2058.24 1077.64C2056.05 1075.77 2056.46 1059.76 2056.46 1052.01Z" fill="none" opacity="1" stroke="#ffdff5" stroke-linecap="butt" stroke-linejoin="round" stroke-width="3"/>
<path d="M217.768 955.877C213.09 949.606 206.356 948.825 199.84 945.169C187.899 938.471 192.41 930.239 191.844 916.648C191.681 912.739 192.363 906.102 193.137 901.944C193.853 898.09 196.728 896.397 204.486 896.397C214.417 896.397 215.662 903.093 215.662 906.3C215.662 911.587 214.336 921.25 215.662 926.402C215.924 927.42 222.068 928.175 222.71 927.264C223.953 925.502 223.686 922.052 223.92 920.059C224.458 915.482 224.472 910.959 224.874 906.364C226.627 886.339 223.687 865.775 226.07 845.822C228.039 829.341 227.561 812.913 245.193 816.101C263.2 819.357 260.593 843.004 260.593 856.134C260.593 862.695 259.408 869.118 259.099 875.659C258.332 891.86 257.185 908.038 256.003 924.195C255.14 935.999 254.58 948.029 254.103 959.859C253.891 965.108 252.106 991.361 252.106 996.618C252.106 1001.83 221.626 1001.25 218.222 998.934C215.844 997.314 219.355 958.005 217.768 955.877Z" fill="none" opacity="1" stroke="#ffdff5" stroke-linecap="butt" stroke-linejoin="round" stroke-width="3"/>
<path d="M122.307 997.744C125.341 993.989 119.122 988.61 118.909 984.07C118.643 978.406 118.9 972.683 118.9 967.009C118.9 966.777 119.236 963.266 118.788 963.069C105.294 957.125 89.1222 964.572 83.3261 944.248C82.4013 941.005 82.6975 937.509 82.6975 934.179C82.6975 930.478 82.1228 926.373 84.2017 923.086C88.0747 916.963 101.258 907.162 105.766 917.555C107.792 922.226 109.041 927.418 109.295 932.501C109.412 934.857 108.409 938.885 109.403 941.071C110.544 943.578 115.867 943.089 117.348 941.669C123.919 935.369 122.689 923.214 122.689 915.093C122.689 897.607 119.82 880.145 125.541 863.091C128.859 853.199 139.524 842.376 151.176 845.822C159.031 848.145 158.311 863.005 158.311 869.147C158.311 878.646 154.73 885.597 152.368 894.608C149.899 904.023 148.87 912.492 148.87 922.15C148.87 926.046 147.279 933.521 149.399 936.931C153.155 942.977 162.581 938.019 164.314 933.104C167.994 922.667 158.783 914.644 165.818 904.4C167.205 902.381 168.755 901.002 171.267 900.794C189.621 899.271 189.13 919.08 189.13 932.441C189.13 936.501 189.978 941.503 188.969 945.449C185.074 960.687 158.742 955.762 148.272 962.679C134.834 971.556 144.626 980.762 144.626 992.813C144.626 994.231 145.149 996.986 144.375 998.292C141.93 1002.42 127.934 1006.36 123.135 1004.72C119.246 1003.39 121.511 998.729 122.307 997.744Z" fill="none" opacity="1" stroke="#ffdff5" stroke-linecap="butt" stroke-linejoin="round" stroke-width="3"/>
<path d="M354.408 989.007C354.408 974.344 356.439 926.682 355.172 919.28C354.208 913.653 341.057 913.303 337.817 908.801C334.346 903.976 335.745 878.74 335.668 871.094C335.533 857.656 333.451 844.87 338.581 832.279C340.307 828.041 354.31 828.041 357.402 834.498C361.23 842.491 360.665 856.392 358.962 865.368C357.737 871.831 359.428 880.212 360.854 886.769C361.082 887.82 364.15 888.13 364.892 887.696C371.763 883.669 366.801 846.636 366.138 840.662C365.065 830.99 367.06 821.875 367.914 812.37C369.774 791.692 370.445 773.493 395.55 777.95C398.735 778.516 400.08 788.159 400.227 790.307C400.966 801.14 400.123 812.13 398.384 822.802C393.812 850.865 391.001 883.79 387.395 912.069C386.139 921.919 385.437 1000.96 378.794 1014.63C376.515 1019.33 359.813 1017.72 356.187 1014.63C353.995 1012.77 354.408 996.757 354.408 989.007Z" fill="none" opacity="1" stroke="#ffdff5" stroke-linecap="butt" stroke-linejoin="round" stroke-width="3"/>
<path d="M2187.82 1053.88C2187.82 1044.94 2187.82 1036 2187.82 1027.06C2187.82 1026.54 2188.64 1018.19 2187.7 1017.5C2186.86 1016.9 2172.82 1014.26 2167.54 1013.06C2162.3 1011.87 2156.25 1006.73 2152.2 1003.22C2146.85 998.598 2141.8 957.165 2141 943.495C2140.81 940.368 2140.66 926.71 2142.48 924.499C2149.67 915.763 2157.14 921.45 2161.46 928.302C2165.58 934.854 2163.85 965.832 2165.39 971.826C2166.52 976.221 2169.05 983.718 2174.33 983.718C2174.91 983.718 2178.42 984.119 2178.71 983.617C2183.21 975.887 2177.99 960.37 2176.79 952.316C2173.84 932.491 2171.8 912.145 2171.8 892.105C2171.8 882.185 2170.72 872.882 2179.08 870.611C2187.43 868.34 2193.5 871.55 2195.34 874.898C2202.28 887.503 2197.19 931.553 2201.58 934.624C2211.84 941.804 2204.16 917.897 2208.46 908.83C2211.62 902.174 2220.52 906.633 2222.17 908.899C2224.6 912.237 2225.24 922.762 2225.24 926.681C2225.24 930.308 2226.03 938.611 2223.34 944.355C2220.21 951.024 2211.6 952.342 2206.19 956.665C2204.66 957.883 2204.54 981.76 2209.12 986.42C2209.75 987.064 2231.43 983.717 2232.43 976.117C2233.93 964.636 2231.88 928.895 2233.09 916.985C2233.59 912.14 2250.51 905.693 2252.18 915.423C2254.87 931.042 2258.12 978.246 2250.03 993.197C2246.43 999.839 2238.63 1003.85 2231.6 1006.59C2227.79 1008.07 2220.04 1008.5 2217.35 1011.41C2205.53 1024.25 2210.28 1044.76 2210.28 1060.69C2210.28 1069.74 2195.44 1070.79 2189.93 1067.05C2187.25 1065.23 2187.82 1057.52 2187.82 1053.88Z" fill="none" opacity="1" stroke="#ffdff5" stroke-linecap="butt" stroke-linejoin="round" stroke-width="3"/>
<path d="M2326.69 688.502C2326.69 681.103 2325.66 657.053 2326.3 653.318C2326.79 650.479 2333.43 650.302 2335.06 648.03C2336.81 645.596 2336.11 632.862 2336.14 629.004C2336.21 622.223 2337.26 615.772 2334.67 609.418C2333.8 607.28 2326.74 607.28 2325.18 610.538C2323.25 614.571 2323.53 621.586 2324.39 626.115C2325.01 629.376 2324.15 633.605 2323.44 636.914C2323.32 637.444 2321.77 637.6 2321.4 637.381C2317.93 635.349 2320.43 616.662 2320.77 613.648C2321.31 608.768 2320.3 604.168 2319.87 599.372C2318.93 588.938 2318.6 579.756 2305.93 582.004C2304.32 582.29 2303.64 587.156 2303.57 588.24C2303.2 593.706 2303.62 599.251 2304.5 604.636C2306.81 618.797 2308.22 635.41 2310.04 649.68C2310.68 654.65 2311.03 694.532 2314.38 701.433C2315.53 703.8 2323.96 702.989 2325.79 701.433C2326.9 700.493 2326.69 692.412 2326.69 688.502Z" fill="none" opacity="1" stroke="#ffdff5" stroke-linecap="butt" stroke-linejoin="round" stroke-width="3"/>
<path d="M929.014 755.812C929.014 750.21 929.789 732.001 929.305 729.173C928.937 727.023 923.913 726.89 922.675 725.169C921.349 723.326 921.883 713.685 921.854 710.764C921.802 705.63 921.007 700.745 922.967 695.935C923.626 694.316 928.976 694.316 930.157 696.782C931.62 699.836 931.404 705.147 930.753 708.576C930.285 711.045 930.931 714.247 931.476 716.752C931.563 717.154 932.735 717.272 933.019 717.106C935.644 715.568 933.748 701.42 933.495 699.137C933.085 695.443 933.847 691.96 934.173 688.328C934.884 680.429 935.14 673.476 944.731 675.179C945.948 675.395 946.462 679.079 946.518 679.9C946.8 684.038 946.478 688.237 945.814 692.314C944.067 703.036 942.993 715.614 941.616 726.418C941.136 730.181 940.868 760.377 938.33 765.603C937.459 767.395 931.078 766.78 929.693 765.603C928.856 764.891 929.014 758.772 929.014 755.812Z" fill="none" opacity="1" stroke="#ffdff5" stroke-linecap="butt" stroke-linejoin="round" stroke-width="3"/>
<path d="M2260.4 689.448C2260.4 684.935 2260.4 680.423 2260.4 675.91C2260.4 675.649 2259.99 671.437 2260.47 671.091C2260.89 670.784 2267.97 669.455 2270.64 668.849C2273.28 668.248 2276.34 665.655 2278.38 663.885C2281.08 661.551 2283.62 640.644 2284.03 633.746C2284.12 632.169 2284.2 625.277 2283.28 624.161C2279.65 619.753 2275.88 622.623 2273.71 626.08C2271.63 629.386 2272.5 645.018 2271.72 648.042C2271.15 650.26 2269.88 654.043 2267.21 654.043C2266.92 654.043 2265.15 654.245 2265 653.992C2262.73 650.091 2265.36 642.261 2265.97 638.197C2267.46 628.194 2268.49 617.928 2268.49 607.816C2268.49 602.81 2269.03 598.116 2264.82 596.97C2260.6 595.824 2257.54 597.444 2256.61 599.133C2253.11 605.494 2255.68 627.721 2253.46 629.27C2248.28 632.893 2252.16 620.83 2249.99 616.255C2248.4 612.897 2243.9 615.146 2243.07 616.29C2241.85 617.974 2241.52 623.285 2241.52 625.262C2241.52 627.092 2241.13 631.282 2242.48 634.181C2244.06 637.545 2248.41 638.211 2251.14 640.392C2251.9 641.007 2251.96 653.055 2249.66 655.406C2249.34 655.731 2238.4 654.042 2237.9 650.207C2237.14 644.414 2238.17 626.379 2237.56 620.37C2237.31 617.925 2228.77 614.672 2227.93 619.582C2226.57 627.463 2224.93 651.281 2229.01 658.826C2230.83 662.177 2234.77 664.202 2238.31 665.583C2240.23 666.331 2244.15 666.547 2245.5 668.018C2251.47 674.496 2249.07 684.843 2249.07 692.884C2249.07 697.45 2256.56 697.978 2259.34 696.091C2260.69 695.175 2260.4 691.28 2260.4 689.448Z" fill="none" opacity="1" stroke="#ffdff5" stroke-linecap="butt" stroke-linejoin="round" stroke-width="3"/>
</g>
</g>
</svg>
