<?xml version="1.0" encoding="UTF-8" standalone="no"?>
<!DOCTYPE svg PUBLIC "-//W3C//DTD SVG 1.1//EN" "http://www.w3.org/Graphics/SVG/1.1/DTD/svg11.dtd">
<!-- Created with Vectornator (http://vectornator.io/) -->
<svg height="100%" stroke-miterlimit="10" style="fill-rule:nonzero;clip-rule:evenodd;stroke-linecap:round;stroke-linejoin:round;" version="1.1" viewBox="0 0 2560 1440" width="100%" xml:space="preserve" xmlns="http://www.w3.org/2000/svg" xmlns:xlink="http://www.w3.org/1999/xlink">
<defs/>
<clipPath id="ArtboardFrame">
<rect height="1440" width="2560" x="0" y="0"/>
</clipPath>
<g clip-path="url(#ArtboardFrame)" id="Layer-1">
<g opacity="1">
<path d="M1037.25 1866.83C908.734 1866.24 365.615 1728.03 453.235 1514.51C477.482 1455.42 547.843 1346.31 595.547 1307.08C614.014 1291.9 769.279 1259.76 745.524 1257.06C651.046 1246.31 534.583 1339.04 428.305 1324.42C244.631 1299.16 56.2661 1155.01 70.6585 970.024C87.4057 754.774 312.681 636.731 472.626 683.272C514.963 695.592 553.164 753.928 592.06 740.138C605.868 735.242 538.859 634.869 533.106 620.152C501.787 540.026 482.616 369.321 539.242 293.845C641.043 158.157 1007.82 62.3491 1110.89 228.673C1151.44 294.106 1183.36 370.355 1202.01 444.875C1209.16 473.457 1185.75 522.623 1213.51 532.514C1243.77 543.298 1338.44 437.21 1364.9 420.476C1494.92 338.245 1597.39 267.076 1739.5 366.687C1967.21 526.302 1958.07 842.145 1775.85 978.715C1730.41 1012.77 1655 1015.13 1601.05 1032.84C1588.85 1036.84 1572.4 1046.49 1605.81 1065.25C1712.13 1124.94 1900.99 1245.36 1864.49 1468.09C1835.27 1646.44 1582.52 1791.06 1483.27 1722.91C1348.45 1630.34 1397.29 1589.47 1302.84 1479.7C1298.92 1475.14 1293.34 1480.1 1288.91 1475.27C1288.91 1475.27 1181.93 1867.51 1037.25 1866.83Z" fill="#5309cd" fill-rule="nonzero" opacity="1" stroke="none"/>
<g opacity="1">
<g opacity="1">
<g opacity="1">
<path d="M1022.9 923.857C1018.26 922.161 1020.59 900.225 1020.59 895.975C1020.59 872.113 1023.48 847.439 1013.85 825.018C984.088 755.788 943.617 615.784 1038.05 578.475C1056.39 571.229 1076.44 569.849 1095.94 568.895C1113.93 568.014 1132.72 566.804 1150.38 570.945C1187.77 579.714 1207.1 608.043 1240.39 622.711C1300.72 649.291 1408.76 640.322 1437.45 715.015C1486.61 842.986 1331.87 886.409 1250.94 928.323C1236.94 935.572 1220.9 942.81 1208.69 952.834C1195.74 963.466 1188.85 979.104 1170.23 981.827C1129.06 987.845 1146.11 941.573 1112.49 924.411C1097.77 916.9 1036.22 928.733 1022.9 923.857Z" fill="#f4dffd" fill-rule="nonzero" stroke="none"/>
<path d="M1122.34 563.344C1115.18 563.314 1108.01 563.624 1100.88 563.938C1086.4 564.573 1071.89 565.231 1057.66 568.094C1042.87 571.066 1028.58 576.592 1016.19 585.281C1011.59 588.506 1007.28 592.149 1003.34 596.156C998.531 601.057 994.288 606.527 990.688 612.375C986.158 619.733 982.623 627.701 980.031 635.938C974.524 653.439 973.032 672.02 973.688 690.281C974.059 700.646 975.179 710.953 976.844 721.188C977.597 725.818 978.398 730.448 979.406 735.031C982.903 750.926 987.66 766.553 993.125 781.875C996.579 791.559 1000.15 801.198 1004.03 810.719C1005.64 814.653 1007.21 818.609 1008.84 822.531C1010.22 825.828 1011.68 829.079 1012.81 832.469C1019.59 852.673 1017.84 874.326 1018.16 895.281C1018.27 902.954 1017.36 910.665 1018.38 918.312C1018.63 920.203 1018.94 922.259 1019.97 923.906C1020.22 924.307 1020.53 924.707 1020.91 925C1021.03 925.1 1020.91 924.997 1021.69 925.438C1022.29 925.896 1023.3 925.558 1023.97 924.688C1024.08 924.545 1024.08 924.4 1024.16 924.25C1024.2 924.26 1024.24 924.271 1024.28 924.281C1024.46 924.324 1024.64 924.338 1024.81 924.375C1024.61 924.334 1024.38 924.272 1024.16 924.219C1024.53 923.461 1024.59 922.66 1024.09 922.281C1023.9 922.189 1023.81 922.498 1023.91 922.188C1023.92 922.139 1023.82 922.128 1023.78 922.094C1023.67 921.995 1023.58 921.869 1023.5 921.75C1023.23 921.363 1023.05 920.914 1022.91 920.469C1022.45 919.042 1022.29 917.518 1022.19 916.031C1021.78 910.275 1022.31 904.457 1022.75 898.719C1022.99 895.542 1023.05 892.372 1023.16 889.188C1023.31 884.65 1023.53 880.131 1023.69 875.594C1024.13 862.99 1024.3 850.085 1021.62 837.688C1020.76 833.695 1019.61 829.783 1018.16 825.969C1016.93 822.749 1015.47 819.592 1014.16 816.406C1012.52 812.439 1010.97 808.441 1009.5 804.406C1007.13 797.871 1004.84 791.3 1002.78 784.656C1001.03 779.01 999.487 773.281 998 767.562C994.777 755.17 992.067 742.652 989.906 730.031C988.264 720.439 986.846 710.88 985.938 701.188C983.652 676.811 984.113 651.113 993.281 628.062C995.994 621.242 999.51 614.699 1003.91 608.812C1007.03 604.631 1010.62 600.8 1014.56 597.375C1017.75 594.605 1021.15 592.115 1024.75 589.906C1047.43 575.98 1074.21 574.766 1100.03 573.375C1114.5 572.596 1129.16 571.922 1143.5 574.469C1150.76 575.759 1157.87 577.95 1164.62 580.906C1185.59 590.075 1202.25 606.182 1221.59 618.031C1226.74 621.181 1232.07 624.019 1237.59 626.438C1248.54 631.226 1260.08 634.526 1271.66 637.375C1306.39 645.922 1342.45 650.133 1375.84 663.531C1389.08 668.844 1401.81 675.781 1412.44 685.406C1419.64 691.931 1425.75 699.648 1430.28 708.25C1432.89 713.209 1434.93 718.456 1436.75 723.75C1438.93 730.087 1440.7 736.568 1441.94 743.156C1443.69 752.49 1444.33 762.027 1443.53 771.5C1443.06 777.067 1442.08 782.582 1440.59 787.969C1431.37 821.461 1403.7 845.696 1375.56 863.906C1370.77 867.007 1365.91 869.98 1360.97 872.844C1354.95 876.333 1348.82 879.653 1342.66 882.875C1334.42 887.181 1326.1 891.305 1317.72 895.312C1307.51 900.19 1297.23 904.905 1286.97 909.656C1278.33 913.655 1269.69 917.669 1261.16 921.875C1256.44 924.196 1251.79 926.623 1247.12 929.031C1233.72 935.947 1219.83 942.46 1208.12 952.125C1200.29 958.595 1194.59 967.271 1186.69 973.656C1184.19 975.674 1181.48 977.406 1178.53 978.688C1173.04 981.077 1166.42 981.961 1160.47 981.406C1158.44 981.217 1156.42 980.821 1154.5 980.125C1144.99 976.682 1141.24 966.827 1137.91 958.125C1133.89 947.627 1129.84 937.081 1121.09 929.531C1118.4 927.205 1115.1 924.883 1111.78 923.562C1108.91 922.42 1105.75 922.032 1102.69 921.781C1098.15 921.41 1093.61 921.454 1089.06 921.594C1077.13 921.961 1065.22 923.125 1053.31 924.031C1045.58 924.62 1037.76 925.265 1030 924.938C1030.5 924.966 1031 925.045 1031.5 925.062C1037.23 925.267 1042.99 924.957 1048.72 924.625C1061.74 923.87 1074.74 922.585 1087.78 922.25C1092.36 922.132 1096.93 922.105 1101.5 922.469C1104.59 922.715 1107.76 923.082 1110.69 924.156C1112.26 924.734 1113.74 925.614 1115.16 926.5C1118.39 928.524 1121.35 931.014 1123.84 933.906C1127.62 938.284 1130.39 943.331 1132.66 948.625C1133.63 950.891 1134.52 953.19 1135.38 955.5C1139.18 965.74 1142.77 978.068 1154.28 981.875C1156.7 982.673 1159.25 983.056 1161.78 983.156C1167.51 983.383 1173.46 982.5 1178.75 980.25C1181.95 978.888 1184.9 977.038 1187.62 974.875C1195.59 968.55 1201.36 959.935 1209.25 953.531C1221.31 943.743 1235.68 937.324 1249.44 930.344C1262.91 923.506 1276.64 917.223 1290.41 911C1301.3 906.078 1312.21 901.191 1323 896.062C1331.46 892.045 1339.86 887.94 1348.16 883.594C1354.37 880.335 1360.53 876.954 1366.59 873.406C1371.59 870.482 1376.54 867.43 1381.38 864.25C1409.65 845.654 1436.44 820.996 1446.09 787.469C1447.89 781.218 1449.06 774.794 1449.59 768.312C1450.41 758.314 1449.69 748.225 1447.84 738.375C1446.55 731.5 1444.72 724.745 1442.47 718.125C1440.56 712.512 1438.36 707.001 1435.53 701.781C1431.07 693.555 1425.28 686.095 1418.47 679.688C1406.81 668.719 1392.48 660.855 1377.62 655.094C1343.2 641.739 1306.14 637.876 1270.66 628.344C1260.61 625.646 1250.61 622.491 1241.19 618.062C1235.34 615.314 1229.73 612.033 1224.34 608.469C1205.76 596.185 1189.45 580.626 1168.72 571.781C1160.73 568.374 1152.34 566.039 1143.75 564.781C1136.66 563.743 1129.5 563.374 1122.34 563.344ZM1024.81 924.375C1025.19 924.454 1025.56 924.534 1025.94 924.594C1027.22 924.798 1028.52 924.83 1029.81 924.906C1028.14 924.83 1026.46 924.707 1024.81 924.375Z" fill="#0e3969" stroke="none"/>
</g>
<g opacity="1">
<path d="M1050.54 936.058C1053.62 932.204 1040.26 914.655 1038.05 911.021C1025.68 890.617 1010.42 871.016 1007.03 846.848C996.588 772.222 958.608 631.521 858.515 648.578C839.074 651.891 821.212 661.107 804.042 670.401C788.207 678.972 771.51 687.68 758.558 700.377C731.134 727.259 729.287 761.508 708.425 791.311C670.62 845.316 573.581 893.662 587.774 972.407C612.089 1107.32 766.921 1064.22 857.857 1058.11C873.584 1057.05 891.049 1054.92 906.69 1057.16C923.279 1059.54 937.274 1069.34 954.612 1062.01C992.934 1045.82 967.373 984.569 987.225 952.462C995.912 938.411 1041.67 947.138 1050.54 936.058Z" fill="#f4dffd" fill-rule="nonzero" stroke="none"/>
<path d="M880.125 642.062C875.425 641.908 870.704 642.104 866.031 642.625C841.326 645.379 819.313 657.363 797.875 669.125C785.778 675.762 773.686 682.574 763 691.375C755.399 697.635 748.671 704.913 743.094 713.031C737.186 721.63 732.616 731.035 728.562 740.625C723.637 752.277 719.409 764.261 713.687 775.562C711.145 780.585 708.301 785.435 705.094 790.062C699.475 798.169 692.898 805.597 686.062 812.688C660.445 839.261 630.636 861.916 608.187 891.469C598.588 904.107 590.487 918.171 586.187 933.531C583.637 942.643 582.518 952.17 582.969 961.625C583.269 967.91 584.328 974.092 585.719 980.219C587.322 987.282 589.379 994.257 592.031 1001C595.443 1009.67 599.833 1017.95 605.312 1025.5C609.079 1030.69 613.344 1035.53 618.062 1039.88C644.252 1063.98 681.108 1070.61 715.531 1071.44C720.742 1071.56 725.945 1071.55 731.156 1071.44C738.182 1071.29 745.207 1070.97 752.219 1070.5C761.571 1069.88 770.93 1069.02 780.25 1068.03C792.132 1066.78 803.983 1065.28 815.844 1063.84C830.353 1062.08 844.862 1060.42 859.438 1059.31C870.335 1058.48 881.215 1057.32 892.156 1057.38C897.502 1057.4 902.88 1057.68 908.156 1058.59C916.835 1060.1 925.059 1063.56 933.75 1065C943.221 1066.57 952.315 1065.07 960.406 1059.78C970.455 1053.22 974.928 1042.43 976.875 1031C977.962 1024.62 978.322 1018.15 978.531 1011.69C978.879 1000.94 978.69 990.152 979.75 979.438C980.481 972.046 981.83 964.563 984.812 957.719C986.036 954.91 987.406 951.906 989.844 949.937C993.743 946.789 999.124 945.674 1003.94 944.875C1011.63 943.597 1019.43 943.349 1027.19 942.656C1031.33 942.287 1035.52 941.779 1039.62 940.937C1038.14 941.206 1036.65 941.463 1035.16 941.656C1032.53 941.995 1029.89 942.195 1027.25 942.406C1018.5 943.107 1009.63 943.213 1001 944.969C996.681 945.847 991.977 947.166 988.687 950.281C987.429 951.473 986.575 952.926 985.75 954.437C984.981 955.846 984.274 957.3 983.656 958.781C980.377 966.648 979.14 975.187 978.437 983.625C977.36 996.579 977.78 1009.62 976.562 1022.56C975.441 1034.48 972.802 1047.6 963.344 1055.84C958.137 1060.38 951.317 1063.15 944.438 1063.66C941.205 1063.89 937.968 1063.62 934.781 1063.06C926.827 1061.66 919.288 1058.53 911.406 1056.81C902.037 1054.77 892.258 1054.77 882.719 1055.16C875.879 1055.43 869.047 1056 862.219 1056.47C848.621 1057.4 835.078 1058.66 821.531 1060.16C789.156 1063.74 756.667 1067.84 724.031 1067.38C693.822 1066.94 661.467 1062.65 635.719 1045.66C622.215 1036.75 611.328 1024.45 603.844 1010.12C598.56 1000.01 594.92 989.1 592.5 977.969C590.821 970.243 589.729 962.455 589.906 954.531C590.476 929.107 603.405 906.914 619.25 887.844C635.435 868.364 654.604 851.592 673.062 834.344C684.797 823.379 696.455 812.155 706.469 799.562C710.249 794.809 713.766 789.845 716.875 784.625C720.696 778.209 723.945 771.461 726.938 764.625C733.644 749.306 739.024 733.269 748.125 719.125C752.677 712.051 758.12 705.564 764.438 700C776.252 689.595 790.42 682.308 804.219 674.938C823.764 664.498 843.689 654.205 866.187 652.531C870.307 652.225 874.473 652.205 878.594 652.5C883.814 652.873 888.957 653.758 894 655.156C923.766 663.411 945.039 688.43 959.75 714.344C962.469 719.134 964.947 724.026 967.375 728.969C970.066 734.448 972.586 740.023 974.938 745.656C978.085 753.195 981.086 760.81 983.844 768.5C987.551 778.84 990.866 789.325 993.812 799.906C997.579 813.432 1000.58 827.248 1002.72 841.125C1003.25 844.535 1003.63 847.98 1004.25 851.375C1004.98 855.394 1006.03 859.36 1007.37 863.219C1011.68 875.571 1018.78 886.787 1025.97 897.625C1028.18 900.96 1030.42 904.283 1032.62 907.625C1034.58 910.596 1036.48 913.554 1038.56 916.438C1041.68 920.761 1044.87 925.124 1047.31 929.875C1047.99 931.193 1048.65 932.552 1049 934C1049.08 934.344 1049.14 934.709 1049.16 935.062C1049.16 935.163 1049.09 935.432 1049.12 935.531C1049.13 935.546 1049.12 935.532 1049.09 935.562C1048.95 935.997 1049.32 936.459 1049.84 936.781C1049.97 936.862 1050.06 936.978 1050.22 937.031C1051.01 937.298 1051.79 937.075 1051.97 936.531C1052.26 936.086 1051.96 936.279 1052.25 936.094C1052.44 935.971 1052.48 935.683 1052.56 935.469C1052.82 934.777 1052.86 934.013 1052.81 933.281C1052.64 930.79 1051.48 928.322 1050.37 926.125C1049.83 925.041 1049.56 924.505 1048.97 923.438C1048.49 922.568 1047.88 921.573 1047.38 920.719C1046.58 919.388 1045.77 918.057 1044.94 916.75C1043.49 914.463 1041.95 912.243 1040.53 909.938C1039.38 908.068 1038.31 906.136 1037.19 904.25C1034.35 899.51 1031.46 894.803 1028.62 890.062C1021.34 877.879 1014.52 865.146 1011.38 851.188C1010.32 846.5 1009.78 841.71 1009.03 836.969C1007.69 828.542 1006.34 820.128 1004.72 811.75C1000.58 790.279 995.826 768.838 988.625 748.156C983.852 734.447 977.92 721.081 970.844 708.406C961.606 691.86 950.19 676.108 935.562 663.906C929.18 658.582 922.177 653.963 914.656 650.406C908.742 647.609 902.54 645.488 896.156 644.062C890.893 642.887 885.513 642.24 880.125 642.062ZM1039.62 940.937C1040.05 940.86 1040.48 940.778 1040.91 940.688C1040.48 940.787 1040.05 940.85 1039.62 940.937ZM1040.91 940.688C1041.72 940.496 1042.57 940.429 1043.37 940.187C1043.95 940.015 1044.47 939.711 1045.03 939.5C1043.68 939.996 1042.31 940.391 1040.91 940.688ZM1045.03 939.5C1045.22 939.429 1045.43 939.42 1045.62 939.344C1045.8 939.273 1045.95 939.138 1046.12 939.063C1045.76 939.222 1045.4 939.362 1045.03 939.5ZM1046.12 939.063C1046.61 938.848 1047.13 938.729 1047.59 938.469C1048.04 938.217 1048.43 937.868 1048.84 937.562C1048.01 938.173 1047.08 938.654 1046.12 939.063ZM1048.84 937.562C1048.97 937.472 1049.13 937.44 1049.25 937.344C1049.37 937.252 1049.47 937.136 1049.59 937.031C1049.37 937.235 1049.09 937.381 1048.84 937.562Z" fill="#0e3969" stroke="none"/>
</g>
<g opacity="1">
<path d="M1047.45 1185.68C1050.2 1189.78 1035.41 1206.15 1032.91 1209.58C1018.88 1228.88 1002.02 1247.13 996.626 1270.93C979.962 1344.42 930.326 1481.44 832.014 1456.06C812.919 1451.13 795.893 1440.45 779.562 1429.75C764.501 1419.88 748.592 1409.8 736.75 1396.07C711.675 1366.98 712.704 1332.7 694.413 1301.25C661.267 1244.27 568.62 1187.96 589.362 1110.68C624.897 978.28 775.573 1034.2 865.676 1047.92C881.26 1050.29 898.485 1053.87 914.259 1052.95C930.988 1051.97 945.756 1043.38 962.418 1052.13C999.248 1071.48 972.961 1104.61 990.052 1138.27C997.532 1153 1039.54 1173.9 1047.45 1185.68Z" fill="#f4dffd" fill-rule="nonzero" stroke="none"/>
<path d="M710.562 1022.34C680.505 1022.3 650.178 1027.87 626.094 1046.66C620.873 1050.73 616.059 1055.32 611.75 1060.34C605.104 1068.1 599.643 1076.81 595.281 1086.03C592.254 1092.43 589.747 1099.08 587.656 1105.84C585.881 1111.59 584.412 1117.41 583.625 1123.38C581.878 1136.61 583.315 1150.06 587.281 1162.78C590.67 1173.65 595.786 1183.89 601.75 1193.56C608.86 1205.09 617.322 1215.79 626.094 1226.09C640.929 1243.51 657.027 1259.85 671.594 1277.5C678.966 1286.43 686.029 1295.77 691.625 1305.94C694.064 1310.37 696.169 1315 698.062 1319.69C706.376 1340.27 710.183 1362.52 720.812 1382.19C724.891 1389.73 729.884 1396.77 735.75 1403.03C746.309 1414.3 759.211 1422.99 772 1431.5C784.275 1439.67 796.608 1447.9 810.031 1454.09C820.961 1459.13 832.592 1462.64 844.594 1463.84C850.064 1464.39 855.583 1464.45 861.062 1464C865.418 1463.64 869.746 1462.94 874 1461.94C899.78 1455.86 921.095 1438.5 937.5 1418.31C963.014 1386.92 978.367 1348.88 989.469 1310.34C993.161 1297.53 996.571 1284.62 999.562 1271.62C1000.51 1267.5 1001.71 1263.47 1003.28 1259.53C1010.2 1242.22 1022.25 1227.78 1033 1212.78C1037.8 1206.09 1043.5 1199.94 1047.47 1192.69C1048.45 1190.9 1049.44 1188.91 1049.59 1186.84C1049.63 1186.34 1049.61 1185.84 1049.47 1185.34C1049.42 1185.19 1049.49 1185.34 1049.12 1184.53C1048.69 1183.9 1047.57 1183.89 1046.66 1184.53C1046.64 1184.54 1046.64 1184.55 1046.62 1184.56C1046.53 1184.41 1046.42 1184.29 1046.31 1184.16C1046.08 1183.88 1045.83 1183.61 1045.59 1183.34C1045.12 1182.83 1044.59 1182.39 1044.09 1181.91C1044.86 1182.63 1045.59 1183.36 1046.28 1184.16C1046.34 1184.23 1046.48 1184.41 1046.62 1184.59C1045.75 1185.24 1045.35 1186.23 1045.78 1186.84C1045.89 1187.04 1046.12 1186.75 1045.91 1187.03C1045.9 1187.05 1045.97 1187.52 1045.97 1187.56C1045.96 1187.97 1045.85 1188.37 1045.72 1188.75C1045.41 1189.7 1044.93 1190.6 1044.44 1191.47C1042.3 1195.23 1039.55 1198.64 1036.81 1201.97C1035.07 1204.08 1033.24 1206.11 1031.53 1208.25C1030.14 1209.99 1028.83 1211.8 1027.47 1213.56C1024.38 1217.54 1021.24 1221.46 1018.16 1225.44C1010.33 1235.52 1002.7 1246.1 997.75 1257.94C996.342 1261.31 995.141 1264.78 994.188 1268.31C992.959 1272.86 992.02 1277.5 990.875 1282.06C988.797 1290.35 986.294 1298.55 983.688 1306.69C980.216 1317.52 976.099 1328.15 971.75 1338.66C968.422 1346.7 964.782 1354.6 961 1362.44C957.258 1370.19 953.306 1377.81 948.969 1385.25C946.73 1389.09 944.477 1392.92 942.062 1396.66C926.747 1420.33 905.683 1443.58 877.563 1451.28C873.139 1452.49 868.6 1453.32 864.031 1453.72C859.614 1454.1 855.17 1454.09 850.75 1453.75C841.495 1453.03 832.382 1450.84 823.719 1447.53C808.281 1441.64 794.323 1432.57 780.5 1423.66C767.611 1415.35 754.546 1406.92 743.844 1395.81C737.698 1389.43 732.537 1382.19 728.375 1374.38C719.716 1358.12 715.571 1340.07 709.375 1322.84C707.13 1316.6 704.612 1310.44 701.594 1304.53C698.927 1299.31 695.851 1294.3 692.531 1289.47C683.718 1276.65 673.35 1264.96 662.938 1253.44C645.622 1234.28 627.5 1215.59 612.906 1194.19C608.32 1187.46 604.057 1180.53 600.469 1173.22C592.981 1157.96 588.666 1141.13 590.188 1124.06C591.126 1113.54 594.225 1103.15 598.062 1093.34C602.19 1082.79 607.656 1072.72 614.812 1063.91C618.609 1059.23 622.881 1054.92 627.531 1051.09C650.003 1032.6 679.552 1027.06 707.938 1026.62C723.923 1026.38 739.91 1027.71 755.75 1029.78C775.251 1032.33 794.584 1036.03 813.875 1039.81C826.038 1042.2 838.199 1044.66 850.406 1046.81C861.618 1048.79 872.889 1050.48 884.156 1052.12C895.32 1053.75 906.907 1055.06 918.156 1053.59C928.056 1052.3 937.764 1048.71 947.844 1049.16C955.925 1049.51 963.447 1052.94 969.75 1057.91C971.829 1059.55 973.744 1061.37 975.406 1063.44C983.239 1073.16 983.154 1085.73 983 1097.62C982.848 1109.41 982.876 1120.95 986.938 1132.19C987.955 1135 989.152 1137.89 990.844 1140.38C992.614 1142.98 994.865 1145.24 997.188 1147.34C1000.08 1149.96 1003.18 1152.36 1006.31 1154.69C1014.69 1160.9 1023.54 1166.45 1032.03 1172.5C1036.09 1175.39 1040.19 1178.28 1043.84 1181.69C1043.24 1181.12 1042.69 1180.51 1042.06 1179.97C1037.14 1175.68 1031.72 1171.96 1026.38 1168.22C1018.37 1162.62 1010.19 1157.23 1002.59 1151.06C998.56 1147.79 994.398 1144.24 991.5 1139.88C990.462 1138.31 989.669 1136.6 988.938 1134.88C987.929 1132.5 987.11 1130.06 986.438 1127.56C983.253 1115.75 984.186 1103.58 984.25 1091.5C984.307 1080.75 983.238 1070.11 976.125 1061.59C974.357 1059.48 972.348 1057.58 970.156 1055.91C963.19 1050.59 955.397 1047.37 946.562 1047.34C935.72 1047.32 925.383 1051.35 914.594 1051.91C898.386 1052.75 882.253 1049.2 866.344 1046.62C852.075 1044.32 837.928 1041.39 823.781 1038.44C812.098 1036 800.416 1033.53 788.688 1031.31C780.089 1029.69 771.464 1028.16 762.812 1026.84C755.324 1025.71 747.817 1024.73 740.281 1023.97C730.569 1022.99 720.582 1022.36 710.562 1022.34Z" fill="#0e3969" stroke="none"/>
</g>
<g opacity="1">
<path d="M1169.54 1109.31C1174.29 1107.96 1185.28 1127.08 1187.77 1130.52C1201.78 1149.84 1213.93 1171.52 1234.89 1184.01C1299.62 1222.59 1414.57 1312.17 1360.02 1397.81C1349.43 1414.44 1334 1427.33 1318.78 1439.55C1304.73 1450.82 1290.23 1462.83 1273.5 1469.85C1238.09 1484.7 1205.8 1473.11 1170.24 1480.78C1105.8 1494.68 1023.6 1565.36 956.524 1521.73C841.608 1446.99 941.39 1321 982.305 1239.56C989.382 1225.47 998.115 1210.2 1002.12 1194.91C1006.36 1178.7 1002.76 1162 1016.24 1148.86C1046.03 1119.82 1023.14 1178.44 1060.44 1172.59C1076.76 1170.04 1155.89 1113.18 1169.54 1109.31Z" fill="#f4dffd" fill-rule="nonzero" stroke="none"/>
<path d="M1170.91 1107.53C1170.7 1107.52 1170.9 1107.54 1169.81 1107.66C1169.18 1107.55 1168.56 1108.21 1168.41 1109.12C1168.37 1109.32 1168.45 1109.47 1168.47 1109.66C1168.47 1109.67 1168.47 1109.68 1168.47 1109.69C1168.53 1110.33 1168.77 1110.89 1169.25 1110.97C1169.38 1110.94 1169.4 1110.67 1169.41 1110.94C1169.41 1111 1169.51 1110.95 1169.56 1110.97C1169.73 1111.01 1169.84 1111.05 1170 1111.12C1170.47 1111.35 1170.91 1111.64 1171.31 1111.97C1172.36 1112.82 1173.26 1113.84 1174.12 1114.88C1177.82 1119.29 1180.79 1124.31 1183.78 1129.22C1185.43 1131.92 1187.24 1134.5 1189 1137.12C1191.23 1140.46 1193.43 1143.82 1195.66 1147.16C1202.87 1158 1210.44 1168.9 1220.16 1177.69C1223.18 1180.42 1226.43 1182.93 1229.84 1185.16C1232.73 1187.04 1235.75 1188.72 1238.69 1190.53C1256.64 1201.57 1273.45 1214.37 1289.34 1228.19C1296.68 1234.56 1303.73 1241.19 1310.66 1248C1316.85 1254.09 1322.88 1260.34 1328.56 1266.91C1344.29 1285.08 1358.65 1305.3 1365.25 1328.72C1367.34 1336.12 1368.59 1343.81 1368.72 1351.5C1368.82 1357.41 1368.27 1363.34 1367.03 1369.12C1366.02 1373.82 1364.59 1378.41 1362.75 1382.84C1359.34 1391.09 1354.61 1398.79 1349 1405.72C1338.39 1418.83 1325.02 1429.38 1311.97 1439.94C1300.94 1448.86 1289.69 1457.85 1276.84 1464.06C1270.42 1467.17 1263.62 1469.46 1256.66 1470.97C1234.39 1475.8 1211.52 1472.54 1189 1474.28C1182.89 1474.75 1176.8 1475.57 1170.81 1476.88C1159.77 1479.28 1149.04 1483.06 1138.56 1487.25C1117.27 1495.76 1096.72 1506.05 1075.53 1514.81C1063.35 1519.85 1050.95 1524.46 1038.16 1527.69C1028.35 1530.16 1018.32 1531.9 1008.19 1532.16C994.116 1532.51 980.035 1529.85 967.375 1523.59C962.339 1521.11 957.625 1518.06 953.031 1514.84C947.028 1510.63 941.317 1505.99 936.062 1500.87C929.261 1494.25 923.247 1486.81 918.469 1478.59C915.634 1473.72 913.243 1468.59 911.344 1463.28C899.715 1430.79 907.787 1395.16 919.812 1364.03C921.868 1358.71 924.063 1353.46 926.375 1348.25C929.189 1341.9 932.159 1335.62 935.25 1329.41C939.378 1321.1 943.732 1312.9 948.156 1304.75C953.54 1294.84 959.057 1285 964.562 1275.16C969.194 1266.87 973.82 1258.58 978.25 1250.19C980.694 1245.56 983.017 1240.86 985.375 1236.19C990.017 1226.98 994.89 1217.86 998.75 1208.28C1000.79 1203.22 1002.61 1198.06 1003.78 1192.72C1005.67 1184.15 1005.58 1175.28 1007.53 1166.72C1008.7 1161.61 1010.66 1156.7 1013.91 1152.56C1015.52 1150.49 1017.42 1148.66 1019.37 1146.91C1021.21 1145.26 1023.15 1143.65 1025.34 1142.5C1026.05 1142.13 1026.81 1141.81 1027.59 1141.66C1031.53 1140.9 1032.93 1145.98 1033.75 1148.78C1033.86 1149.17 1033.95 1149.55 1034.06 1149.94C1034.27 1150.7 1034.52 1151.68 1034.72 1152.44C1034.95 1153.3 1035.2 1154.2 1035.44 1155.06C1037.27 1161.58 1040.03 1168.61 1046.47 1171.78C1047.67 1172.37 1048.94 1172.83 1050.25 1173.12C1052.09 1173.53 1053.99 1173.65 1055.88 1173.59C1057.75 1173.54 1059.65 1173.41 1061.47 1172.94C1065.26 1171.96 1068.86 1170.08 1072.31 1168.28C1076.66 1166.02 1080.89 1163.56 1085.09 1161.06C1101.92 1151.07 1118.26 1140.24 1134.72 1129.66C1143.29 1124.15 1151.85 1118.57 1160.72 1113.56C1162.92 1112.32 1165.15 1111.1 1167.47 1110.09C1167.06 1110.27 1166.65 1110.44 1166.25 1110.62C1164.36 1111.51 1162.51 1112.49 1160.69 1113.5C1154.1 1117.15 1147.74 1121.16 1141.34 1125.12C1122.07 1137.08 1103.2 1149.7 1083.56 1161.06C1079.46 1163.44 1075.3 1165.75 1071.06 1167.87C1068.03 1169.39 1064.9 1170.99 1061.59 1171.81C1058.74 1172.52 1055.53 1172.6 1052.62 1172.19C1051.06 1171.96 1049.51 1171.55 1048.06 1170.91C1040.09 1167.35 1037.96 1158.02 1036 1150.34C1035.78 1149.5 1035.58 1148.74 1035.34 1147.91C1034.38 1144.49 1032.92 1139.47 1028.41 1139.94C1027.65 1140.02 1026.9 1140.22 1026.19 1140.5C1022.9 1141.79 1020.07 1144.31 1017.5 1146.66C1012.93 1150.83 1009.46 1155.35 1007.22 1161.16C1003.04 1171.99 1003.92 1183.91 1000.94 1195.03C996.89 1210.1 988.982 1223.8 981.906 1237.59C974.988 1251.08 967.547 1264.28 960.031 1277.44C954.089 1287.84 948.119 1298.2 942.375 1308.72C937.878 1316.95 933.485 1325.25 929.312 1333.66C926.186 1339.95 923.173 1346.31 920.344 1352.75C918.015 1358.05 915.801 1363.4 913.75 1368.81C901.696 1400.62 894.397 1436.58 906.844 1469.44C909.129 1475.47 912.006 1481.26 915.438 1486.72C920.441 1494.68 926.584 1501.91 933.406 1508.38C938.466 1513.17 943.91 1517.54 949.594 1521.56C954.423 1524.98 959.404 1528.16 964.75 1530.72C974.638 1535.45 985.393 1538.2 996.312 1539.06C1010.94 1540.22 1025.65 1538.07 1039.78 1534.34C1075.21 1525.01 1107.27 1506.67 1141.28 1493.53C1150.52 1489.96 1159.98 1486.73 1169.69 1484.69C1175.25 1483.52 1180.89 1482.8 1186.56 1482.41C1199.22 1481.52 1211.92 1482.26 1224.59 1482.25C1235.69 1482.24 1246.81 1481.58 1257.66 1479.09C1266.39 1477.09 1274.82 1473.94 1282.75 1469.78C1295.33 1463.18 1306.57 1454.37 1317.66 1445.56C1328.08 1437.28 1338.55 1428.97 1347.91 1419.47C1359.34 1407.86 1368.91 1394.37 1374.5 1378.97C1376.36 1373.85 1377.72 1368.59 1378.62 1363.22C1379.72 1356.71 1380.05 1350.09 1379.66 1343.5C1379.13 1334.68 1377.33 1325.94 1374.53 1317.56C1369.11 1301.34 1360.21 1286.42 1349.91 1272.84C1340.83 1260.89 1330.53 1249.89 1319.47 1239.75C1303.7 1225.3 1286.19 1212.95 1268.5 1201C1260.65 1195.7 1252.6 1190.65 1244.56 1185.66C1240.48 1183.12 1236.26 1180.79 1232.34 1178C1220.27 1169.38 1211.02 1157.66 1202.31 1145.81C1199.35 1141.78 1196.47 1137.69 1193.5 1133.66C1192.2 1131.89 1190.84 1130.16 1189.56 1128.38C1187.99 1126.18 1186.54 1123.91 1185 1121.69C1184.12 1120.42 1183.23 1119.18 1182.31 1117.94C1181.72 1117.14 1181.02 1116.22 1180.41 1115.44C1178.41 1112.91 1176.15 1110.01 1173.31 1108.34C1172.58 1107.91 1171.77 1107.56 1170.91 1107.53ZM1168.47 1109.69C1168.33 1109.74 1168.2 1109.76 1168.06 1109.81C1167.88 1109.88 1167.71 1109.96 1167.53 1110.03C1167.82 1109.9 1168.16 1109.81 1168.47 1109.69Z" fill="#0e3969" stroke="none"/>
</g>
<g opacity="1">
<path d="M1182.61 1163.3C1204.58 1172.63 1228.42 1179.62 1245.28 1197.26C1297.36 1251.72 1410.39 1343.72 1481.66 1271.39C1495.5 1257.34 1504.61 1239.43 1513.12 1221.85C1520.96 1205.64 1529.42 1188.82 1532.51 1170.95C1539.06 1133.11 1520.55 1104.24 1520.07 1067.86C1519.2 1001.94 1569.7 906.012 1512.18 850.398C1413.62 755.116 1313.14 880.554 1242.92 938.652C1230.77 948.7 1217.84 960.628 1203.84 967.949C1188.99 975.714 1171.9 975.935 1162.11 992.012C1151.76 1009.01 1201.66 1038.58 1208.39 1075.39C1215.74 1115.56 1180.57 1162.44 1182.61 1163.3Z" fill="#f4dffd" fill-rule="nonzero" stroke="none"/>
<path d="M1431.69 813.25C1423.83 813.668 1416.01 814.946 1408.38 816.969C1390.78 821.63 1374.3 829.914 1358.97 839.594C1336.27 853.928 1315.78 871.442 1295.84 889.344C1282.32 901.493 1269.13 914.017 1255.56 926.125C1250.16 930.949 1244.66 935.639 1239.12 940.312C1230.8 947.345 1222.62 954.553 1213.66 960.781C1208.19 964.58 1202.39 967.853 1196.19 970.281C1185.73 974.374 1174.31 977.076 1166.22 985.406C1164.63 987.046 1163.18 988.862 1161.94 990.781C1161.35 991.696 1160.79 992.632 1160.41 993.656C1158.24 999.493 1161.9 1005.86 1165.09 1010.56C1165.79 1011.6 1166.5 1012.59 1167.25 1013.59C1168.25 1014.94 1169.29 1016.26 1170.34 1017.56C1182.46 1032.54 1196.9 1046.39 1204.5 1064.44C1209.25 1075.72 1209.83 1087.69 1208.03 1099.69C1205.51 1116.49 1198.69 1132.46 1190.81 1147.41C1192.46 1144.35 1194.2 1141.35 1195.72 1138.22C1203.77 1121.59 1210.41 1102.84 1209.78 1084.12C1209.64 1079.95 1209.14 1075.77 1208.12 1071.72C1206.16 1063.89 1202.44 1056.6 1198.09 1049.84C1191.17 1039.07 1182.58 1029.53 1174.47 1019.66C1173.14 1018.04 1171.81 1016.41 1170.53 1014.75C1169.55 1013.47 1168.62 1012.19 1167.69 1010.88C1164.65 1006.58 1160.56 1000.2 1161.91 994.656C1162.21 993.411 1162.83 992.343 1163.53 991.281C1164.86 989.264 1166.4 987.381 1168.16 985.719C1177.43 976.931 1190.96 975.196 1202.19 969.875C1207.16 967.515 1211.83 964.553 1216.34 961.406C1225.38 955.103 1233.65 947.824 1242.12 940.812C1253.84 931.124 1265.17 920.986 1276.44 910.781C1284.85 903.161 1293.25 895.548 1301.78 888.062C1308.76 881.94 1315.81 875.904 1323.03 870.062C1328.86 865.345 1334.78 860.728 1340.84 856.312C1345.42 852.977 1350.1 849.75 1354.84 846.656C1380.88 829.682 1411.39 815.749 1443.22 818.969C1448.76 819.529 1454.25 820.594 1459.59 822.156C1468.04 824.624 1476.1 828.305 1483.62 832.844C1490.91 837.236 1497.69 842.432 1504 848.125C1506.99 850.823 1509.91 853.582 1512.62 856.562C1516.25 860.543 1519.49 864.895 1522.28 869.5C1539.49 897.938 1537.01 933.189 1532.06 964.688C1531.1 970.813 1529.98 976.911 1528.81 983C1527.4 990.327 1525.89 997.624 1524.41 1004.94C1522.48 1014.45 1520.59 1023.98 1519.03 1033.56C1517.11 1045.38 1515.62 1057.36 1515.75 1069.34C1515.82 1075.4 1516.36 1081.44 1517.25 1087.44C1520.47 1109.16 1528.37 1130.12 1529.06 1152.22C1529.31 1160.23 1528.58 1168.28 1526.78 1176.09C1523.29 1191.28 1516.25 1205.37 1509.44 1219.28C1498.83 1240.94 1487.78 1263.07 1467.88 1277.75C1464.79 1280.03 1461.55 1282.08 1458.16 1283.88C1434.22 1296.56 1406.56 1294.08 1381.66 1285.75C1369 1281.51 1356.95 1275.81 1345.16 1269.59C1334.22 1263.82 1323.65 1257.44 1313.38 1250.56C1308.27 1247.15 1303.19 1243.67 1298.28 1239.97C1286.69 1231.24 1275.67 1221.78 1265.16 1211.78C1260.48 1207.34 1255.88 1202.83 1251.31 1198.28C1249.45 1196.43 1247.64 1194.51 1245.72 1192.72C1243.48 1190.63 1241.12 1188.67 1238.66 1186.84C1228.5 1179.33 1216.68 1174.22 1204.94 1169.75C1200.22 1167.96 1195.5 1166.19 1190.78 1164.41C1189.38 1163.88 1187.96 1163.36 1186.56 1162.81C1186.1 1162.63 1186.57 1162.82 1183.78 1161.72C1183.6 1161.58 1183.33 1161.65 1183.09 1161.66C1182.55 1161.67 1181.98 1161.89 1181.53 1162.5C1180.89 1163.38 1180.83 1164.46 1181.44 1164.91C1182.79 1165.51 1182.42 1165.13 1182.81 1165.5C1183.17 1165.84 1183.7 1165.89 1184.16 1166.09C1184.61 1166.29 1185.07 1166.52 1185.53 1166.72C1187.81 1167.72 1190.11 1168.68 1192.41 1169.66C1201.51 1173.53 1210.67 1177.35 1219.34 1182.12C1226.15 1185.87 1232.7 1190.22 1238.44 1195.47C1242.92 1199.57 1246.87 1204.25 1251.16 1208.56C1258.96 1216.41 1267.19 1223.84 1275.41 1231.25C1283.25 1238.33 1291.33 1245.12 1299.53 1251.78C1305.96 1257 1312.56 1262.06 1319.34 1266.81C1325.29 1270.98 1331.35 1274.98 1337.59 1278.69C1342.89 1281.83 1348.39 1284.67 1353.94 1287.34C1382.91 1301.29 1417.01 1309.08 1448.25 1298.03C1453.95 1296.02 1459.44 1293.42 1464.62 1290.31C1472.86 1285.37 1480.33 1279.17 1486.88 1272.16C1499.19 1258.97 1507.82 1242.93 1515.66 1226.81C1523.79 1210.08 1532.49 1192.98 1536.47 1174.69C1539.11 1162.52 1539.3 1150.03 1537.62 1137.72C1535.32 1120.79 1529.8 1104.52 1526.69 1087.75C1524.88 1077.98 1524.09 1068.12 1524.5 1058.19C1525.18 1041.83 1528.23 1025.63 1531.34 1009.59C1535.15 989.998 1539.34 970.502 1541.88 950.688C1544.35 931.378 1545.06 911.275 1540.47 892.219C1537.37 879.359 1531.74 867.207 1523.47 856.844C1517.06 848.808 1509.15 841.835 1500.94 835.688C1487.39 825.544 1471.92 817.895 1455.22 814.75C1447.43 813.284 1439.54 812.832 1431.69 813.25ZM1183.09 1161.66C1183.34 1161.15 1183.6 1160.65 1183.88 1160.16C1184.85 1158.38 1185.84 1156.61 1186.84 1154.84C1188.23 1152.4 1189.48 1149.88 1190.81 1147.41C1188.63 1151.55 1186.3 1155.6 1184.06 1159.72C1183.72 1160.35 1183.4 1161.01 1183.09 1161.66ZM1182.56 1163.19C1182.59 1163.24 1182.63 1163.31 1182.62 1163.31C1182.62 1163.31 1182.79 1163.01 1182.56 1163.25C1182.56 1163.25 1182.56 1163.2 1182.56 1163.19Z" fill="#0e3969" stroke="none"/>
</g>
</g>
<g opacity="1">
<path d="M1108.7 908.414C1121.98 849.451 1188.93 848.271 1224.77 858.31C1256.61 867.229 1306.39 916.742 1277.35 975.7C1270.09 990.442 1241.85 993.787 1227.34 1000.26C1221.72 1002.77 1181.01 1000.15 1186.72 1002.44C1209.42 1011.55 1245.85 990.762 1271.22 1001.64C1315.06 1020.44 1344.39 1099.94 1328.2 1144.85C1309.36 1197.1 1251.77 1185.86 1215.26 1163.4C1205.6 1157.46 1199.79 1136.34 1189.52 1141.14C1186.1 1142.74 1195.53 1170.89 1195.95 1174.93C1198.26 1196.95 1191.36 1240.6 1172.16 1255.46C1137.65 1282.17 1040.13 1280.91 1025.91 1232.62C1020.31 1213.62 1017.6 1192.53 1018.06 1172.77C1018.23 1165.19 1027.39 1154.59 1021.18 1150.24C1014.41 1145.5 983.69 1165.36 975.984 1167.71C938.117 1179.23 907.84 1189.89 879.385 1155.49C833.789 1100.35 860.945 1037.67 915.469 1016.23C929.065 1010.88 944.001 1007.74 958.592 1007.03C961.893 1006.87 968.658 1010.41 968.504 1007.11C968.424 1005.37 903.013 954.931 936.537 881.998C955.957 839.749 1004.89 831.751 1035.49 836.529C1075.1 842.714 1106.7 868.4 1108.7 906.079" fill="#5309cd" fill-rule="nonzero" opacity="1" stroke="none"/>
<g opacity="1">
<path d="M1104.09 1042.81C1102.81 1042.76 1101.52 1042.98 1100.25 1043.16C1099.95 1043.05 1099.6 1043.31 1099.44 1043.75C1099.28 1044.19 1099.39 1044.64 1099.69 1044.75C1101.26 1045.01 1102.72 1045.41 1104.25 1045.84C1105.06 1046.07 1105.91 1046.26 1106.69 1046.59C1108.24 1047.25 1109.52 1048.37 1111.03 1049.09C1113.67 1050.36 1116.51 1051.14 1119.12 1052.47C1123.28 1054.58 1127.17 1057.19 1131.38 1059.22C1133.92 1060.45 1136.52 1061.1 1139.34 1061.16C1142.56 1061.22 1145.84 1060.55 1148.94 1061.72C1150.83 1062.44 1152.28 1064.25 1153.66 1065.66C1156.2 1068.25 1158.67 1070.92 1161.44 1073.28C1162.28 1074 1163.13 1074.68 1164.03 1075.31C1166.63 1077.14 1170.56 1079.26 1173.31 1076.5C1174.01 1075.8 1174.46 1074.97 1174.88 1074.09C1174.41 1074.94 1173.91 1075.73 1173.19 1076.38C1170.09 1079.14 1165.86 1075.6 1163.62 1073.47C1163.23 1073.09 1162.85 1072.71 1162.47 1072.31C1162.08 1071.91 1161.69 1071.51 1161.31 1071.09C1159.1 1068.67 1157.12 1066.06 1155.06 1063.5C1153.65 1061.74 1152.32 1059.94 1150.22 1059C1147.77 1057.9 1145.03 1057.74 1142.38 1057.66C1140.99 1057.61 1139.59 1057.64 1138.22 1057.38C1136.78 1057.1 1135.43 1056.5 1134.16 1055.78C1130.15 1053.51 1126.68 1050.38 1122.69 1048.09C1120.8 1047.01 1118.79 1046.22 1116.78 1045.41C1115.51 1044.89 1114.23 1044.44 1112.88 1044.19C1111.45 1043.92 1110 1043.88 1108.56 1043.62C1107.07 1043.36 1105.62 1042.87 1104.09 1042.81Z" fill="#eccff8" stroke="none"/>
</g>
<g opacity="1">
<path d="M1090.44 1050.84C1089.98 1051.07 1089.75 1051.5 1089.91 1051.81C1089.95 1053.46 1089.86 1055.11 1090 1056.75C1090.09 1057.84 1090.18 1058.82 1089.94 1059.91C1089.68 1061.08 1089.1 1062.18 1088.72 1063.31C1087.43 1067.18 1085.86 1071.7 1086.81 1075.78C1088.47 1082.91 1096.38 1085.39 1100.12 1091.03C1100.74 1091.96 1101.16 1093.11 1101.53 1094.16C1102.4 1096.58 1102.87 1099.11 1103.19 1101.66C1104 1108.27 1103.73 1114.98 1103.94 1121.62C1104.35 1114.27 1105.33 1106.91 1105 1099.53C1104.88 1096.82 1104.56 1094.09 1103.84 1091.47C1103.67 1090.82 1103.31 1089.61 1103.03 1089C1102.14 1087.09 1100.98 1085.5 1099.44 1084.06C1096.46 1081.28 1092.77 1078.98 1091.69 1074.78C1090.55 1070.37 1093.25 1066.32 1093.84 1062.06C1094.06 1060.52 1093.68 1059.12 1093.38 1057.62C1093.23 1056.91 1093.18 1056.19 1093.06 1055.47C1092.81 1053.92 1092.15 1052.43 1091.53 1051C1091.38 1050.69 1090.89 1050.62 1090.44 1050.84Z" fill="#eccff8" stroke="none"/>
</g>
<g opacity="1">
<path d="M1061.06 1040.28C1059.78 1040.41 1058.52 1040.64 1057.31 1041.09C1053.44 1042.54 1051.22 1045.86 1049.84 1049.59C1049.07 1051.68 1048.59 1053.95 1047.5 1055.91C1046.71 1057.33 1045.68 1058.58 1044.66 1059.84C1042.63 1062.33 1040.49 1064.68 1038.06 1066.78C1036.91 1067.77 1035.73 1068.71 1034.5 1069.59C1029.75 1072.99 1021.8 1077.33 1016.56 1072.53C1016 1072.01 1015.53 1071.37 1015.12 1070.72C1014.43 1069.59 1013.95 1068.36 1013.56 1067.09C1013.89 1068.58 1014.31 1070.02 1015.06 1071.34C1015.52 1072.14 1016.07 1072.91 1016.75 1073.53C1021.26 1077.69 1028.6 1074.82 1033.19 1072.34C1033.92 1071.95 1034.54 1071.59 1035.25 1071.16C1036.29 1070.52 1037.29 1069.83 1038.28 1069.12C1043.06 1065.73 1047.75 1061.7 1050.75 1056.59C1052.21 1054.11 1052.96 1051.29 1054.25 1048.72C1054.81 1047.62 1055.6 1046.26 1056.78 1045.72C1059.78 1044.35 1063.62 1045.39 1066.72 1045.75C1067.91 1045.89 1069.12 1045.87 1070.31 1046.03C1071.65 1046.21 1072.76 1046.72 1073.97 1047.25C1075.49 1047.92 1076.9 1048.72 1078.31 1049.59C1078.56 1049.85 1079.09 1049.77 1079.47 1049.41C1079.85 1049.05 1079.94 1048.54 1079.69 1048.28C1078.65 1046.92 1077.59 1045.51 1076.09 1044.62C1075.19 1044.09 1074.17 1043.7 1073.25 1043.19C1072.25 1042.63 1071.32 1041.96 1070.28 1041.47C1069.16 1040.93 1067.97 1040.65 1066.75 1040.47C1064.88 1040.19 1062.95 1040.1 1061.06 1040.28Z" fill="#eccff8" stroke="none"/>
</g>
<g opacity="1">
<path d="M1035.5 965.656C1042.37 973.43 1045.42 983.521 1048.78 993.125C1049.97 996.516 1051.07 1000 1052.62 1003.25C1053.53 1005.15 1054.66 1006.96 1055.81 1008.72C1056.78 1010.19 1057.8 1011.48 1059 1012.78C1059.45 1013.27 1059.85 1013.8 1060.34 1014.25C1060.83 1014.7 1061.41 1015.06 1061.94 1015.47C1064.72 1017.61 1067.78 1019.23 1070.69 1021.19C1072.65 1022.51 1074.26 1024.1 1076 1025.69C1076.77 1026.38 1077.63 1027.06 1078.28 1027.88C1078.97 1028.74 1079.21 1029.69 1079.56 1030.72C1080.1 1032.26 1080.83 1033.74 1081.44 1035.25C1081.59 1035.56 1082.07 1035.66 1082.53 1035.44C1082.99 1035.22 1083.25 1034.78 1083.09 1034.47C1083.01 1032.69 1082.96 1030.86 1082.56 1029.12C1082.3 1027.97 1081.84 1026.82 1081.47 1025.69C1080.73 1023.46 1080.27 1021.68 1078.53 1019.94C1075.73 1017.13 1072.04 1015.38 1068.56 1013.59C1066.98 1012.79 1065.17 1011.91 1063.75 1010.84C1063.27 1010.48 1062.88 1010.03 1062.44 1009.62C1061.45 1008.72 1060.67 1007.93 1059.88 1006.88C1058.44 1004.98 1057.3 1002.93 1056.12 1000.88C1054.2 997.527 1052.39 994.154 1050.75 990.656C1046.6 981.799 1042.72 972.518 1035.5 965.656Z" fill="#eccff8" stroke="none"/>
</g>
<g opacity="1">
<path d="M1121.97 999.969C1116.57 1001.84 1111.01 1003.35 1105.84 1005.84C1104.38 1006.55 1102.9 1007.31 1101.56 1008.25C1098.81 1010.19 1096.16 1013.18 1094.66 1016.22C1094.09 1017.37 1093.64 1018.57 1093.34 1019.81C1093.02 1021.15 1092.82 1022.65 1092.81 1024.03C1092.81 1024.9 1093.01 1025.79 1093.34 1026.59C1093.51 1027 1093.76 1027.36 1093.88 1027.78C1093.99 1028.2 1093.97 1028.66 1094.03 1029.09C1094.15 1029.94 1094.52 1030.76 1094.81 1031.56C1094.93 1031.88 1095.38 1032.01 1095.84 1031.84C1096.31 1031.68 1096.61 1031.29 1096.5 1030.97C1096.74 1029.99 1097.04 1028.98 1097.09 1027.97C1097.12 1027.52 1097.06 1027.04 1097.12 1026.59C1097.3 1025.45 1097.75 1024.82 1097.97 1023.69C1098.19 1022.52 1098.09 1021.25 1098.19 1020.06C1098.32 1018.51 1098.61 1016.91 1099.22 1015.47C1100.2 1013.15 1102.15 1011.5 1104 1009.88C1109.1 1005.4 1115.92 1002.9 1121.97 999.969Z" fill="#eccff8" stroke="none"/>
</g>
</g>
</g>
</g>
<g opacity="1">
<path d="M1979.07 458.864C1936.13 458.864 1895.02 457.165 1856.58 454.177L1899.04 402.042L1793.75 447.799C1680.08 433.244 1603.24 405.768 1603.24 374.214C1603.24 327.47 1771.52 289.584 1979.07 289.584C2186.62 289.584 2354.86 327.47 2354.86 374.214C2354.86 420.958 2186.62 458.864 1979.07 458.864Z" fill="#faefff" fill-rule="nonzero" opacity="1" stroke="#0e3969" stroke-linecap="butt" stroke-linejoin="round" stroke-width="15.1875"/>
<g opacity="1">
<path d="M2231.46 213.814C2231.46 213.814 1903.22 205.034 1955.99 329.656C2008.76 454.278 2231.46 213.814 2231.46 213.814Z" fill="#faefff" fill-rule="nonzero" opacity="1" stroke="#0e3969" stroke-linecap="butt" stroke-linejoin="round" stroke-width="14.3029"/>
<path d="M1753.01 213.814C1753.01 213.814 2081.24 205.034 2028.47 329.656C1975.7 454.278 1753.01 213.814 1753.01 213.814Z" fill="#faefff" fill-rule="nonzero" opacity="1" stroke="#0e3969" stroke-linecap="butt" stroke-linejoin="round" stroke-width="14.3029"/>
<path d="M2195.55 142.238C2195.55 142.238 1878.73 228.496 1965.2 332.604C2051.67 436.712 2195.55 142.238 2195.55 142.238Z" fill="#faefff" fill-rule="nonzero" opacity="1" stroke="#0e3969" stroke-linecap="butt" stroke-linejoin="round" stroke-width="14.3029"/>
<path d="M2142.81 103.327C2142.81 103.327 1864.33 277.292 1977.15 352.038C2089.97 426.783 2142.81 103.327 2142.81 103.327Z" fill="#faefff" fill-rule="nonzero" opacity="1" stroke="#0e3969" stroke-linecap="butt" stroke-linejoin="round" stroke-width="14.3029"/>
<path d="M1788.92 142.238C1788.92 142.238 2105.74 228.496 2019.27 332.604C1932.8 436.712 1788.92 142.238 1788.92 142.238Z" fill="#faefff" fill-rule="nonzero" opacity="1" stroke="#0e3969" stroke-linecap="butt" stroke-linejoin="round" stroke-width="14.3029"/>
<path d="M2066.16 74.0746C2066.16 74.0746 1849.69 320.964 1979.27 359.995C2108.86 399.026 2066.16 74.0746 2066.16 74.0746Z" fill="#faefff" fill-rule="nonzero" opacity="1" stroke="#0e3969" stroke-linecap="butt" stroke-linejoin="round" stroke-width="14.3029"/>
<path d="M1841.65 103.327C1841.65 103.327 2120.13 277.292 2007.31 352.038C1894.49 426.783 1841.65 103.327 1841.65 103.327Z" fill="#faefff" fill-rule="nonzero" opacity="1" stroke="#0e3969" stroke-linecap="butt" stroke-linejoin="round" stroke-width="14.3029"/>
<path d="M1918.3 74.0746C1918.3 74.0746 2134.78 320.964 2005.19 359.995C1875.61 399.026 1918.3 74.0746 1918.3 74.0746Z" fill="#faefff" fill-rule="nonzero" opacity="1" stroke="#0e3969" stroke-linecap="butt" stroke-linejoin="round" stroke-width="14.3029"/>
<path d="M1985.83 66.6564C1985.83 66.6564 2121.91 365.488 1986.57 365.488C1851.24 365.488 1985.83 66.6564 1985.83 66.6564Z" fill="#faefff" fill-rule="nonzero" opacity="1" stroke="#0e3969" stroke-linecap="butt" stroke-linejoin="round" stroke-width="14.3029"/>
</g>
<path d="M1635.04 259.303C1600.4 285.95 1840.36 397.541 1987.78 397.541C2135.2 397.541 2372.33 285.95 2337.69 259.303C2274.73 307.745 2103.93 273.456 2018.06 277.792C2008.12 278.294 1998.02 365.418 1987.78 365.418C1974.5 365.418 1961.45 278.118 1948.7 277.281C1866.63 271.896 1695.84 306.082 1635.04 259.303Z" fill="#5309cd" fill-rule="nonzero" opacity="1" stroke="#0e3969" stroke-linecap="butt" stroke-linejoin="round" stroke-width="14.3029"/>
</g>
<path d="M2169.64 1123.63C2169.64 1115.29 2176.4 1108.53 2184.74 1108.53C2193.08 1108.53 2199.84 1115.29 2199.84 1123.63C2199.84 1131.96 2193.08 1138.72 2184.74 1138.72C2176.4 1138.72 2169.64 1131.96 2169.64 1123.63Z" fill="#eccff8" fill-rule="nonzero" opacity="1" stroke="#eccff8" stroke-linecap="butt" stroke-linejoin="round" stroke-width="2.89199"/>
<path d="M2326.16 860.279C2326.16 852.353 2332.58 845.929 2340.51 845.929C2348.43 845.929 2354.86 852.353 2354.86 860.279C2354.86 868.204 2348.43 874.628 2340.51 874.628C2332.58 874.628 2326.16 868.204 2326.16 860.279Z" fill="#eccff8" fill-rule="nonzero" opacity="1" stroke="#eccff8" stroke-linecap="butt" stroke-linejoin="round" stroke-width="2.74865"/>
<path d="M2199.84 753.821C2199.84 735.142 2214.98 720 2233.66 720C2252.34 720 2267.48 735.142 2267.48 753.821C2267.48 772.499 2252.34 787.641 2233.66 787.641C2214.98 787.641 2199.84 772.499 2199.84 753.821Z" fill="#eccff8" fill-rule="nonzero" opacity="1" stroke="#eccff8" stroke-linecap="butt" stroke-linejoin="round" stroke-width="6.47821"/>
<path d="M196.128 233.011C196.128 216.581 209.447 203.261 225.877 203.261C242.308 203.261 255.627 216.581 255.627 233.011C255.627 249.441 242.308 262.76 225.877 262.76C209.447 262.76 196.128 249.441 196.128 233.011Z" fill="#eccff8" fill-rule="nonzero" opacity="1" stroke="#eccff8" stroke-linecap="butt" stroke-linejoin="round" stroke-width="5.69836"/>
<path d="M401.97 125.547C401.97 117.332 408.63 110.672 416.845 110.672C425.06 110.672 431.719 117.332 431.719 125.547C431.719 133.762 425.06 140.421 416.845 140.421C408.63 140.421 401.97 133.762 401.97 125.547Z" fill="#eccff8" fill-rule="nonzero" opacity="1" stroke="#eccff8" stroke-linecap="butt" stroke-linejoin="round" stroke-width="2.84918"/>
</g>
</svg>
