<?xml version="1.0" encoding="UTF-8" standalone="no"?>
<!DOCTYPE svg PUBLIC "-//W3C//DTD SVG 1.1//EN" "http://www.w3.org/Graphics/SVG/1.1/DTD/svg11.dtd">
<!-- Created with Vectornator (http://vectornator.io/) -->
<svg height="1024.0px" stroke-miterlimit="10" style="fill-rule:nonzero;clip-rule:evenodd;stroke-linecap:round;stroke-linejoin:round;" version="1.1" viewBox="0 0 1024 1024" width="1024.0px" xml:space="preserve" xmlns="http://www.w3.org/2000/svg" xmlns:xlink="http://www.w3.org/1999/xlink">
<defs/>
<g id="Layer-1">
<path d="M374.562 153.625C361.668 153.1 348.936 163.277 349.719 178.594L357.594 332.708C358.311 346.739 346.738 358.311 332.708 357.594L178.594 349.719C156.314 348.581 144.91 376.051 161.469 391L275.094 493.562L748.906 493.562L862.531 391C879.09 376.051 867.686 348.581 845.406 349.719L691.292 357.594C677.261 358.311 665.689 346.738 666.406 332.708L674.281 178.594C675.419 156.314 647.949 144.91 633 161.469L529.599 276.024C520.184 286.454 503.816 286.454 494.401 276.024L391 161.469C386.328 156.294 380.423 153.863 374.562 153.625ZM275.094 530.438L161.469 633C144.91 647.949 156.314 675.419 178.594 674.281L332.708 666.405C346.739 665.688 358.311 677.261 357.594 691.292L349.719 845.406C348.581 867.686 376.051 879.09 391 862.531L494.401 747.976C503.816 737.546 520.184 737.546 529.599 747.976L633 862.531C647.949 879.09 675.419 867.686 674.281 845.406L666.405 691.292C665.688 677.261 677.261 665.689 691.292 666.406L845.406 674.281C867.686 675.419 879.09 647.949 862.531 633L748.906 530.438L275.094 530.438Z" fill="#8743c5" fill-rule="nonzero" opacity="1" stroke="none"/>
<path d="M412 512C412 456.772 456.772 412 512 412C567.228 412 612 456.772 612 512C612 567.228 567.228 612 512 612C456.772 612 412 567.228 412 512Z" fill="#f5891d" fill-rule="nonzero" opacity="1" stroke="none"/>
</g>
</svg>
