<?xml version="1.0" encoding="UTF-8" standalone="no"?>
<!DOCTYPE svg PUBLIC "-//W3C//DTD SVG 1.1//EN" "http://www.w3.org/Graphics/SVG/1.1/DTD/svg11.dtd">
<!-- Created with Vectornator (http://vectornator.io/) -->
<svg height="100%" stroke-miterlimit="10" style="fill-rule:nonzero;clip-rule:evenodd;stroke-linecap:round;stroke-linejoin:round;" version="1.1" viewBox="0 0 1024 1024" width="100%" xml:space="preserve" xmlns="http://www.w3.org/2000/svg" xmlns:xlink="http://www.w3.org/1999/xlink">
<defs/>
<g id="Layer-1">
<g opacity="1">
<path d="M512 143.125C502.898 143.125 493.808 147.819 489.031 157.219L414.031 304.812C412.214 308.388 409.57 311.462 406.344 313.844L225.531 447.344C205.521 462.117 215.971 493.875 240.844 493.875L393.719 493.875C402.474 436.329 452.009 392.187 512 392.188C571.991 392.188 621.526 436.329 630.281 493.875L783.156 493.875C808.029 493.875 818.479 462.117 798.469 447.344L617.656 313.844C614.43 311.461 611.786 308.388 609.969 304.812L534.969 157.219C530.192 147.819 521.102 143.125 512 143.125Z" fill="#8743c5" fill-rule="nonzero" opacity="1" stroke="none"/>
<path d="M240.844 530.125C215.971 530.125 205.521 561.883 225.531 576.656L406.344 710.156C409.57 712.538 412.214 715.612 414.031 719.187L489.031 866.781C498.585 885.581 525.415 885.581 534.969 866.781L609.969 719.188C611.786 715.612 614.43 712.539 617.656 710.156L798.469 576.656C818.479 561.883 808.029 530.125 783.156 530.125L630.281 530.125C621.526 587.671 571.991 631.812 512 631.812C452.009 631.812 402.474 587.671 393.719 530.125L240.844 530.125Z" fill="#8743c5" fill-rule="nonzero" opacity="1" stroke="none"/>
</g>
<path d="M595.553 512C595.553 501.989 603.669 493.873 613.68 493.873L613.68 493.873C623.692 493.873 631.808 501.989 631.808 512L631.808 512C631.808 522.011 623.692 530.127 613.68 530.127L613.68 530.127C603.669 530.127 595.553 522.011 595.553 512L595.553 512Z" fill="#6f28b1" fill-rule="nonzero" opacity="1" stroke="none"/>
<path d="M392.192 512C392.192 501.989 400.308 493.873 410.32 493.873L410.32 493.873C420.331 493.873 428.447 501.989 428.447 512L428.447 512C428.447 522.011 420.331 530.127 410.32 530.127L410.32 530.127C400.308 530.127 392.192 522.011 392.192 512L392.192 512Z" fill="#6f28b1" fill-rule="nonzero" opacity="1" stroke="none"/>
<path d="M428.447 512C428.447 465.855 465.855 428.447 512 428.447C558.145 428.447 595.553 465.855 595.553 512C595.553 558.145 558.145 595.553 512 595.553C465.855 595.553 428.447 558.145 428.447 512Z" fill="#fa7d56" fill-rule="nonzero" opacity="1" stroke="none"/>
</g>
</svg>
