<?xml version="1.0" encoding="UTF-8" standalone="no"?>
<!DOCTYPE svg PUBLIC "-//W3C//DTD SVG 1.1//EN" "http://www.w3.org/Graphics/SVG/1.1/DTD/svg11.dtd">
<!-- Created with Vectornator (http://vectornator.io/) -->
<svg height="100%" stroke-miterlimit="10" style="fill-rule:nonzero;clip-rule:evenodd;stroke-linecap:round;stroke-linejoin:round;" version="1.1" viewBox="0 0 1024 1024" width="100%" xml:space="preserve" xmlns="http://www.w3.org/2000/svg" xmlns:xlink="http://www.w3.org/1999/xlink">
<defs>
<linearGradient gradientTransform="matrix(559.491 -56.8506 56.8506 559.491 496.233 550.802)" gradientUnits="userSpaceOnUse" id="LinearGradient" x1="0" x2="1" y1="0" y2="0">
<stop offset="0" stop-color="#5309cd"/>
<stop offset="1" stop-color="#500c5a"/>
</linearGradient>
</defs>
<g id="Layer-1">
<path d="M523.434 741.143C517.317 734.368 506.683 734.368 500.566 741.143L375.342 879.848C365.628 890.607 347.785 883.216 348.524 868.74L358.056 682.113C358.522 672.997 351.003 665.478 341.887 665.944L155.26 675.476C140.784 676.215 133.393 658.372 144.152 648.658L282.857 523.434C289.632 517.317 289.632 506.683 282.857 500.566L144.152 375.342C133.393 365.628 140.784 347.785 155.26 348.524L341.887 358.056C351.003 358.522 358.522 351.003 358.056 341.887L348.524 155.26C347.785 140.784 365.628 133.393 375.342 144.152L500.566 282.857C506.683 289.632 517.317 289.632 523.434 282.857L648.658 144.152C658.372 133.393 676.215 140.784 675.476 155.26L665.944 341.887C665.478 351.003 672.997 358.522 682.113 358.056L868.74 348.524C883.216 347.785 890.607 365.628 879.848 375.342L741.143 500.566C734.368 506.683 734.368 517.317 741.143 523.434L879.848 648.658C890.607 658.372 883.216 676.215 868.74 675.476L682.113 665.944C672.997 665.478 665.478 672.997 665.944 682.113L675.476 868.74C676.215 883.216 658.372 890.607 648.658 879.848L523.434 741.143Z" fill="url(#LinearGradient)" fill-rule="nonzero" opacity="1" stroke="none"/>
<path d="M412 512C412 456.772 456.772 412 512 412C567.228 412 612 456.772 612 512C612 567.228 567.228 612 512 612C456.772 612 412 567.228 412 512Z" fill="#e94420" fill-rule="nonzero" opacity="1" stroke="none"/>
</g>
</svg>
