<?xml version="1.0" encoding="UTF-8" standalone="no"?>
<!DOCTYPE svg PUBLIC "-//W3C//DTD SVG 1.1//EN" "http://www.w3.org/Graphics/SVG/1.1/DTD/svg11.dtd">
<!-- Created with Vectornator (http://vectornator.io/) -->
<svg height="100%" stroke-miterlimit="10" style="fill-rule:nonzero;clip-rule:evenodd;stroke-linecap:round;stroke-linejoin:round;" version="1.1" viewBox="0 0 1024 1024" width="100%" xml:space="preserve" xmlns="http://www.w3.org/2000/svg" xmlns:xlink="http://www.w3.org/1999/xlink">
<defs/>
<g id="Layer-1">
<path d="M363.42 153.643C351.05 158.772 340.003 167.121 331.594 178.138L271.375 257.029C267.211 262.484 262.339 267.359 256.888 271.527L178.004 331.834C155.987 348.667 144.673 376.004 148.358 403.474L160.44 493.552L863.896 490.626L875.569 403.233C879.239 375.757 867.905 348.42 845.87 331.601L766.971 271.376C761.516 267.212 756.641 262.34 752.473 256.888L692.166 178.006C675.333 155.987 647.995 144.674 620.525 148.359L522.112 161.562C515.311 162.474 508.418 162.476 501.616 161.568L403.242 148.432C389.504 146.597 375.791 148.514 363.42 153.643ZM160.496 530.404L148.429 620.769C144.76 648.245 156.094 675.58 178.128 692.399L257.028 752.625C262.483 756.789 267.359 761.661 271.526 767.112L331.833 845.995C348.666 868.013 376.005 879.326 403.474 875.641L501.886 862.439C508.688 861.526 515.58 861.524 522.382 862.433L620.768 875.57C648.244 879.239 675.579 867.906 692.398 845.872L752.624 766.972C756.788 761.517 761.66 756.641 767.112 752.473L845.996 692.165C868.013 675.334 879.326 647.998 875.644 620.531L863.168 527.464L160.496 530.404Z" fill="#8743c5" fill-rule="nonzero" opacity="1" stroke="none"/>
<path d="M412 512C412 456.772 456.772 412 512 412C567.228 412 612 456.772 612 512C612 567.228 567.228 612 512 612C456.772 612 412 567.228 412 512Z" fill="#fa7d56" fill-rule="nonzero" opacity="1" stroke="none"/>
</g>
</svg>
