<?xml version="1.0" encoding="UTF-8" standalone="no"?>
<!DOCTYPE svg PUBLIC "-//W3C//DTD SVG 1.1//EN" "http://www.w3.org/Graphics/SVG/1.1/DTD/svg11.dtd">
<!-- Created with Vectornator (http://vectornator.io/) -->
<svg height="100%" stroke-miterlimit="10" style="fill-rule:nonzero;clip-rule:evenodd;stroke-linecap:round;stroke-linejoin:round;" version="1.1" viewBox="0 0 1024 1024" width="100%" xml:space="preserve" xmlns="http://www.w3.org/2000/svg" xmlns:xlink="http://www.w3.org/1999/xlink">
<defs/>
<g id="Layer-1">
<path d="M374.562 153.625C361.668 153.1 348.936 163.277 349.719 178.594L356.656 314.125C357.881 338.098 338.098 357.881 314.125 356.656L178.594 349.719C156.314 348.581 144.91 376.051 161.469 391L263.531 483.125C270.975 489.844 280.629 493.562 290.656 493.562L393.75 493.562C402.636 436.168 452.116 392.187 512 392.188C571.884 392.188 621.364 436.168 630.25 493.562L733.344 493.562C743.371 493.562 753.025 489.844 760.469 483.125L862.531 391C879.09 376.051 867.686 348.581 845.406 349.719L709.875 356.656C685.902 357.881 666.119 338.098 667.344 314.125L674.281 178.594C675.419 156.314 647.949 144.91 633 161.469L542.062 262.219C525.977 280.04 498.023 280.04 481.938 262.219L391 161.469C386.328 156.294 380.423 153.863 374.562 153.625Z" fill="#8743c5" fill-rule="nonzero" opacity="1" stroke="none"/>
<path d="M290.656 530.438C280.629 530.438 270.975 534.156 263.531 540.875L161.469 633C144.91 647.949 156.314 675.419 178.594 674.281L314.125 667.344C338.098 666.119 357.881 685.902 356.656 709.875L349.719 845.406C348.581 867.686 376.051 879.09 391 862.531L481.938 761.781C498.023 743.96 525.977 743.96 542.062 761.781L633 862.531C647.949 879.09 675.419 867.686 674.281 845.406L667.344 709.875C666.119 685.902 685.901 666.119 709.875 667.344L845.406 674.281C867.686 675.419 879.09 647.949 862.531 633L760.469 540.875C753.025 534.156 743.371 530.438 733.344 530.438L630.25 530.438C621.364 587.832 571.884 631.812 512 631.812C452.116 631.812 402.636 587.832 393.75 530.438L290.656 530.438Z" fill="#8743c5" fill-rule="nonzero" opacity="1" stroke="none"/>
<path d="M595.553 512C595.553 501.989 603.669 493.873 613.68 493.873L613.68 493.873C623.692 493.873 631.808 501.989 631.808 512L631.808 512C631.808 522.011 623.692 530.127 613.68 530.127L613.68 530.127C603.669 530.127 595.553 522.011 595.553 512L595.553 512Z" fill="#6f28b1" fill-rule="nonzero" opacity="1" stroke="none"/>
<path d="M392.192 512C392.192 501.989 400.308 493.873 410.32 493.873L410.32 493.873C420.331 493.873 428.447 501.989 428.447 512L428.447 512C428.447 522.011 420.331 530.127 410.32 530.127L410.32 530.127C400.308 530.127 392.192 522.011 392.192 512L392.192 512Z" fill="#6f28b1" fill-rule="nonzero" opacity="1" stroke="none"/>
<path d="M428.447 512C428.447 465.855 465.855 428.447 512 428.447C558.145 428.447 595.553 465.855 595.553 512C595.553 558.145 558.145 595.553 512 595.553C465.855 595.553 428.447 558.145 428.447 512Z" fill="#fa7d56" fill-rule="nonzero" opacity="1" stroke="none"/>
</g>
</svg>
