<?xml version="1.0" encoding="UTF-8" standalone="no"?>
<!DOCTYPE svg PUBLIC "-//W3C//DTD SVG 1.1//EN" "http://www.w3.org/Graphics/SVG/1.1/DTD/svg11.dtd">
<!-- Created with Vectornator (http://vectornator.io/) -->
<svg height="100%" stroke-miterlimit="10" style="fill-rule:nonzero;clip-rule:evenodd;stroke-linecap:round;stroke-linejoin:round;" version="1.1" viewBox="0 0 1024 1024" width="100%" xml:space="preserve" xmlns="http://www.w3.org/2000/svg" xmlns:xlink="http://www.w3.org/1999/xlink">
<defs/>
<g id="Layer-1">
<path d="M643.344 145.75C641.187 145.75 639.016 145.865 636.844 146.156L518.344 162.062C514.041 162.64 509.678 162.637 505.375 162.062L403.25 148.438C389.512 146.603 375.777 148.527 363.406 153.656C351.035 158.785 340.003 167.108 331.594 178.125L269.062 260.062C266.428 263.513 263.355 266.582 259.906 269.219L164.937 341.844C151.008 352.493 143.825 369.778 146.156 387.156L154.719 451C157.983 475.339 178.818 493.477 203.375 493.375L393.906 492.594C403.197 435.674 452.453 392.187 512 392.188C571.199 392.187 620.237 435.164 629.938 491.594L821.312 490.812C845.725 490.711 866.299 472.604 869.531 448.406L877.75 386.906C880.072 369.524 872.909 352.234 858.969 341.594L763.938 269.062C760.487 266.428 757.418 263.355 754.781 259.906L682.156 164.938C672.838 152.749 658.442 145.749 643.344 145.75Z" fill="#8743c5" fill-rule="nonzero" opacity="1" stroke="none"/>
<path d="M820.219 527.656L630.562 528.437C622.534 586.81 572.579 631.812 512 631.812C451.769 631.813 402.054 587.321 393.594 529.438L203.094 530.219C178.681 530.321 158.075 548.427 154.844 572.625L146.25 637.094C143.929 654.476 151.092 671.766 165.031 682.406L260.062 754.938C263.513 757.572 266.582 760.645 269.219 764.094L341.844 859.062C352.493 872.992 369.778 880.175 387.156 877.844L505.656 861.938C509.959 861.36 514.322 861.363 518.625 861.937L620.781 875.562C648.257 879.231 675.587 867.909 692.406 845.875L754.938 763.938C757.572 760.487 760.645 757.418 764.094 754.781L859.062 682.156C872.991 671.508 880.173 654.221 877.844 636.844L868.875 570.031C865.612 545.69 844.777 527.553 820.219 527.656Z" fill="#8743c5" fill-rule="nonzero" opacity="1" stroke="none"/>
<path d="M595.554 512C595.554 501.989 603.669 493.873 613.681 493.873L613.681 493.873C623.692 493.873 631.808 501.989 631.808 512L631.808 512C631.808 522.012 623.692 530.127 613.681 530.127L613.681 530.127C603.669 530.127 595.554 522.012 595.554 512L595.554 512Z" fill="#6f28b1" fill-rule="nonzero" opacity="1" stroke="none"/>
<path d="M392.193 512C392.193 501.989 400.309 493.873 410.32 493.873L410.32 493.873C420.331 493.873 428.447 501.989 428.447 512L428.447 512C428.447 522.012 420.331 530.127 410.32 530.127L410.32 530.127C400.309 530.127 392.193 522.012 392.193 512L392.193 512Z" fill="#6f28b1" fill-rule="nonzero" opacity="1" stroke="none"/>
<path d="M428.447 512C428.447 465.855 465.855 428.447 512 428.447C558.146 428.447 595.554 465.855 595.554 512C595.554 558.145 558.146 595.553 512 595.553C465.855 595.553 428.447 558.145 428.447 512Z" fill="#fa7d56" fill-rule="nonzero" opacity="1" stroke="none"/>
</g>
</svg>
