<?xml version="1.0" encoding="UTF-8" standalone="no"?>
<!DOCTYPE svg PUBLIC "-//W3C//DTD SVG 1.1//EN" "http://www.w3.org/Graphics/SVG/1.1/DTD/svg11.dtd">
<!-- Created with Vectornator (http://vectornator.io/) -->
<svg height="100%" stroke-miterlimit="10" style="fill-rule:nonzero;clip-rule:evenodd;stroke-linecap:round;stroke-linejoin:round;" version="1.1" viewBox="0 0 879 793" width="100%" xml:space="preserve" xmlns="http://www.w3.org/2000/svg" xmlns:xlink="http://www.w3.org/1999/xlink">
<defs>
<linearGradient gradientTransform="matrix(138.039 -155.709 155.709 138.039 85.0062 683.424)" gradientUnits="userSpaceOnUse" id="LinearGradient" x1="0" x2="1" y1="0" y2="0">
<stop offset="0.248786" stop-color="#62e17e"/>
<stop offset="0.974518" stop-color="#b6e865"/>
</linearGradient>
<linearGradient gradientTransform="matrix(96.161 -144.626 144.626 96.161 85.0062 709.693)" gradientUnits="userSpaceOnUse" id="LinearGradient_2" x1="0" x2="1" y1="0" y2="0">
<stop offset="0.248786" stop-color="#62e17e"/>
<stop offset="0.974518" stop-color="#b6e865"/>
</linearGradient>
<linearGradient gradientTransform="matrix(288.682 -84.948 84.948 288.682 85.0062 588.376)" gradientUnits="userSpaceOnUse" id="LinearGradient_3" x1="0" x2="1" y1="0" y2="0">
<stop offset="0.248786" stop-color="#62e17e"/>
<stop offset="0.974518" stop-color="#b6e865"/>
</linearGradient>
<radialGradient cx="0" cy="0" gradientTransform="matrix(3.80804 55.7622 -55.561 3.7943 156.776 582.704)" gradientUnits="userSpaceOnUse" id="RadialGradient" r="1">
<stop offset="0.21875" stop-color="#0a36a7"/>
<stop offset="1" stop-color="#410b46" stop-opacity="0"/>
</radialGradient>
<radialGradient cx="0" cy="0" gradientTransform="matrix(3.80801 15.932 -52.8036 12.6209 156.776 614.987)" gradientUnits="userSpaceOnUse" id="RadialGradient_2" r="1">
<stop offset="0.21875" stop-color="#0a36a7"/>
<stop offset="1" stop-color="#410b46" stop-opacity="0"/>
</radialGradient>
<radialGradient cx="0" cy="0" gradientTransform="matrix(3.80804 55.7622 -55.561 3.7943 197.776 582.704)" gradientUnits="userSpaceOnUse" id="RadialGradient_3" r="1">
<stop offset="0.21875" stop-color="#0a36a7"/>
<stop offset="1" stop-color="#410b46" stop-opacity="0"/>
</radialGradient>
<radialGradient cx="0" cy="0" gradientTransform="matrix(3.80801 15.932 -52.8036 12.6209 197.776 614.987)" gradientUnits="userSpaceOnUse" id="RadialGradient_4" r="1">
<stop offset="0.21875" stop-color="#0a36a7"/>
<stop offset="1" stop-color="#410b46" stop-opacity="0"/>
</radialGradient>
<radialGradient cx="0" cy="0" gradientTransform="matrix(3.80804 55.7622 -55.561 3.7943 361.776 582.704)" gradientUnits="userSpaceOnUse" id="RadialGradient_5" r="1">
<stop offset="0.21875" stop-color="#0a36a7"/>
<stop offset="1" stop-color="#410b46" stop-opacity="0"/>
</radialGradient>
<radialGradient cx="0" cy="0" gradientTransform="matrix(3.80801 15.932 -52.8036 12.6209 361.776 614.987)" gradientUnits="userSpaceOnUse" id="RadialGradient_6" r="1">
<stop offset="0.21875" stop-color="#0a36a7"/>
<stop offset="1" stop-color="#410b46" stop-opacity="0"/>
</radialGradient>
<radialGradient cx="0" cy="0" gradientTransform="matrix(3.80804 55.7622 -55.561 3.7943 320.776 582.704)" gradientUnits="userSpaceOnUse" id="RadialGradient_7" r="1">
<stop offset="0.21875" stop-color="#0a36a7"/>
<stop offset="1" stop-color="#410b46" stop-opacity="0"/>
</radialGradient>
<radialGradient cx="0" cy="0" gradientTransform="matrix(3.80801 15.932 -52.8036 12.6209 320.776 614.987)" gradientUnits="userSpaceOnUse" id="RadialGradient_8" r="1">
<stop offset="0.21875" stop-color="#0a36a7"/>
<stop offset="1" stop-color="#410b46" stop-opacity="0"/>
</radialGradient>
<radialGradient cx="0" cy="0" gradientTransform="matrix(3.80804 55.7622 -55.561 3.7943 279.776 582.704)" gradientUnits="userSpaceOnUse" id="RadialGradient_9" r="1">
<stop offset="0.21875" stop-color="#0a36a7"/>
<stop offset="1" stop-color="#410b46" stop-opacity="0"/>
</radialGradient>
<radialGradient cx="0" cy="0" gradientTransform="matrix(3.80801 15.932 -52.8036 12.6209 279.776 614.987)" gradientUnits="userSpaceOnUse" id="RadialGradient_10" r="1">
<stop offset="0.21875" stop-color="#0a36a7"/>
<stop offset="1" stop-color="#410b46" stop-opacity="0"/>
</radialGradient>
<radialGradient cx="0" cy="0" gradientTransform="matrix(3.80804 55.7622 -55.561 3.7943 238.776 582.704)" gradientUnits="userSpaceOnUse" id="RadialGradient_11" r="1">
<stop offset="0.21875" stop-color="#0a36a7"/>
<stop offset="1" stop-color="#410b46" stop-opacity="0"/>
</radialGradient>
<radialGradient cx="0" cy="0" gradientTransform="matrix(3.80801 15.932 -52.8036 12.6209 238.776 614.987)" gradientUnits="userSpaceOnUse" id="RadialGradient_12" r="1">
<stop offset="0.21875" stop-color="#0a36a7"/>
<stop offset="1" stop-color="#410b46" stop-opacity="0"/>
</radialGradient>
<linearGradient gradientTransform="matrix(307.923 -42.101 42.101 307.923 85.0062 427.625)" gradientUnits="userSpaceOnUse" id="LinearGradient_4" x1="0" x2="1" y1="0" y2="0">
<stop offset="0.248786" stop-color="#62e17e"/>
<stop offset="0.974518" stop-color="#b6e865"/>
</linearGradient>
<radialGradient cx="0" cy="0" gradientTransform="matrix(9.2481 135.423 -134.934 9.21472 178.376 393.138)" gradientUnits="userSpaceOnUse" id="RadialGradient_13" r="1">
<stop offset="0.21875" stop-color="#0a36a7"/>
<stop offset="1" stop-color="#410b46" stop-opacity="0"/>
</radialGradient>
<radialGradient cx="0" cy="0" gradientTransform="matrix(8.56779 310.676 -125.5 3.46104 350.676 431.492)" gradientUnits="userSpaceOnUse" id="RadialGradient_14" r="1">
<stop offset="0.21875" stop-color="#0a36a7"/>
<stop offset="1" stop-color="#410b46" stop-opacity="0"/>
</radialGradient>
<radialGradient cx="0" cy="0" gradientTransform="matrix(9.2481 135.423 -134.934 9.21472 262.376 481.138)" gradientUnits="userSpaceOnUse" id="RadialGradient_15" r="1">
<stop offset="0.21875" stop-color="#0a36a7"/>
<stop offset="1" stop-color="#410b46" stop-opacity="0"/>
</radialGradient>
<radialGradient cx="0" cy="0" gradientTransform="matrix(9.2481 135.423 -134.934 9.21472 178.376 481.138)" gradientUnits="userSpaceOnUse" id="RadialGradient_16" r="1">
<stop offset="0.21875" stop-color="#0a36a7"/>
<stop offset="1" stop-color="#410b46" stop-opacity="0"/>
</radialGradient>
<radialGradient cx="0" cy="0" gradientTransform="matrix(9.2481 135.423 -134.934 9.21472 262.376 393.138)" gradientUnits="userSpaceOnUse" id="RadialGradient_17" r="1">
<stop offset="0.21875" stop-color="#0a36a7"/>
<stop offset="1" stop-color="#410b46" stop-opacity="0"/>
</radialGradient>
<linearGradient gradientTransform="matrix(295.135 -73.981 73.981 295.135 85.0062 266.659)" gradientUnits="userSpaceOnUse" id="LinearGradient_5" x1="0" x2="1" y1="0" y2="0">
<stop offset="0.248786" stop-color="#62e17e"/>
<stop offset="0.974518" stop-color="#b6e865"/>
</linearGradient>
<radialGradient cx="0" cy="0" gradientTransform="matrix(7.07199 139.406 -103.4 5.24543 355.736 267.009)" gradientUnits="userSpaceOnUse" id="RadialGradient_18" r="1">
<stop offset="0.21875" stop-color="#0935a5"/>
<stop offset="1" stop-color="#410b46" stop-opacity="0"/>
</radialGradient>
<radialGradient cx="0" cy="0" gradientTransform="matrix(7.07199 139.406 -103.4 5.24543 231.736 267.009)" gradientUnits="userSpaceOnUse" id="RadialGradient_19" r="1">
<stop offset="0.21875" stop-color="#0a36a7"/>
<stop offset="1" stop-color="#410b46" stop-opacity="0"/>
</radialGradient>
<radialGradient cx="0" cy="0" gradientTransform="matrix(7.07199 139.406 -103.4 5.24543 169.736 267.009)" gradientUnits="userSpaceOnUse" id="RadialGradient_20" r="1">
<stop offset="0.21875" stop-color="#0a36a7"/>
<stop offset="1" stop-color="#410b46" stop-opacity="0"/>
</radialGradient>
<radialGradient cx="0" cy="0" gradientTransform="matrix(7.07199 139.406 -103.4 5.24543 293.736 267.009)" gradientUnits="userSpaceOnUse" id="RadialGradient_21" r="1">
<stop offset="0.21875" stop-color="#0a36a7"/>
<stop offset="1" stop-color="#410b46" stop-opacity="0"/>
</radialGradient>
<linearGradient gradientTransform="matrix(31.23 -0.825798 0.825798 31.23 365.606 122.928)" gradientUnits="userSpaceOnUse" id="LinearGradient_6" x1="0" x2="1" y1="0" y2="0">
<stop offset="0.248786" stop-color="#62e17e"/>
<stop offset="0.974518" stop-color="#b6e865"/>
</linearGradient>
<radialGradient cx="0" cy="0" gradientTransform="matrix(2.31197 35.8471 -33.7504 2.17674 383.836 97.3453)" gradientUnits="userSpaceOnUse" id="RadialGradient_22" r="1">
<stop offset="0.21875" stop-color="#0a36a7"/>
<stop offset="1" stop-color="#410b46" stop-opacity="0"/>
</radialGradient>
<radialGradient cx="0" cy="0" gradientTransform="matrix(2.31197 35.8471 -33.7504 2.17674 383.836 156.345)" gradientUnits="userSpaceOnUse" id="RadialGradient_23" r="1">
<stop offset="0.21875" stop-color="#0a36a7"/>
<stop offset="1" stop-color="#410b46" stop-opacity="0"/>
</radialGradient>
<radialGradient cx="0" cy="0" gradientTransform="matrix(2.31197 35.8471 -33.7504 2.17674 383.836 127.345)" gradientUnits="userSpaceOnUse" id="RadialGradient_24" r="1">
<stop offset="0.21875" stop-color="#0a36a7"/>
<stop offset="1" stop-color="#410b46" stop-opacity="0"/>
</radialGradient>
<linearGradient gradientTransform="matrix(237.286 -79.4788 79.4788 237.286 96.4562 108.452)" gradientUnits="userSpaceOnUse" id="LinearGradient_7" x1="0" x2="1" y1="0" y2="0">
<stop offset="0.248786" stop-color="#62e17e"/>
<stop offset="0.974518" stop-color="#b6e865"/>
</linearGradient>
<linearGradient gradientTransform="matrix(138.852 -131.773 131.773 138.852 96.4562 165.424)" gradientUnits="userSpaceOnUse" id="LinearGradient_8" x1="0" x2="1" y1="0" y2="0">
<stop offset="0.248786" stop-color="#62e17e"/>
<stop offset="0.974518" stop-color="#b6e865"/>
</linearGradient>
<radialGradient cx="0" cy="0" gradientTransform="matrix(31.8356 51.7275 -342.358 235.828 253.796 106.423)" gradientUnits="userSpaceOnUse" id="RadialGradient_25" r="1">
<stop offset="0.21875" stop-color="#0a36a7"/>
<stop offset="1" stop-color="#410b46" stop-opacity="0"/>
</radialGradient>
<radialGradient cx="0" cy="0" gradientTransform="matrix(50.1962 73.9713 -501.899 382.974 257.136 122.858)" gradientUnits="userSpaceOnUse" id="RadialGradient_26" r="1">
<stop offset="0.21875" stop-color="#0a36a7"/>
<stop offset="1" stop-color="#410b46" stop-opacity="0"/>
</radialGradient>
<linearGradient gradientTransform="matrix(39.5079 0 0 39.5079 525.827 82.8579)" gradientUnits="userSpaceOnUse" id="LinearGradient_9" x1="0" x2="1" y1="0" y2="0">
<stop offset="0.248786" stop-color="#63e17f"/>
<stop offset="0.974518" stop-color="#b6e865"/>
</linearGradient>
<radialGradient cx="0" cy="0" gradientTransform="matrix(75.7671 30.9108 -30.9108 75.7671 536.207 143.34)" gradientUnits="userSpaceOnUse" id="RadialGradient_27" r="1">
<stop offset="0.21875" stop-color="#0935a5"/>
<stop offset="1" stop-color="#410b46" stop-opacity="0"/>
</radialGradient>
</defs>
<path d="M0 0L879 0L879 793L0 793L0 0Z" fill="#ffffff" fill-rule="nonzero" opacity="1" stroke="none"/>
<g id="maquette">
<g opacity="1">
<path d="M115.156 667L413.156 667L413.156 667L413.156 731L413.156 731L115.156 731L115.156 731L115.156 667L115.156 667Z" fill="#272923" fill-rule="nonzero" opacity="1" stroke="#272923" stroke-linecap="butt" stroke-linejoin="miter" stroke-width="1"/>
<path d="M111.156 664L409.156 664L409.156 664L409.156 728L409.156 728L111.156 728L111.156 728L111.156 664L111.156 664Z" fill="#dbe2cf" fill-rule="nonzero" opacity="1" stroke="#272923" stroke-linecap="butt" stroke-linejoin="miter" stroke-width="1"/>
<path d="M125.656 672.5L396.656 672.5L396.656 672.5L396.656 696.5L396.656 696.5L125.656 696.5L125.656 696.5L125.656 672.5L125.656 672.5Z" fill="url(#LinearGradient)" fill-rule="nonzero" opacity="1" stroke="none"/>
<path d="M125.656 701.5L396.656 701.5L396.656 701.5L396.656 719.5L396.656 719.5L125.656 719.5L125.656 719.5L125.656 701.5L125.656 701.5Z" fill="url(#LinearGradient_2)" fill-rule="nonzero" opacity="1" stroke="none"/>
<g opacity="1">
<path d="M152.656 682.5L376.656 682.5C378.313 682.5 379.656 683.843 379.656 685.5L379.656 686.5C379.656 688.157 378.313 689.5 376.656 689.5L152.656 689.5C150.999 689.5 149.656 688.157 149.656 686.5L149.656 685.5C149.656 683.843 150.999 682.5 152.656 682.5Z" fill="#0a36a7" fill-rule="nonzero" opacity="1" stroke="none"/>
<g opacity="1">
<path d="M151.656 706.5L165.656 706.5C167.865 706.5 169.656 708.291 169.656 710.5L169.656 711.5C169.656 713.709 167.865 715.5 165.656 715.5L151.656 715.5C149.447 715.5 147.656 713.709 147.656 711.5L147.656 710.5C147.656 708.291 149.447 706.5 151.656 706.5Z" fill="#0a36a7" fill-rule="nonzero" opacity="1" stroke="none"/>
<path d="M200.656 706.5L214.656 706.5C216.865 706.5 218.656 708.291 218.656 710.5L218.656 711.5C218.656 713.709 216.865 715.5 214.656 715.5L200.656 715.5C198.447 715.5 196.656 713.709 196.656 711.5L196.656 710.5C196.656 708.291 198.447 706.5 200.656 706.5Z" fill="#0a36a7" fill-rule="nonzero" opacity="1" stroke="none"/>
<path d="M249.656 706.5L263.656 706.5C265.865 706.5 267.656 708.291 267.656 710.5L267.656 711.5C267.656 713.709 265.865 715.5 263.656 715.5L249.656 715.5C247.447 715.5 245.656 713.709 245.656 711.5L245.656 710.5C245.656 708.291 247.447 706.5 249.656 706.5Z" fill="#0a36a7" fill-rule="nonzero" opacity="1" stroke="none"/>
<path d="M302.656 706.5L316.656 706.5C318.865 706.5 320.656 708.291 320.656 710.5L320.656 711.5C320.656 713.709 318.865 715.5 316.656 715.5L302.656 715.5C300.447 715.5 298.656 713.709 298.656 711.5L298.656 710.5C298.656 708.291 300.447 706.5 302.656 706.5Z" fill="#0a36a7" fill-rule="nonzero" opacity="1" stroke="none"/>
<path d="M356.656 706.5L370.656 706.5C372.865 706.5 374.656 708.291 374.656 710.5L374.656 711.5C374.656 713.709 372.865 715.5 370.656 715.5L356.656 715.5C354.447 715.5 352.656 713.709 352.656 711.5L352.656 710.5C352.656 708.291 354.447 706.5 356.656 706.5Z" fill="#0a36a7" fill-rule="nonzero" opacity="1" stroke="none"/>
</g>
</g>
</g>
<g opacity="1">
<path d="M115.156 205L412.156 205L412.156 205L412.156 659L412.156 659L115.156 659L115.156 659L115.156 205L115.156 205Z" fill="#272923" fill-rule="nonzero" opacity="1" stroke="#272923" stroke-linecap="butt" stroke-linejoin="miter" stroke-width="1"/>
<path d="M111.156 202L408.156 202L408.156 202L408.156 656L408.156 656L111.156 656L111.156 656L111.156 202L111.156 202Z" fill="#dce2d1" fill-rule="nonzero" opacity="1" stroke="#272923" stroke-linecap="butt" stroke-linejoin="miter" stroke-width="1"/>
<g opacity="1">
<path d="M125.656 546.5L396.656 546.5L396.656 546.5L396.656 638.5L396.656 638.5L125.656 638.5L125.656 638.5L125.656 546.5L125.656 546.5Z" fill="url(#LinearGradient_3)" fill-rule="nonzero" opacity="1" stroke="none"/>
<g opacity="1">
<g opacity="1">
<path d="M146.656 570.5L164.656 570.5C167.418 570.5 169.656 572.739 169.656 575.5L169.656 593.5C169.656 596.261 167.418 598.5 164.656 598.5L146.656 598.5C143.895 598.5 141.656 596.261 141.656 593.5L141.656 575.5C141.656 572.739 143.895 570.5 146.656 570.5Z" fill="url(#RadialGradient)" fill-rule="nonzero" opacity="1" stroke="none"/>
<path d="M145.656 612L165.656 612C167.589 612 169.156 613.567 169.156 615.5L169.156 615.5C169.156 617.433 167.589 619 165.656 619L145.656 619C143.723 619 142.156 617.433 142.156 615.5L142.156 615.5C142.156 613.567 143.723 612 145.656 612Z" fill="url(#RadialGradient_2)" fill-rule="nonzero" opacity="1" stroke="#ffffff" stroke-linecap="butt" stroke-linejoin="miter" stroke-width="1"/>
</g>
<g opacity="1">
<path d="M187.656 570.5L205.656 570.5C208.418 570.5 210.656 572.739 210.656 575.5L210.656 593.5C210.656 596.261 208.418 598.5 205.656 598.5L187.656 598.5C184.895 598.5 182.656 596.261 182.656 593.5L182.656 575.5C182.656 572.739 184.895 570.5 187.656 570.5Z" fill="url(#RadialGradient_3)" fill-rule="nonzero" opacity="1" stroke="none"/>
<path d="M186.656 612L206.656 612C208.589 612 210.156 613.567 210.156 615.5L210.156 615.5C210.156 617.433 208.589 619 206.656 619L186.656 619C184.723 619 183.156 617.433 183.156 615.5L183.156 615.5C183.156 613.567 184.723 612 186.656 612Z" fill="url(#RadialGradient_4)" fill-rule="nonzero" opacity="1" stroke="#ffffff" stroke-linecap="butt" stroke-linejoin="miter" stroke-width="1"/>
</g>
<g opacity="1">
<path d="M351.656 570.5L369.656 570.5C372.418 570.5 374.656 572.739 374.656 575.5L374.656 593.5C374.656 596.261 372.418 598.5 369.656 598.5L351.656 598.5C348.895 598.5 346.656 596.261 346.656 593.5L346.656 575.5C346.656 572.739 348.895 570.5 351.656 570.5Z" fill="url(#RadialGradient_5)" fill-rule="nonzero" opacity="1" stroke="none"/>
<path d="M350.656 612L370.656 612C372.589 612 374.156 613.567 374.156 615.5L374.156 615.5C374.156 617.433 372.589 619 370.656 619L350.656 619C348.723 619 347.156 617.433 347.156 615.5L347.156 615.5C347.156 613.567 348.723 612 350.656 612Z" fill="url(#RadialGradient_6)" fill-rule="nonzero" opacity="1" stroke="#ffffff" stroke-linecap="butt" stroke-linejoin="miter" stroke-width="1"/>
</g>
<g opacity="1">
<path d="M310.656 570.5L328.656 570.5C331.418 570.5 333.656 572.739 333.656 575.5L333.656 593.5C333.656 596.261 331.418 598.5 328.656 598.5L310.656 598.5C307.895 598.5 305.656 596.261 305.656 593.5L305.656 575.5C305.656 572.739 307.895 570.5 310.656 570.5Z" fill="url(#RadialGradient_7)" fill-rule="nonzero" opacity="1" stroke="none"/>
<path d="M309.656 612L329.656 612C331.589 612 333.156 613.567 333.156 615.5L333.156 615.5C333.156 617.433 331.589 619 329.656 619L309.656 619C307.723 619 306.156 617.433 306.156 615.5L306.156 615.5C306.156 613.567 307.723 612 309.656 612Z" fill="url(#RadialGradient_8)" fill-rule="nonzero" opacity="1" stroke="#ffffff" stroke-linecap="butt" stroke-linejoin="miter" stroke-width="1"/>
</g>
<g opacity="1">
<path d="M269.656 570.5L287.656 570.5C290.418 570.5 292.656 572.739 292.656 575.5L292.656 593.5C292.656 596.261 290.418 598.5 287.656 598.5L269.656 598.5C266.895 598.5 264.656 596.261 264.656 593.5L264.656 575.5C264.656 572.739 266.895 570.5 269.656 570.5Z" fill="url(#RadialGradient_9)" fill-rule="nonzero" opacity="1" stroke="none"/>
<path d="M268.656 612L288.656 612C290.589 612 292.156 613.567 292.156 615.5L292.156 615.5C292.156 617.433 290.589 619 288.656 619L268.656 619C266.723 619 265.156 617.433 265.156 615.5L265.156 615.5C265.156 613.567 266.723 612 268.656 612Z" fill="url(#RadialGradient_10)" fill-rule="nonzero" opacity="1" stroke="#ffffff" stroke-linecap="butt" stroke-linejoin="miter" stroke-width="1"/>
</g>
<g opacity="1">
<path d="M228.656 570.5L246.656 570.5C249.418 570.5 251.656 572.739 251.656 575.5L251.656 593.5C251.656 596.261 249.418 598.5 246.656 598.5L228.656 598.5C225.895 598.5 223.656 596.261 223.656 593.5L223.656 575.5C223.656 572.739 225.895 570.5 228.656 570.5Z" fill="url(#RadialGradient_11)" fill-rule="nonzero" opacity="1" stroke="none"/>
<path d="M227.656 612L247.656 612C249.589 612 251.156 613.567 251.156 615.5L251.156 615.5C251.156 617.433 249.589 619 247.656 619L227.656 619C225.723 619 224.156 617.433 224.156 615.5L224.156 615.5C224.156 613.567 225.723 612 227.656 612Z" fill="url(#RadialGradient_12)" fill-rule="nonzero" opacity="1" stroke="#ffffff" stroke-linecap="butt" stroke-linejoin="miter" stroke-width="1"/>
</g>
</g>
<path d="M191.656 558.5L319.656 558.5L319.656 558.5L319.656 561.5L319.656 561.5L191.656 561.5L191.656 561.5L191.656 558.5L191.656 558.5Z" fill="#0a36a7" fill-rule="nonzero" opacity="1" stroke="none"/>
</g>
<g opacity="1">
<g opacity="1">
<g opacity="1">
<path d="M125.656 337.5L396.656 337.5L396.656 337.5L396.656 535.5L396.656 535.5L125.656 535.5L125.656 535.5L125.656 337.5L125.656 337.5Z" fill="url(#LinearGradient_4)" fill-rule="nonzero" opacity="1" stroke="none"/>
<g opacity="1">
<path d="M151.656 363.5L199.656 363.5C205.179 363.5 209.656 367.977 209.656 373.5L209.656 421.5C209.656 427.023 205.179 431.5 199.656 431.5L151.656 431.5C146.133 431.5 141.656 427.023 141.656 421.5L141.656 373.5C141.656 367.977 146.133 363.5 151.656 363.5Z" fill="url(#RadialGradient_13)" fill-rule="nonzero" opacity="1" stroke="none"/>
<path d="M161.656 409L187.656 409C189.037 409 190.156 410.119 190.156 411.5L190.156 417.5C190.156 418.881 189.037 420 187.656 420L161.656 420C160.276 420 159.156 418.881 159.156 417.5L159.156 411.5C159.156 410.119 160.276 409 161.656 409Z" fill="#200aa7" fill-rule="nonzero" opacity="1" stroke="#ffffff" stroke-linecap="butt" stroke-linejoin="miter" stroke-width="1"/>
</g>
<g opacity="1">
<path d="M322.656 363.5L373.656 363.5C376.97 363.5 379.656 366.186 379.656 369.5L379.656 513.5C379.656 516.814 376.97 519.5 373.656 519.5L322.656 519.5C319.343 519.5 316.656 516.814 316.656 513.5L316.656 369.5C316.656 366.186 319.343 363.5 322.656 363.5Z" fill="url(#RadialGradient_14)" fill-rule="nonzero" opacity="1" stroke="none"/>
<path d="M334.656 494L360.656 494C362.037 494 363.156 495.119 363.156 496.5L363.156 502.5C363.156 503.881 362.037 505 360.656 505L334.656 505C333.276 505 332.156 503.881 332.156 502.5L332.156 496.5C332.156 495.119 333.276 494 334.656 494Z" fill="#200aa7" fill-rule="nonzero" opacity="1" stroke="#ffffff" stroke-linecap="butt" stroke-linejoin="miter" stroke-width="1"/>
</g>
<g opacity="1">
<path d="M235.656 451.5L283.656 451.5C289.179 451.5 293.656 455.977 293.656 461.5L293.656 509.5C293.656 515.023 289.179 519.5 283.656 519.5L235.656 519.5C230.133 519.5 225.656 515.023 225.656 509.5L225.656 461.5C225.656 455.977 230.133 451.5 235.656 451.5Z" fill="url(#RadialGradient_15)" fill-rule="nonzero" opacity="1" stroke="none"/>
<path d="M246.656 494L272.656 494C274.037 494 275.156 495.119 275.156 496.5L275.156 502.5C275.156 503.881 274.037 505 272.656 505L246.656 505C245.276 505 244.156 503.881 244.156 502.5L244.156 496.5C244.156 495.119 245.276 494 246.656 494Z" fill="#200aa7" fill-rule="nonzero" opacity="1" stroke="#ffffff" stroke-linecap="butt" stroke-linejoin="miter" stroke-width="1"/>
</g>
<g opacity="1">
<path d="M151.656 451.5L199.656 451.5C205.179 451.5 209.656 455.977 209.656 461.5L209.656 509.5C209.656 515.023 205.179 519.5 199.656 519.5L151.656 519.5C146.133 519.5 141.656 515.023 141.656 509.5L141.656 461.5C141.656 455.977 146.133 451.5 151.656 451.5Z" fill="url(#RadialGradient_16)" fill-rule="nonzero" opacity="1" stroke="none"/>
<path d="M163.656 494L189.656 494C191.037 494 192.156 495.119 192.156 496.5L192.156 502.5C192.156 503.881 191.037 505 189.656 505L163.656 505C162.276 505 161.156 503.881 161.156 502.5L161.156 496.5C161.156 495.119 162.276 494 163.656 494Z" fill="#200aa7" fill-rule="nonzero" opacity="1" stroke="#ffffff" stroke-linecap="butt" stroke-linejoin="miter" stroke-width="1"/>
</g>
<g opacity="1">
<path d="M235.656 363.5L283.656 363.5C289.179 363.5 293.656 367.977 293.656 373.5L293.656 421.5C293.656 427.023 289.179 431.5 283.656 431.5L235.656 431.5C230.133 431.5 225.656 427.023 225.656 421.5L225.656 373.5C225.656 367.977 230.133 363.5 235.656 363.5Z" fill="url(#RadialGradient_17)" fill-rule="nonzero" opacity="1" stroke="none"/>
<path d="M247.656 408L273.656 408C275.037 408 276.156 409.119 276.156 410.5L276.156 416.5C276.156 417.881 275.037 419 273.656 419L247.656 419C246.276 419 245.156 417.881 245.156 416.5L245.156 410.5C245.156 409.119 246.276 408 247.656 408Z" fill="#200aa7" fill-rule="nonzero" opacity="1" stroke="#ffffff" stroke-linecap="butt" stroke-linejoin="miter" stroke-width="1"/>
</g>
<path d="M193.656 345.5L321.656 345.5L321.656 345.5L321.656 348.5L321.656 348.5L193.656 348.5L193.656 348.5L193.656 345.5L193.656 345.5Z" fill="#0a36a7" fill-rule="nonzero" opacity="1" stroke="none"/>
</g>
</g>
</g>
<g opacity="1">
<path d="M125.656 217.5L396.656 217.5L396.656 217.5L396.656 325.5L396.656 325.5L125.656 325.5L125.656 325.5L125.656 217.5L125.656 217.5Z" fill="url(#LinearGradient_5)" fill-rule="nonzero" opacity="1" stroke="none"/>
<g opacity="1">
<g opacity="1">
<path d="M332.656 236.5L374.656 236.5C377.418 236.5 379.656 238.739 379.656 241.5L379.656 301.5C379.656 304.261 377.418 306.5 374.656 306.5L332.656 306.5C329.895 306.5 327.656 304.261 327.656 301.5L327.656 241.5C327.656 238.739 329.895 236.5 332.656 236.5Z" fill="url(#RadialGradient_18)" fill-rule="nonzero" opacity="1" stroke="none"/>
<path d="M208.656 236.5L250.656 236.5C253.418 236.5 255.656 238.739 255.656 241.5L255.656 301.5C255.656 304.261 253.418 306.5 250.656 306.5L208.656 306.5C205.895 306.5 203.656 304.261 203.656 301.5L203.656 241.5C203.656 238.739 205.895 236.5 208.656 236.5Z" fill="url(#RadialGradient_19)" fill-rule="nonzero" opacity="1" stroke="none"/>
<path d="M146.656 236.5L188.656 236.5C191.418 236.5 193.656 238.739 193.656 241.5L193.656 301.5C193.656 304.261 191.418 306.5 188.656 306.5L146.656 306.5C143.895 306.5 141.656 304.261 141.656 301.5L141.656 241.5C141.656 238.739 143.895 236.5 146.656 236.5Z" fill="url(#RadialGradient_20)" fill-rule="nonzero" opacity="1" stroke="none"/>
<path d="M270.656 236.5L312.656 236.5C315.418 236.5 317.656 238.739 317.656 241.5L317.656 301.5C317.656 304.261 315.418 306.5 312.656 306.5L270.656 306.5C267.895 306.5 265.656 304.261 265.656 301.5L265.656 241.5C265.656 238.739 267.895 236.5 270.656 236.5Z" fill="url(#RadialGradient_21)" fill-rule="nonzero" opacity="1" stroke="none"/>
</g>
<path d="M192.656 223.5L320.656 223.5L320.656 223.5L320.656 226.5L320.656 226.5L192.656 226.5L192.656 226.5L192.656 223.5L192.656 223.5Z" fill="#0a36a7" fill-rule="nonzero" opacity="1" stroke="none"/>
</g>
<g opacity="1">
<path d="M154.656 287L180.656 287C182.037 287 183.156 288.119 183.156 289.5L183.156 295.5C183.156 296.881 182.037 298 180.656 298L154.656 298C153.276 298 152.156 296.881 152.156 295.5L152.156 289.5C152.156 288.119 153.276 287 154.656 287Z" fill="#200aa7" fill-rule="nonzero" opacity="1" stroke="#ffffff" stroke-linecap="butt" stroke-linejoin="miter" stroke-width="1"/>
<path d="M340.656 287L366.656 287C368.037 287 369.156 288.119 369.156 289.5L369.156 295.5C369.156 296.881 368.037 298 366.656 298L340.656 298C339.276 298 338.156 296.881 338.156 295.5L338.156 289.5C338.156 288.119 339.276 287 340.656 287Z" fill="#200aa7" fill-rule="nonzero" opacity="1" stroke="#ffffff" stroke-linecap="butt" stroke-linejoin="miter" stroke-width="1"/>
<path d="M279.656 287L305.656 287C307.037 287 308.156 288.119 308.156 289.5L308.156 295.5C308.156 296.881 307.037 298 305.656 298L279.656 298C278.276 298 277.156 296.881 277.156 295.5L277.156 289.5C277.156 288.119 278.276 287 279.656 287Z" fill="#200aa7" fill-rule="nonzero" opacity="1" stroke="#ffffff" stroke-linecap="butt" stroke-linejoin="miter" stroke-width="1"/>
<path d="M217.656 287L243.656 287C245.037 287 246.156 288.119 246.156 289.5L246.156 295.5C246.156 296.881 245.037 298 243.656 298L217.656 298C216.276 298 215.156 296.881 215.156 295.5L215.156 289.5C215.156 288.119 216.276 287 217.656 287Z" fill="#200aa7" fill-rule="nonzero" opacity="1" stroke="#ffffff" stroke-linecap="butt" stroke-linejoin="miter" stroke-width="1"/>
</g>
</g>
</g>
<g opacity="1">
<path d="M115.156 65L412.156 65L412.156 65L412.156 198L412.156 198L115.156 198L115.156 198L115.156 65L115.156 65Z" fill="#272923" fill-rule="nonzero" opacity="1" stroke="#272923" stroke-linecap="butt" stroke-linejoin="miter" stroke-width="1"/>
<path d="M111.156 62L408.156 62L408.156 62L408.156 195L408.156 195L111.156 195L111.156 195L111.156 62L111.156 62Z" fill="#dbe2cf" fill-rule="nonzero" opacity="1" stroke="#272923" stroke-linecap="butt" stroke-linejoin="miter" stroke-width="1"/>
<g opacity="1">
<path d="M369.656 76.5L396.656 76.5L396.656 76.5L396.656 178.5L396.656 178.5L369.656 178.5L369.656 178.5L369.656 76.5L369.656 76.5Z" fill="url(#LinearGradient_6)" fill-rule="nonzero" opacity="1" stroke="none"/>
<path d="M379.656 90L386.656 90C389.142 90 391.156 92.0147 391.156 94.5L391.156 102.5C391.156 104.985 389.142 107 386.656 107L379.656 107C377.171 107 375.156 104.985 375.156 102.5L375.156 94.5C375.156 92.0147 377.171 90 379.656 90Z" fill="url(#RadialGradient_22)" fill-rule="nonzero" opacity="1" stroke="#ffffff" stroke-linecap="butt" stroke-linejoin="miter" stroke-width="1"/>
<path d="M375.156 153.5C375.156 151.015 377.171 149 379.656 149L386.656 149C389.141 149 391.156 151.015 391.156 153.5L391.156 161.5C391.156 163.985 389.141 166 386.656 166L379.656 166C377.171 166 375.156 163.985 375.156 161.5L375.156 153.5Z" fill="url(#RadialGradient_23)" fill-rule="nonzero" opacity="1" stroke="#ffffff" stroke-linecap="butt" stroke-linejoin="miter" stroke-width="1"/>
<path d="M379.656 120L386.656 120C389.142 120 391.156 122.015 391.156 124.5L391.156 132.5C391.156 134.985 389.142 137 386.656 137L379.656 137C377.171 137 375.156 134.985 375.156 132.5L375.156 124.5C375.156 122.015 377.171 120 379.656 120Z" fill="url(#RadialGradient_24)" fill-rule="nonzero" opacity="1" stroke="#ffffff" stroke-linecap="butt" stroke-linejoin="miter" stroke-width="1"/>
</g>
<path d="M130.656 77.5L358.656 77.5L358.656 77.5L358.656 145.5L358.656 145.5L130.656 145.5L130.656 145.5L130.656 77.5L130.656 77.5Z" fill="url(#LinearGradient_7)" fill-rule="nonzero" opacity="1" stroke="none"/>
<path d="M130.656 154.5L358.656 154.5L358.656 154.5L358.656 178.5L358.656 178.5L130.656 178.5L130.656 178.5L130.656 154.5L130.656 154.5Z" fill="url(#LinearGradient_8)" fill-rule="nonzero" opacity="1" stroke="none"/>
<g opacity="1">
<path d="M204.656 102.5L295.656 102.5L295.656 102.5L295.656 111.5L295.656 111.5L204.656 111.5L204.656 111.5L204.656 102.5L204.656 102.5Z" fill="url(#RadialGradient_25)" fill-rule="nonzero" opacity="1" stroke="none"/>
<path d="M196.656 118.5L308.656 118.5L308.656 118.5L308.656 128.5L308.656 128.5L196.656 128.5L196.656 128.5L196.656 118.5L196.656 118.5Z" fill="url(#RadialGradient_26)" fill-rule="nonzero" opacity="1" stroke="none"/>
<path d="M148.656 86L166.656 86C171.351 86 175.156 89.8056 175.156 94.5L175.156 112.5C175.156 117.194 171.351 121 166.656 121L148.656 121C143.962 121 140.156 117.194 140.156 112.5L140.156 94.5C140.156 89.8056 143.962 86 148.656 86Z" fill="#0b37a7" fill-rule="nonzero" opacity="1" stroke="#ffffff" stroke-linecap="butt" stroke-linejoin="miter" stroke-width="1"/>
<path d="M142.156 128L174.156 128L174.156 128L174.156 130L174.156 130L142.156 130L142.156 130L142.156 128L142.156 128Z" fill="#0b37a7" fill-rule="nonzero" opacity="1" stroke="#ffffff" stroke-linecap="butt" stroke-linejoin="miter" stroke-width="1"/>
</g>
<g opacity="1">
<path d="M144.156 164L175.156 164L175.156 164L175.156 166L175.156 166L144.156 166L144.156 166L144.156 164L144.156 164Z" fill="#0b37a7" fill-rule="nonzero" opacity="1" stroke="#ffffff" stroke-linecap="butt" stroke-linejoin="miter" stroke-width="1"/>
<path d="M197.156 164L228.156 164L228.156 164L228.156 166L228.156 166L197.156 166L197.156 166L197.156 164L197.156 164Z" fill="#0b37a7" fill-rule="nonzero" opacity="1" stroke="#ffffff" stroke-linecap="butt" stroke-linejoin="miter" stroke-width="1"/>
<path d="M250.156 164L281.156 164L281.156 164L281.156 166L281.156 166L250.156 166L250.156 166L250.156 164L250.156 164Z" fill="#0b37a7" fill-rule="nonzero" opacity="1" stroke="#ffffff" stroke-linecap="butt" stroke-linejoin="miter" stroke-width="1"/>
<path d="M303.156 164L334.156 164L334.156 164L334.156 166L334.156 166L303.156 166L303.156 166L303.156 164L303.156 164Z" fill="#0b37a7" fill-rule="nonzero" opacity="1" stroke="#ffffff" stroke-linecap="butt" stroke-linejoin="miter" stroke-width="1"/>
</g>
</g>
<g opacity="1">
<path d="M316.859 440.043L379.859 468.043" fill="none" opacity="1" stroke="#000000" stroke-linecap="butt" stroke-linejoin="miter" stroke-width="1"/>
<path d="M316.859 398.043L379.859 426.043" fill="none" opacity="1" stroke="#000000" stroke-linecap="butt" stroke-linejoin="miter" stroke-width="1"/>
</g>
</g>
<g id="légende">
<path d="M525.827 397.5L742.131 397.5L742.131 719.5L525.827 719.5L525.827 397.5Z" fill="#edf3f6" fill-rule="nonzero" opacity="1" stroke="none"/>
<path d="M488.57 337.5L767.844 337.5" fill="none" opacity="1" stroke="#272923" stroke-linecap="butt" stroke-linejoin="miter" stroke-width="1"/>
<g opacity="1">
<g opacity="1">
<path d="M537.899 63.104L553.263 63.104C559.93 63.104 565.335 68.5087 565.335 75.1757L565.335 90.5401C565.335 97.2072 559.93 102.612 553.263 102.612L537.899 102.612C531.232 102.612 525.827 97.2072 525.827 90.5401L525.827 75.1757C525.827 68.5087 531.232 63.104 537.899 63.104Z" fill="url(#LinearGradient_9)" fill-rule="nonzero" opacity="1" stroke="none"/>
<text fill="#05155c" font-family="AppleGothic" font-size="16" opacity="1" stroke="none" text-anchor="start" transform="matrix(1 0 0 1 591.379 62.9664)" x="0" y="0">
<tspan textLength="61.424" x="-1.06581e-14" y="17"><![CDATA[Sections]]></tspan>
</text>
</g>
<g opacity="1">
<path d="M537.899 129.246L553.263 129.246C559.93 129.246 565.335 134.651 565.335 141.318L565.335 156.682C565.335 163.349 559.93 168.754 553.263 168.754L537.899 168.754C531.232 168.754 525.827 163.349 525.827 156.682L525.827 141.318C525.827 134.651 531.232 129.246 537.899 129.246Z" fill="url(#RadialGradient_27)" fill-rule="nonzero" opacity="1" stroke="none"/>
<text fill="#05155c" font-family="AppleGothic" font-size="16" opacity="1" stroke="none" text-anchor="start" transform="matrix(1 0 0 1 590.967 133.916)" x="0" y="0">
<tspan font-family="Helvetica-Light" textLength="9.776" x="0" y="18"><![CDATA[É]]></tspan>
<tspan textLength="2.672" x="9.776" y="18"><![CDATA[l]]></tspan>
<tspan font-family="Helvetica-Light" textLength="8.896" x="12.448" y="18"><![CDATA[é]]></tspan>
<tspan textLength="128.32" x="21.344" y="18"><![CDATA[ments graphiques]]></tspan>
</text>
</g>
<g opacity="1">
<path d="M537.899 195.388L553.263 195.388C559.93 195.388 565.335 200.793 565.335 207.46L565.335 222.824C565.335 229.491 559.93 234.896 553.263 234.896L537.899 234.896C531.232 234.896 525.827 229.491 525.827 222.824L525.827 207.46C525.827 200.793 531.232 195.388 537.899 195.388Z" fill="#dce2d1" fill-rule="nonzero" opacity="1" stroke="none"/>
<text fill="#05155c" font-family="AppleGothic" font-size="16" opacity="1" stroke="none" text-anchor="start" transform="matrix(1 0 0 1 590.967 202.566)" x="0" y="0">
<tspan textLength="99.568" x="0" y="17"><![CDATA[Fond de page]]></tspan>
</text>
</g>
</g>
<text fill="#0e3969" font-family="DINAlternate-Bold" font-size="16.7675" opacity="1" stroke="none" text-anchor="start" transform="matrix(1 0 0 1 559.77 523.254)" x="0" y="0">
<tspan textLength="57.712" x="0" y="16"><![CDATA[Boutons
]]></tspan>
<tspan textLength="38.783" x="0" y="36"><![CDATA[Liens
]]></tspan>
<tspan textLength="60.7658" x="0" y="56"><![CDATA[Arcticles
]]></tspan>
<tspan textLength="39.4134" x="0" y="76"><![CDATA[Titres
]]></tspan>
<tspan textLength="87.8001" x="0" y="96"><![CDATA[Descriptions
]]></tspan>
<tspan textLength="136.875" x="0" y="116"><![CDATA[Barre de navigation]]></tspan>
</text>
</g>
</svg>
