<?xml version="1.0" encoding="UTF-8" standalone="no"?>
<!DOCTYPE svg PUBLIC "-//W3C//DTD SVG 1.1//EN" "http://www.w3.org/Graphics/SVG/1.1/DTD/svg11.dtd">
<!-- Created with Vectornator (http://vectornator.io/) -->
<svg height="100%" stroke-miterlimit="10" style="fill-rule:nonzero;clip-rule:evenodd;stroke-linecap:round;stroke-linejoin:round;" version="1.1" viewBox="0 0 1536 396" width="100%" xml:space="preserve" xmlns="http://www.w3.org/2000/svg" xmlns:xlink="http://www.w3.org/1999/xlink">
<defs/>
<clipPath id="ArtboardFrame">
<rect height="396" width="1536" x="0" y="0"/>
</clipPath>
<g clip-path="url(#ArtboardFrame)" id="Calque-1">
<path d="M3.09375-2.90625L3.09375 42.2188L3.09375 70.375L3.09375 103.656L3.09375 115.875L3.09375 217.531L3.09375 229.062L3.09375 234.656L3.09375 248.469L3.09375 366.969L3.09375 401.594L952.656 401.594L1539.62 401.594L1539.62 396.906L1539.62 367.562L1539.62 261.625L1539.62 244.844L1539.62 154.156L1539.62 144.531L1539.62 110.375L1539.62 98.375L1539.62 78.375L1539.62 48.3125L1539.62-2.90625L597.625-2.90625L507.875-2.90625L464.625-2.90625L341.438-2.90625L178.688-2.90625L131.562-2.90625L3.09375-2.90625Z" fill="#010847" fill-rule="nonzero" opacity="1" stroke="#ffffff" stroke-linecap="butt" stroke-linejoin="miter" stroke-width="2.51695"/>
<g opacity="1">
<path d="M464.625-3.90625C482.89 1.8553 496.688 10.3982 503.062 21.2812C552.525 105.719 621.663 120.378 670.531 110.594C886.849 67.2836 854.788 162.213 1075.41 91.5625C1285.59 24.2544 1435.59 102.397 1539.62 97.375L1539.62 77.375L1539.62 47.3125L1539.62-3.90625L597.625-3.90625L507.875-3.90625L464.625-3.90625Z" fill="#3e68ff" fill-rule="nonzero" opacity="1" stroke="none"/>
<path d="M3.09375-3.90625L3.09375 41.2188L3.09375 69.375L3.09375 102.656C61.11 119.464 162.445 121.721 217.406 64.9062C252.498 28.6318 297.453 6.7734 341.438-3.90625L178.688-3.90625L131.562-3.90625L3.09375-3.90625Z" fill="#3e68ff" fill-rule="nonzero" opacity="1" stroke="none"/>
<path d="M3.09375-3.90625L3.09375 41.2188L3.09375 69.375L3.09375 102.656L3.09375 114.875C37.6841 125.49 83.2788 131.166 126.094 121.5C155.774 114.799 202.648 100.462 222.531 78.125C302.557-11.7753 463.184-17.5348 490.938 29.8438C540.4 114.281 614.319 139.201 662.688 127.312C888.869 71.7196 854.428 182.25 1090.56 100.25C1279.3 34.7081 1433.83 115.11 1539.62 109.375L1539.62 97.375L1539.62 77.375L1539.62 47.3125L1539.62-3.90625L597.625-3.90625L507.875-3.90625L464.625-3.90625L341.438-3.90625L178.688-3.90625L131.562-3.90625L3.09375-3.90625Z" fill="none" opacity="1" stroke="#ffffff" stroke-linecap="butt" stroke-linejoin="miter" stroke-width="5"/>
</g>
<g opacity="1">
<path d="M1520.28 153.031C1480.92 154.984 1430.27 179.254 1388 241.375C1294.99 378.052 1091.71 328.854 1033.97 282.75C984.505 243.258 917.749 248.584 852.625 262.938C852.616 262.934 852.6 262.941 852.594 262.938C842.113 265.248 831.723 267.706 821.406 270.344C821.397 270.341 821.384 270.347 821.375 270.344C741.098 290.87 668.096 316.748 639.719 278.438C629.297 264.367 618.126 252.247 606.406 241.719C600.306 236.239 594.04 231.289 587.656 226.688C542.116 193.865 490.001 182.558 439.656 182.969C359.234 183.626 283.464 213.84 246.781 232.594C229.835 241.257 212.263 246.66 194.25 249.906C194.242 249.902 194.227 249.911 194.219 249.906C185.26 251.52 176.205 252.593 167.031 253.25C119.503 256.656 69.2912 248.96 18.6875 247.844C12.9795 247.718 7.87718 248.002 3.09375 248.469L3.09375 366.969L1141.34 367.406C1141.36 367.409 1141.39 367.403 1141.41 367.406L1325.62 367.469C1325.64 367.466 1325.65 367.471 1325.66 367.469L1539.62 367.562L1539.62 261.625L1539.62 244.844L1539.62 154.156C1533.54 153.218 1527.16 152.69 1520.28 153.031Z" fill="#3e68ff" fill-rule="nonzero" opacity="1" stroke="none"/>
<path d="M1516.16 143.031C1474.69 145.037 1421.65 169.379 1379.38 231.5C1296.81 352.835 1135.22 323.621 1061.78 283.625C1052.5 278.568 1044.45 273.331 1037.97 268.156C980.342 222.147 900.417 235.949 826.5 254.531C826.49 254.528 826.481 254.534 826.469 254.531C815.492 257.291 805.117 259.927 794.5 262.719C728.515 280.067 670.759 294.758 644.625 263.125C637.779 254.838 630.637 247.311 623.312 240.312C617.238 234.508 611.044 229.126 604.688 224.156C553.32 183.986 493.492 170.165 436.531 170.281C354.355 170.449 278.194 199.429 242.281 219.5C221.017 231.385 199.837 237.967 178.781 241.156C168.115 242.772 157.478 243.515 146.875 243.625C146.866 243.621 146.852 243.629 146.844 243.625C103.867 244.069 61.4593 234.26 19.8125 230.281C14.2271 229.748 8.65059 229.343 3.09375 229.062L3.09375 234.656L3.09375 248.469L3.09375 366.969L3.09375 401.594L952.656 401.594L1539.62 396.906L1539.62 367.562L1539.62 261.625L1539.62 244.844L1539.62 154.156L1539.62 144.531C1532.37 143.239 1524.54 142.626 1516.16 143.031Z" fill="none" opacity="1" stroke="#ffffff" stroke-linecap="butt" stroke-linejoin="miter" stroke-width="5"/>
</g>
<g opacity="1">
<path d="M71.3438 207.5C50.7114 206.953 28.1096 209.899 3.09375 217.531L3.09375 229.062L3.09375 234.656L3.09375 248.469L3.09375 366.969L3.09375 401.594L952.656 401.594L1539.62 401.594L1539.62 396.906L1539.62 367.562L1539.62 261.625L1539.62 244.844C1533.33 243.207 1526.21 242.321 1517.91 242.594C1441.36 245.123 1436.79 364.843 1222.41 357.312C1064.46 351.764 967.886 301.66 852.625 262.938C852.616 262.934 852.6 262.941 852.594 262.938C844.026 260.059 835.304 257.261 826.5 254.531C826.49 254.528 826.481 254.534 826.469 254.531C792.949 244.147 757.569 234.933 718.281 228.312C693.35 224.111 670.757 222.133 650 221.875C633.868 221.674 618.874 222.526 604.688 224.156C598.837 224.829 593.236 225.762 587.656 226.688C484.892 243.742 424.809 300.82 297.25 292.688C260.848 290.367 228.949 270.085 194.25 249.906C194.242 249.902 194.227 249.911 194.219 249.906C189.146 246.956 183.997 244.047 178.781 241.156C147.584 223.873 113.462 208.617 71.3438 207.5Z" fill="#c4d1ff" fill-rule="nonzero" opacity="1" stroke="none"/>
<path d="M69.5625 225.25C54.1278 224.842 37.6088 226.346 19.8125 230.281C14.3778 231.483 8.77802 232.977 3.09375 234.656L3.09375 248.469L3.09375 366.969L3.09375 401.594L952.656 401.594L1539.62 401.594L1539.62 396.906L1539.62 367.562L1539.62 261.625C1534.23 260.587 1528.21 260.123 1521.5 260.344C1459.08 262.398 1444.37 341.793 1325.66 367.469C1325.65 367.471 1325.64 367.466 1325.62 367.469C1298.22 373.393 1265.25 376.443 1224.91 375.031C1195 373.984 1167.47 371.251 1141.41 367.406C1141.39 367.403 1141.36 367.409 1141.34 367.406C1016.64 348.996 929.583 302.989 821.406 270.344C821.397 270.341 821.383 270.347 821.375 270.344C812.59 267.693 803.601 265.169 794.5 262.719C770.637 256.291 745.715 250.563 718.906 246.062C693.881 241.861 671.207 239.883 650.375 239.625C640.979 239.509 632.015 239.778 623.312 240.312C617.563 240.665 611.889 241.116 606.406 241.719C606.386 241.721 606.363 241.717 606.344 241.719C491.349 254.383 431.891 319.018 296.312 310.406C250.922 307.523 212.555 276.962 167.031 253.25C160.487 249.841 153.758 246.648 146.875 243.625C146.866 243.621 146.852 243.629 146.844 243.625C123.739 233.479 98.5539 226.016 69.5625 225.25Z" fill="none" opacity="1" stroke="#ffffff" stroke-linecap="butt" stroke-linejoin="miter" stroke-width="10"/>
</g>
<g opacity="1">
<path d="M507.875-2.90625C622.285 29.1742 710.95 80.3956 842.344 103.844C1041.46 139.378 1091.19 30.8426 1263.97 43.5312C1343.3 49.3574 1436.93 103.348 1539.62 78.375L1539.62 48.3125L1539.62-2.90625L597.625-2.90625L507.875-2.90625Z" fill="#c4d1ff" fill-rule="nonzero" opacity="1" stroke="none"/>
<path d="M3.09375-2.90625L3.09375 42.2188L3.09375 70.375C12.2014 77.8787 25.0456 82.2615 42.9062 81.8438C92.5463 80.6826 112.452 29.9992 178.688-2.90625L131.562-2.90625L3.09375-2.90625Z" fill="#c4d1ff" fill-rule="nonzero" opacity="1" stroke="none"/>
<path d="M597.625-2.90625C675.095 25.9334 748.477 58.3899 845.219 75.625C1044.68 111.16 1092.96 0.186373 1266.03 12.875C1344.85 18.6532 1437.75 71.7988 1539.62 48.3125L1539.62-2.90625L597.625-2.90625Z" fill="none" opacity="1" stroke="#ffffff" stroke-linecap="butt" stroke-linejoin="miter" stroke-width="10"/>
<path d="M3.09375-2.90625L3.09375 42.2188C10.8795 50.2625 22.0521 54.877 37.8125 54.125C73.0006 52.4459 95.1954 24.7422 131.562-2.90625L3.09375-2.90625Z" fill="none" opacity="1" stroke="#ffffff" stroke-linecap="butt" stroke-linejoin="miter" stroke-width="10"/>
</g>
</g>
</svg>
